G04 #@! TF.GenerationSoftware,KiCad,Pcbnew,(5.1.0)-1*
G04 #@! TF.CreationDate,2019-08-25T01:17:47+02:00*
G04 #@! TF.ProjectId,Filtre-de-resolution-MSA-200-Hz,46696c74-7265-42d6-9465-2d7265736f6c,1.0*
G04 #@! TF.SameCoordinates,Original*
G04 #@! TF.FileFunction,Other,User*
%FSLAX46Y46*%
G04 Gerber Fmt 4.6, Leading zero omitted, Abs format (unit mm)*
G04 Created by KiCad (PCBNEW (5.1.0)-1) date 2019-08-25 01:17:47*
%MOMM*%
%LPD*%
G04 APERTURE LIST*
%ADD10C,0.100000*%
%ADD11C,0.120000*%
%ADD12C,0.050000*%
G04 APERTURE END LIST*
D10*
X114800001Y-118375000D02*
X114800001Y-116575000D01*
X119000001Y-118375000D02*
X114800001Y-118375000D01*
X119000001Y-116575000D02*
X119000001Y-118375000D01*
X114800001Y-116575000D02*
X119000001Y-116575000D01*
X116709501Y-117475000D02*
X117090501Y-117475000D01*
X116900001Y-117284500D02*
X116900001Y-117665500D01*
X147155000Y-83725000D02*
X148755000Y-83725000D01*
X147155000Y-87725000D02*
X147155000Y-83725000D01*
X148755000Y-87725000D02*
X147155000Y-87725000D01*
X148755000Y-83725000D02*
X148755000Y-87725000D01*
D11*
X146304000Y-103968000D02*
X146304000Y-108032000D01*
X143256000Y-103968000D02*
X146304000Y-103968000D01*
X143256000Y-108032000D02*
X143256000Y-103968000D01*
X146304000Y-108032000D02*
X143256000Y-108032000D01*
D12*
X78000000Y-106900000D02*
X78000000Y-98100000D01*
X78000000Y-106900000D02*
X99160000Y-106900000D01*
X99160000Y-98100000D02*
X78000000Y-98100000D01*
X99160000Y-98100000D02*
X99160000Y-106900000D01*
X213000000Y-98100000D02*
X213000000Y-106900000D01*
X213000000Y-98100000D02*
X191840000Y-98100000D01*
X191840000Y-106900000D02*
X213000000Y-106900000D01*
X191840000Y-106900000D02*
X191840000Y-98100000D01*
D10*
X144875000Y-88100000D02*
X144875000Y-89700000D01*
X140875000Y-88100000D02*
X144875000Y-88100000D01*
X140875000Y-89700000D02*
X140875000Y-88100000D01*
X144875000Y-89700000D02*
X140875000Y-89700000D01*
X139160000Y-88100000D02*
X139160000Y-89700000D01*
X135160000Y-88100000D02*
X139160000Y-88100000D01*
X135160000Y-89700000D02*
X135160000Y-88100000D01*
X139160000Y-89700000D02*
X135160000Y-89700000D01*
X133890000Y-103670000D02*
X133890000Y-102070000D01*
X137890000Y-103670000D02*
X133890000Y-103670000D01*
X137890000Y-102070000D02*
X137890000Y-103670000D01*
X133890000Y-102070000D02*
X137890000Y-102070000D01*
X140875000Y-83985000D02*
X140875000Y-82385000D01*
X144875000Y-83985000D02*
X140875000Y-83985000D01*
X144875000Y-82385000D02*
X144875000Y-83985000D01*
X140875000Y-82385000D02*
X144875000Y-82385000D01*
X138335000Y-110655000D02*
X138335000Y-109055000D01*
X142335000Y-110655000D02*
X138335000Y-110655000D01*
X142335000Y-109055000D02*
X142335000Y-110655000D01*
X138335000Y-109055000D02*
X142335000Y-109055000D01*
X151000000Y-106845000D02*
X151000000Y-105245000D01*
X155000000Y-106845000D02*
X151000000Y-106845000D01*
X155000000Y-105245000D02*
X155000000Y-106845000D01*
X151000000Y-105245000D02*
X155000000Y-105245000D01*
X151000000Y-103670000D02*
X151000000Y-102070000D01*
X155000000Y-103670000D02*
X151000000Y-103670000D01*
X155000000Y-102070000D02*
X155000000Y-103670000D01*
X151000000Y-102070000D02*
X155000000Y-102070000D01*
D11*
X111760000Y-94372000D02*
X121412000Y-94372000D01*
X111760000Y-110628000D02*
X111760000Y-94372000D01*
X121412000Y-110628000D02*
X111760000Y-110628000D01*
X121412000Y-94372000D02*
X121412000Y-110628000D01*
D10*
X104140000Y-102044500D02*
X104140000Y-102425500D01*
X103949500Y-102235000D02*
X104330500Y-102235000D01*
X102040000Y-101335000D02*
X106240000Y-101335000D01*
X106240000Y-101335000D02*
X106240000Y-103135000D01*
X106240000Y-103135000D02*
X102040000Y-103135000D01*
X102040000Y-103135000D02*
X102040000Y-101335000D01*
X183320000Y-103135000D02*
X183320000Y-101335000D01*
X187520000Y-103135000D02*
X183320000Y-103135000D01*
X187520000Y-101335000D02*
X187520000Y-103135000D01*
X183320000Y-101335000D02*
X187520000Y-101335000D01*
X185229500Y-102235000D02*
X185610500Y-102235000D01*
X185420000Y-102044500D02*
X185420000Y-102425500D01*
X116840000Y-87439500D02*
X116840000Y-87820500D01*
X116649500Y-87630000D02*
X117030500Y-87630000D01*
X114740000Y-86730000D02*
X118940000Y-86730000D01*
X118940000Y-86730000D02*
X118940000Y-88530000D01*
X118940000Y-88530000D02*
X114740000Y-88530000D01*
X114740000Y-88530000D02*
X114740000Y-86730000D01*
X114740000Y-85355000D02*
X114740000Y-83555000D01*
X118940000Y-85355000D02*
X114740000Y-85355000D01*
X118940000Y-83555000D02*
X118940000Y-85355000D01*
X114740000Y-83555000D02*
X118940000Y-83555000D01*
X116649500Y-84455000D02*
X117030500Y-84455000D01*
X116840000Y-84264500D02*
X116840000Y-84645500D01*
X116900001Y-120459500D02*
X116900001Y-120840500D01*
X116709501Y-120650000D02*
X117090501Y-120650000D01*
X114800001Y-119750000D02*
X119000001Y-119750000D01*
X119000001Y-119750000D02*
X119000001Y-121550000D01*
X119000001Y-121550000D02*
X114800001Y-121550000D01*
X114800001Y-121550000D02*
X114800001Y-119750000D01*
X135060000Y-84085000D02*
X135060000Y-82285000D01*
X139260000Y-84085000D02*
X135060000Y-84085000D01*
X139260000Y-82285000D02*
X139260000Y-84085000D01*
X135060000Y-82285000D02*
X139260000Y-82285000D01*
X136969500Y-83185000D02*
X137350500Y-83185000D01*
X137160000Y-82994500D02*
X137160000Y-83375500D01*
X133790000Y-110755000D02*
X133790000Y-108955000D01*
X137990000Y-110755000D02*
X133790000Y-110755000D01*
X137990000Y-108955000D02*
X137990000Y-110755000D01*
X133790000Y-108955000D02*
X137990000Y-108955000D01*
X135699500Y-109855000D02*
X136080500Y-109855000D01*
X135890000Y-109664500D02*
X135890000Y-110045500D01*
X153035000Y-109664500D02*
X153035000Y-110045500D01*
X152844500Y-109855000D02*
X153225500Y-109855000D01*
X150935000Y-108955000D02*
X155135000Y-108955000D01*
X155135000Y-108955000D02*
X155135000Y-110755000D01*
X155135000Y-110755000D02*
X150935000Y-110755000D01*
X150935000Y-110755000D02*
X150935000Y-108955000D01*
X172720000Y-84264500D02*
X172720000Y-84645500D01*
X172529500Y-84455000D02*
X172910500Y-84455000D01*
X170620000Y-83555000D02*
X174820000Y-83555000D01*
X174820000Y-83555000D02*
X174820000Y-85355000D01*
X174820000Y-85355000D02*
X170620000Y-85355000D01*
X170620000Y-85355000D02*
X170620000Y-83555000D01*
X170620000Y-88530000D02*
X170620000Y-86730000D01*
X174820000Y-88530000D02*
X170620000Y-88530000D01*
X174820000Y-86730000D02*
X174820000Y-88530000D01*
X170620000Y-86730000D02*
X174820000Y-86730000D01*
X172529500Y-87630000D02*
X172910500Y-87630000D01*
X172720000Y-87439500D02*
X172720000Y-87820500D01*
X172720000Y-117919500D02*
X172720000Y-118300500D01*
X172529500Y-118110000D02*
X172910500Y-118110000D01*
X170620000Y-117210000D02*
X174820000Y-117210000D01*
X174820000Y-117210000D02*
X174820000Y-119010000D01*
X174820000Y-119010000D02*
X170620000Y-119010000D01*
X170620000Y-119010000D02*
X170620000Y-117210000D01*
X172720000Y-121094500D02*
X172720000Y-121475500D01*
X172529500Y-121285000D02*
X172910500Y-121285000D01*
X170620000Y-120385000D02*
X174820000Y-120385000D01*
X174820000Y-120385000D02*
X174820000Y-122185000D01*
X174820000Y-122185000D02*
X170620000Y-122185000D01*
X170620000Y-122185000D02*
X170620000Y-120385000D01*
D11*
X177292000Y-94107000D02*
X177292000Y-110363000D01*
X177292000Y-110363000D02*
X167640000Y-110363000D01*
X167640000Y-110363000D02*
X167640000Y-94107000D01*
X167640000Y-94107000D02*
X177292000Y-94107000D01*
M02*
