M48
; DRILL file {KiCad (5.1.0)-1} date 25/08/2019 01:17:51
; FORMAT={-:-/ absolute / inch / decimal}
; #@! TF.CreationDate,2019-08-25T01:17:51+02:00
; #@! TF.GenerationSoftware,Kicad,Pcbnew,(5.1.0)-1
; #@! TF.FileFunction,Plated,1,2,PTH
FMAT,2
INCH
T1C0.0236
T2C0.0315
T3C0.0394
T4C0.0591
%
G90
G05
T1
X4.925Y-4.339
X7.125Y-3.7476
X6.475Y-4.3539
X6.475Y-4.5461
X4.25Y-4.3289
X4.25Y-4.5211
X4.25Y-3.5539
X4.25Y-3.7461
X6.475Y-3.5555
X6.475Y-3.7476
X4.925Y-4.5311
X7.125Y-4.3539
X7.125Y-4.5461
X7.125Y-3.5555
X4.925Y-3.5539
X4.925Y-3.7461
T2
X3.975Y-4.025
X4.5Y-4.45
X4.7Y-3.625
X5.2Y-4.325
X5.275Y-3.275
X5.275Y-3.5
X5.65Y-3.975
X5.675Y-3.625
X5.75Y-3.975
X5.825Y-3.625
X5.825Y-4.325
X6.2Y-4.325
X6.7Y-4.45
X6.9Y-3.6
X7.425Y-4.025
X6.26Y-4.66
X6.12Y-3.82
X5.14Y-3.04
X5.7Y-5.04
X6.26Y-3.54
X5.7Y-4.4
X6.26Y-3.38
X5.7Y-3.92
X5.14Y-3.82
X5.14Y-3.22
X6.26Y-3.98
X5.14Y-4.44
X6.26Y-5.04
X5.32Y-3.82
X6.26Y-3.7
X6.26Y-3.04
X5.9Y-3.82
X5.14Y-3.54
X6.26Y-4.44
X6.26Y-4.86
X5.14Y-3.68
X5.7Y-4.86
X5.48Y-3.82
X6.26Y-3.22
X6.26Y-4.12
X5.14Y-3.96
X5.14Y-4.86
X5.7Y-4.66
X5.14Y-5.04
X5.14Y-3.38
X5.14Y-4.14
X5.14Y-4.66
T3
X5.725Y-3.0315
X5.825Y-3.0315
T4
X7.6165Y-3.9354
X7.6165Y-4.1354
X7.7165Y-4.0354
X7.8165Y-3.9354
X7.8165Y-4.1354
X3.6402Y-3.9354
X3.6402Y-4.1354
X3.7402Y-4.0354
X3.8402Y-3.9354
X3.8402Y-4.1354
T0
M30
