G04 #@! TF.GenerationSoftware,KiCad,Pcbnew,(5.1.0)-1*
G04 #@! TF.CreationDate,2019-08-25T01:17:47+02:00*
G04 #@! TF.ProjectId,Filtre-de-resolution-MSA-200-Hz,46696c74-7265-42d6-9465-2d7265736f6c,1.0*
G04 #@! TF.SameCoordinates,Original*
G04 #@! TF.FileFunction,Paste,Top*
G04 #@! TF.FilePolarity,Positive*
%FSLAX46Y46*%
G04 Gerber Fmt 4.6, Leading zero omitted, Abs format (unit mm)*
G04 Created by KiCad (PCBNEW (5.1.0)-1) date 2019-08-25 01:17:47*
%MOMM*%
%LPD*%
G04 APERTURE LIST*
%ADD10R,1.300000X1.500000*%
%ADD11R,1.300000X1.200000*%
%ADD12R,0.500000X1.000000*%
%ADD13R,1.200000X1.300000*%
%ADD14R,1.270000X3.180000*%
%ADD15R,1.000000X5.000000*%
G04 APERTURE END LIST*
D10*
X118200001Y-117475000D03*
X115600001Y-117475000D03*
D11*
X147955000Y-86975000D03*
X147955000Y-84475000D03*
D12*
X145730000Y-107250000D03*
X143830000Y-107250000D03*
X143830000Y-104750000D03*
X144780000Y-104750000D03*
X145730000Y-104750000D03*
D13*
X141625000Y-88900000D03*
X144125000Y-88900000D03*
X135910000Y-88900000D03*
X138410000Y-88900000D03*
X137140000Y-102870000D03*
X134640000Y-102870000D03*
X144125000Y-83185000D03*
X141625000Y-83185000D03*
X141585000Y-109855000D03*
X139085000Y-109855000D03*
X154250000Y-106045000D03*
X151750000Y-106045000D03*
X154250000Y-102870000D03*
X151750000Y-102870000D03*
D14*
X114300000Y-108530000D03*
X116840000Y-108530000D03*
X119380000Y-108530000D03*
X119380000Y-96470000D03*
X116840000Y-96470000D03*
X114300000Y-96470000D03*
D15*
X107950000Y-88310000D03*
X107950000Y-97110000D03*
X107950000Y-116795000D03*
X107950000Y-107995000D03*
X125095000Y-97110000D03*
X125095000Y-88310000D03*
X125095000Y-108250000D03*
X125095000Y-117050000D03*
D10*
X102840000Y-102235000D03*
X105440000Y-102235000D03*
X186720000Y-102235000D03*
X184120000Y-102235000D03*
X115540000Y-87630000D03*
X118140000Y-87630000D03*
X118140000Y-84455000D03*
X115540000Y-84455000D03*
X115600001Y-120650000D03*
X118200001Y-120650000D03*
X138460000Y-83185000D03*
X135860000Y-83185000D03*
X137190000Y-109855000D03*
X134590000Y-109855000D03*
X151735000Y-109855000D03*
X154335000Y-109855000D03*
X171420000Y-84455000D03*
X174020000Y-84455000D03*
X174020000Y-87630000D03*
X171420000Y-87630000D03*
X171420000Y-118110000D03*
X174020000Y-118110000D03*
X171420000Y-121285000D03*
X174020000Y-121285000D03*
D14*
X170180000Y-96205000D03*
X172720000Y-96205000D03*
X175260000Y-96205000D03*
X175260000Y-108265000D03*
X172720000Y-108265000D03*
X170180000Y-108265000D03*
D15*
X164465000Y-97150000D03*
X164465000Y-88350000D03*
X164465000Y-117430000D03*
X164465000Y-108630000D03*
X180975000Y-88350000D03*
X180975000Y-97150000D03*
X180975000Y-108630000D03*
X180975000Y-117430000D03*
M02*
