G04 #@! TF.GenerationSoftware,KiCad,Pcbnew,(5.1.0)-1*
G04 #@! TF.CreationDate,2019-08-25T01:17:47+02:00*
G04 #@! TF.ProjectId,Filtre-de-resolution-MSA-200-Hz,46696c74-7265-42d6-9465-2d7265736f6c,1.0*
G04 #@! TF.SameCoordinates,Original*
G04 #@! TF.FileFunction,Other,Fab,Top*
%FSLAX46Y46*%
G04 Gerber Fmt 4.6, Leading zero omitted, Abs format (unit mm)*
G04 Created by KiCad (PCBNEW (5.1.0)-1) date 2019-08-25 01:17:47*
%MOMM*%
%LPD*%
G04 APERTURE LIST*
%ADD10C,0.100000*%
%ADD11C,0.150000*%
G04 APERTURE END LIST*
D10*
X81000000Y-105500000D02*
X80300000Y-99500000D01*
X82000000Y-105500000D02*
X81300000Y-99500000D01*
X83000000Y-105500000D02*
X82300000Y-99500000D01*
X84000000Y-105500000D02*
X83300000Y-99500000D01*
X85000000Y-105500000D02*
X84300000Y-99500000D01*
X86000000Y-105500000D02*
X85300000Y-99500000D01*
X87000000Y-105500000D02*
X86300000Y-99500000D01*
X88000000Y-105500000D02*
X87300000Y-99500000D01*
X89000000Y-105500000D02*
X88300000Y-99500000D01*
X91050000Y-106400000D02*
X91050000Y-98600000D01*
X89930000Y-106400000D02*
X91050000Y-106400000D01*
X89930000Y-98600000D02*
X89930000Y-106400000D01*
X91050000Y-98600000D02*
X89930000Y-98600000D01*
X78500000Y-99500000D02*
X89930000Y-99500000D01*
X78500000Y-105500000D02*
X89930000Y-105500000D01*
X78500000Y-105500000D02*
X78500000Y-99500000D01*
X91050000Y-99000000D02*
X98050000Y-99000000D01*
X98050000Y-106000000D02*
X98050000Y-99000000D01*
X91050000Y-106000000D02*
X98050000Y-106000000D01*
X91050000Y-106000000D02*
X91050000Y-99000000D01*
X210000000Y-99500000D02*
X210700000Y-105500000D01*
X209000000Y-99500000D02*
X209700000Y-105500000D01*
X208000000Y-99500000D02*
X208700000Y-105500000D01*
X207000000Y-99500000D02*
X207700000Y-105500000D01*
X206000000Y-99500000D02*
X206700000Y-105500000D01*
X205000000Y-99500000D02*
X205700000Y-105500000D01*
X204000000Y-99500000D02*
X204700000Y-105500000D01*
X203000000Y-99500000D02*
X203700000Y-105500000D01*
X202000000Y-99500000D02*
X202700000Y-105500000D01*
X199950000Y-98600000D02*
X199950000Y-106400000D01*
X201070000Y-98600000D02*
X199950000Y-98600000D01*
X201070000Y-106400000D02*
X201070000Y-98600000D01*
X199950000Y-106400000D02*
X201070000Y-106400000D01*
X212500000Y-105500000D02*
X201070000Y-105500000D01*
X212500000Y-99500000D02*
X201070000Y-99500000D01*
X212500000Y-99500000D02*
X212500000Y-105500000D01*
X199950000Y-106000000D02*
X192950000Y-106000000D01*
X192950000Y-99000000D02*
X192950000Y-106000000D01*
X199950000Y-99000000D02*
X192950000Y-99000000D01*
X199950000Y-99000000D02*
X199950000Y-106000000D01*
D11*
X100404761Y-103785714D02*
X100452380Y-103642857D01*
X100452380Y-103404761D01*
X100404761Y-103309523D01*
X100357142Y-103261904D01*
X100261904Y-103214285D01*
X100166666Y-103214285D01*
X100071428Y-103261904D01*
X100023809Y-103309523D01*
X99976190Y-103404761D01*
X99928571Y-103595238D01*
X99880952Y-103690476D01*
X99833333Y-103738095D01*
X99738095Y-103785714D01*
X99642857Y-103785714D01*
X99547619Y-103738095D01*
X99500000Y-103690476D01*
X99452380Y-103595238D01*
X99452380Y-103357142D01*
X99500000Y-103214285D01*
X100452380Y-102785714D02*
X99452380Y-102785714D01*
X100166666Y-102452380D01*
X99452380Y-102119047D01*
X100452380Y-102119047D01*
X100166666Y-101690476D02*
X100166666Y-101214285D01*
X100452380Y-101785714D02*
X99452380Y-101452380D01*
X100452380Y-101119047D01*
X95452380Y-103238095D02*
X94452380Y-103238095D01*
X94452380Y-102857142D01*
X94500000Y-102761904D01*
X94547619Y-102714285D01*
X94642857Y-102666666D01*
X94785714Y-102666666D01*
X94880952Y-102714285D01*
X94928571Y-102761904D01*
X94976190Y-102857142D01*
X94976190Y-103238095D01*
X95452380Y-101714285D02*
X95452380Y-102285714D01*
X95452380Y-102000000D02*
X94452380Y-102000000D01*
X94595238Y-102095238D01*
X94690476Y-102190476D01*
X94738095Y-102285714D01*
X191404761Y-103785714D02*
X191452380Y-103642857D01*
X191452380Y-103404761D01*
X191404761Y-103309523D01*
X191357142Y-103261904D01*
X191261904Y-103214285D01*
X191166666Y-103214285D01*
X191071428Y-103261904D01*
X191023809Y-103309523D01*
X190976190Y-103404761D01*
X190928571Y-103595238D01*
X190880952Y-103690476D01*
X190833333Y-103738095D01*
X190738095Y-103785714D01*
X190642857Y-103785714D01*
X190547619Y-103738095D01*
X190500000Y-103690476D01*
X190452380Y-103595238D01*
X190452380Y-103357142D01*
X190500000Y-103214285D01*
X191452380Y-102785714D02*
X190452380Y-102785714D01*
X191166666Y-102452380D01*
X190452380Y-102119047D01*
X191452380Y-102119047D01*
X191166666Y-101690476D02*
X191166666Y-101214285D01*
X191452380Y-101785714D02*
X190452380Y-101452380D01*
X191452380Y-101119047D01*
X196452380Y-103238095D02*
X195452380Y-103238095D01*
X195452380Y-102857142D01*
X195500000Y-102761904D01*
X195547619Y-102714285D01*
X195642857Y-102666666D01*
X195785714Y-102666666D01*
X195880952Y-102714285D01*
X195928571Y-102761904D01*
X195976190Y-102857142D01*
X195976190Y-103238095D01*
X195452380Y-102333333D02*
X195452380Y-101714285D01*
X195833333Y-102047619D01*
X195833333Y-101904761D01*
X195880952Y-101809523D01*
X195928571Y-101761904D01*
X196023809Y-101714285D01*
X196261904Y-101714285D01*
X196357142Y-101761904D01*
X196404761Y-101809523D01*
X196452380Y-101904761D01*
X196452380Y-102190476D01*
X196404761Y-102285714D01*
X196357142Y-102333333D01*
M02*
