G04 #@! TF.GenerationSoftware,KiCad,Pcbnew,(5.1.0)-1*
G04 #@! TF.CreationDate,2019-08-25T01:17:47+02:00*
G04 #@! TF.ProjectId,Filtre-de-resolution-MSA-200-Hz,46696c74-7265-42d6-9465-2d7265736f6c,1.0*
G04 #@! TF.SameCoordinates,Original*
G04 #@! TF.FileFunction,Soldermask,Top*
G04 #@! TF.FilePolarity,Negative*
%FSLAX46Y46*%
G04 Gerber Fmt 4.6, Leading zero omitted, Abs format (unit mm)*
G04 Created by KiCad (PCBNEW (5.1.0)-1) date 2019-08-25 01:17:47*
%MOMM*%
%LPD*%
G04 APERTURE LIST*
%ADD10C,0.100000*%
G04 APERTURE END LIST*
D10*
G36*
X201000000Y-130000000D02*
G01*
X200000000Y-130000000D01*
X200000000Y-75000000D01*
X201000000Y-75000000D01*
X201000000Y-130000000D01*
G37*
X201000000Y-130000000D02*
X200000000Y-130000000D01*
X200000000Y-75000000D01*
X201000000Y-75000000D01*
X201000000Y-130000000D01*
G36*
X201000000Y-130000000D02*
G01*
X90000000Y-130000000D01*
X90000000Y-129000000D01*
X201000000Y-129000000D01*
X201000000Y-130000000D01*
G37*
X201000000Y-130000000D02*
X90000000Y-130000000D01*
X90000000Y-129000000D01*
X201000000Y-129000000D01*
X201000000Y-130000000D01*
G36*
X91000000Y-130000000D02*
G01*
X90000000Y-130000000D01*
X90000000Y-75000000D01*
X91000000Y-75000000D01*
X91000000Y-130000000D01*
G37*
X91000000Y-130000000D02*
X90000000Y-130000000D01*
X90000000Y-75000000D01*
X91000000Y-75000000D01*
X91000000Y-130000000D01*
G36*
X201000000Y-76000000D02*
G01*
X90000000Y-76000000D01*
X90000000Y-75000000D01*
X201000000Y-75000000D01*
X201000000Y-76000000D01*
G37*
X201000000Y-76000000D02*
X90000000Y-76000000D01*
X90000000Y-75000000D01*
X201000000Y-75000000D01*
X201000000Y-76000000D01*
G36*
X159500000Y-102000000D02*
G01*
X158500000Y-102000000D01*
X158500000Y-75000000D01*
X159500000Y-75000000D01*
X159500000Y-102000000D01*
G37*
X159500000Y-102000000D02*
X158500000Y-102000000D01*
X158500000Y-75000000D01*
X159500000Y-75000000D01*
X159500000Y-102000000D01*
G36*
X159500000Y-130000000D02*
G01*
X158500000Y-130000000D01*
X158500000Y-103500000D01*
X159500000Y-103500000D01*
X159500000Y-130000000D01*
G37*
X159500000Y-130000000D02*
X158500000Y-130000000D01*
X158500000Y-103500000D01*
X159500000Y-103500000D01*
X159500000Y-130000000D01*
G36*
X131000000Y-130000000D02*
G01*
X130000000Y-130000000D01*
X130000000Y-104000000D01*
X131000000Y-104000000D01*
X131000000Y-130000000D01*
G37*
X131000000Y-130000000D02*
X130000000Y-130000000D01*
X130000000Y-104000000D01*
X131000000Y-104000000D01*
X131000000Y-130000000D01*
G36*
X131000000Y-102000000D02*
G01*
X130000000Y-102000000D01*
X130000000Y-75000000D01*
X131000000Y-75000000D01*
X131000000Y-102000000D01*
G37*
X131000000Y-102000000D02*
X130000000Y-102000000D01*
X130000000Y-75000000D01*
X131000000Y-75000000D01*
X131000000Y-102000000D01*
G36*
X159500000Y-97500000D02*
G01*
X130000000Y-97500000D01*
X130000000Y-96500000D01*
X159500000Y-96500000D01*
X159500000Y-97500000D01*
G37*
X159500000Y-97500000D02*
X130000000Y-97500000D01*
X130000000Y-96500000D01*
X159500000Y-96500000D01*
X159500000Y-97500000D01*
G36*
X145000000Y-111000000D02*
G01*
X145500000Y-111500000D01*
X145500000Y-130000000D01*
X144000000Y-130000000D01*
X144000000Y-111500000D01*
X144500000Y-111000000D01*
X144500000Y-106500000D01*
X145000000Y-106500000D01*
X145000000Y-111000000D01*
G37*
X145000000Y-111000000D02*
X145500000Y-111500000D01*
X145500000Y-130000000D01*
X144000000Y-130000000D01*
X144000000Y-111500000D01*
X144500000Y-111000000D01*
X144500000Y-106500000D01*
X145000000Y-106500000D01*
X145000000Y-111000000D01*
G36*
X145500000Y-99500000D02*
G01*
X145000000Y-100000000D01*
X145000000Y-104000000D01*
X144500000Y-104000000D01*
X144500000Y-100000000D01*
X144000000Y-99500000D01*
X144000000Y-96500000D01*
X145500000Y-96500000D01*
X145500000Y-99500000D01*
G37*
X145500000Y-99500000D02*
X145000000Y-100000000D01*
X145000000Y-104000000D01*
X144500000Y-104000000D01*
X144500000Y-100000000D01*
X144000000Y-99500000D01*
X144000000Y-96500000D01*
X145500000Y-96500000D01*
X145500000Y-99500000D01*
G36*
X130745890Y-127390017D02*
G01*
X130864364Y-127439091D01*
X130970988Y-127510335D01*
X131061665Y-127601012D01*
X131132909Y-127707636D01*
X131181983Y-127826110D01*
X131207000Y-127951882D01*
X131207000Y-128080118D01*
X131181983Y-128205890D01*
X131132909Y-128324364D01*
X131061665Y-128430988D01*
X130970988Y-128521665D01*
X130864364Y-128592909D01*
X130864363Y-128592910D01*
X130864362Y-128592910D01*
X130745890Y-128641983D01*
X130620119Y-128667000D01*
X130491881Y-128667000D01*
X130366110Y-128641983D01*
X130247638Y-128592910D01*
X130247637Y-128592910D01*
X130247636Y-128592909D01*
X130141012Y-128521665D01*
X130050335Y-128430988D01*
X129979091Y-128324364D01*
X129930017Y-128205890D01*
X129905000Y-128080118D01*
X129905000Y-127951882D01*
X129930017Y-127826110D01*
X129979091Y-127707636D01*
X130050335Y-127601012D01*
X130141012Y-127510335D01*
X130247636Y-127439091D01*
X130366110Y-127390017D01*
X130491881Y-127365000D01*
X130620119Y-127365000D01*
X130745890Y-127390017D01*
X130745890Y-127390017D01*
G37*
G36*
X144969890Y-127390017D02*
G01*
X145088364Y-127439091D01*
X145194988Y-127510335D01*
X145285665Y-127601012D01*
X145356909Y-127707636D01*
X145405983Y-127826110D01*
X145431000Y-127951882D01*
X145431000Y-128080118D01*
X145405983Y-128205890D01*
X145356909Y-128324364D01*
X145285665Y-128430988D01*
X145194988Y-128521665D01*
X145088364Y-128592909D01*
X145088363Y-128592910D01*
X145088362Y-128592910D01*
X144969890Y-128641983D01*
X144844119Y-128667000D01*
X144715881Y-128667000D01*
X144590110Y-128641983D01*
X144471638Y-128592910D01*
X144471637Y-128592910D01*
X144471636Y-128592909D01*
X144365012Y-128521665D01*
X144274335Y-128430988D01*
X144203091Y-128324364D01*
X144154017Y-128205890D01*
X144129000Y-128080118D01*
X144129000Y-127951882D01*
X144154017Y-127826110D01*
X144203091Y-127707636D01*
X144274335Y-127601012D01*
X144365012Y-127510335D01*
X144471636Y-127439091D01*
X144590110Y-127390017D01*
X144715881Y-127365000D01*
X144844119Y-127365000D01*
X144969890Y-127390017D01*
X144969890Y-127390017D01*
G37*
G36*
X159193890Y-127390017D02*
G01*
X159312364Y-127439091D01*
X159418988Y-127510335D01*
X159509665Y-127601012D01*
X159580909Y-127707636D01*
X159629983Y-127826110D01*
X159655000Y-127951882D01*
X159655000Y-128080118D01*
X159629983Y-128205890D01*
X159580909Y-128324364D01*
X159509665Y-128430988D01*
X159418988Y-128521665D01*
X159312364Y-128592909D01*
X159312363Y-128592910D01*
X159312362Y-128592910D01*
X159193890Y-128641983D01*
X159068119Y-128667000D01*
X158939881Y-128667000D01*
X158814110Y-128641983D01*
X158695638Y-128592910D01*
X158695637Y-128592910D01*
X158695636Y-128592909D01*
X158589012Y-128521665D01*
X158498335Y-128430988D01*
X158427091Y-128324364D01*
X158378017Y-128205890D01*
X158353000Y-128080118D01*
X158353000Y-127951882D01*
X158378017Y-127826110D01*
X158427091Y-127707636D01*
X158498335Y-127601012D01*
X158589012Y-127510335D01*
X158695636Y-127439091D01*
X158814110Y-127390017D01*
X158939881Y-127365000D01*
X159068119Y-127365000D01*
X159193890Y-127390017D01*
X159193890Y-127390017D01*
G37*
G36*
X144969890Y-122818017D02*
G01*
X145088364Y-122867091D01*
X145194988Y-122938335D01*
X145285665Y-123029012D01*
X145356909Y-123135636D01*
X145405983Y-123254110D01*
X145431000Y-123379882D01*
X145431000Y-123508118D01*
X145405983Y-123633890D01*
X145356909Y-123752364D01*
X145285665Y-123858988D01*
X145194988Y-123949665D01*
X145088364Y-124020909D01*
X145088363Y-124020910D01*
X145088362Y-124020910D01*
X144969890Y-124069983D01*
X144844119Y-124095000D01*
X144715881Y-124095000D01*
X144590110Y-124069983D01*
X144471638Y-124020910D01*
X144471637Y-124020910D01*
X144471636Y-124020909D01*
X144365012Y-123949665D01*
X144274335Y-123858988D01*
X144203091Y-123752364D01*
X144154017Y-123633890D01*
X144129000Y-123508118D01*
X144129000Y-123379882D01*
X144154017Y-123254110D01*
X144203091Y-123135636D01*
X144274335Y-123029012D01*
X144365012Y-122938335D01*
X144471636Y-122867091D01*
X144590110Y-122818017D01*
X144715881Y-122793000D01*
X144844119Y-122793000D01*
X144969890Y-122818017D01*
X144969890Y-122818017D01*
G37*
G36*
X130745890Y-122818017D02*
G01*
X130864364Y-122867091D01*
X130970988Y-122938335D01*
X131061665Y-123029012D01*
X131132909Y-123135636D01*
X131181983Y-123254110D01*
X131207000Y-123379882D01*
X131207000Y-123508118D01*
X131181983Y-123633890D01*
X131132909Y-123752364D01*
X131061665Y-123858988D01*
X130970988Y-123949665D01*
X130864364Y-124020909D01*
X130864363Y-124020910D01*
X130864362Y-124020910D01*
X130745890Y-124069983D01*
X130620119Y-124095000D01*
X130491881Y-124095000D01*
X130366110Y-124069983D01*
X130247638Y-124020910D01*
X130247637Y-124020910D01*
X130247636Y-124020909D01*
X130141012Y-123949665D01*
X130050335Y-123858988D01*
X129979091Y-123752364D01*
X129930017Y-123633890D01*
X129905000Y-123508118D01*
X129905000Y-123379882D01*
X129930017Y-123254110D01*
X129979091Y-123135636D01*
X130050335Y-123029012D01*
X130141012Y-122938335D01*
X130247636Y-122867091D01*
X130366110Y-122818017D01*
X130491881Y-122793000D01*
X130620119Y-122793000D01*
X130745890Y-122818017D01*
X130745890Y-122818017D01*
G37*
G36*
X159193890Y-122818017D02*
G01*
X159312364Y-122867091D01*
X159418988Y-122938335D01*
X159509665Y-123029012D01*
X159580909Y-123135636D01*
X159629983Y-123254110D01*
X159655000Y-123379882D01*
X159655000Y-123508118D01*
X159629983Y-123633890D01*
X159580909Y-123752364D01*
X159509665Y-123858988D01*
X159418988Y-123949665D01*
X159312364Y-124020909D01*
X159312363Y-124020910D01*
X159312362Y-124020910D01*
X159193890Y-124069983D01*
X159068119Y-124095000D01*
X158939881Y-124095000D01*
X158814110Y-124069983D01*
X158695638Y-124020910D01*
X158695637Y-124020910D01*
X158695636Y-124020909D01*
X158589012Y-123949665D01*
X158498335Y-123858988D01*
X158427091Y-123752364D01*
X158378017Y-123633890D01*
X158353000Y-123508118D01*
X158353000Y-123379882D01*
X158378017Y-123254110D01*
X158427091Y-123135636D01*
X158498335Y-123029012D01*
X158589012Y-122938335D01*
X158695636Y-122867091D01*
X158814110Y-122818017D01*
X158939881Y-122793000D01*
X159068119Y-122793000D01*
X159193890Y-122818017D01*
X159193890Y-122818017D01*
G37*
G36*
X172121000Y-122086000D02*
G01*
X170719000Y-122086000D01*
X170719000Y-120484000D01*
X172121000Y-120484000D01*
X172121000Y-122086000D01*
X172121000Y-122086000D01*
G37*
G36*
X174721000Y-122086000D02*
G01*
X173319000Y-122086000D01*
X173319000Y-120484000D01*
X174721000Y-120484000D01*
X174721000Y-122086000D01*
X174721000Y-122086000D01*
G37*
G36*
X118901001Y-121451000D02*
G01*
X117499001Y-121451000D01*
X117499001Y-119849000D01*
X118901001Y-119849000D01*
X118901001Y-121451000D01*
X118901001Y-121451000D01*
G37*
G36*
X116301001Y-121451000D02*
G01*
X114899001Y-121451000D01*
X114899001Y-119849000D01*
X116301001Y-119849000D01*
X116301001Y-121451000D01*
X116301001Y-121451000D01*
G37*
G36*
X165016000Y-119981000D02*
G01*
X163914000Y-119981000D01*
X163914000Y-114879000D01*
X165016000Y-114879000D01*
X165016000Y-119981000D01*
X165016000Y-119981000D01*
G37*
G36*
X181526000Y-119981000D02*
G01*
X180424000Y-119981000D01*
X180424000Y-114879000D01*
X181526000Y-114879000D01*
X181526000Y-119981000D01*
X181526000Y-119981000D01*
G37*
G36*
X125646000Y-119601000D02*
G01*
X124544000Y-119601000D01*
X124544000Y-114499000D01*
X125646000Y-114499000D01*
X125646000Y-119601000D01*
X125646000Y-119601000D01*
G37*
G36*
X108501000Y-119346000D02*
G01*
X107399000Y-119346000D01*
X107399000Y-114244000D01*
X108501000Y-114244000D01*
X108501000Y-119346000D01*
X108501000Y-119346000D01*
G37*
G36*
X144969890Y-117738017D02*
G01*
X145088364Y-117787091D01*
X145194988Y-117858335D01*
X145285665Y-117949012D01*
X145356909Y-118055636D01*
X145405983Y-118174110D01*
X145431000Y-118299882D01*
X145431000Y-118428118D01*
X145405983Y-118553890D01*
X145356909Y-118672364D01*
X145285665Y-118778988D01*
X145194988Y-118869665D01*
X145088364Y-118940909D01*
X145088363Y-118940910D01*
X145088362Y-118940910D01*
X144969890Y-118989983D01*
X144844119Y-119015000D01*
X144715881Y-119015000D01*
X144590110Y-118989983D01*
X144471638Y-118940910D01*
X144471637Y-118940910D01*
X144471636Y-118940909D01*
X144365012Y-118869665D01*
X144274335Y-118778988D01*
X144203091Y-118672364D01*
X144154017Y-118553890D01*
X144129000Y-118428118D01*
X144129000Y-118299882D01*
X144154017Y-118174110D01*
X144203091Y-118055636D01*
X144274335Y-117949012D01*
X144365012Y-117858335D01*
X144471636Y-117787091D01*
X144590110Y-117738017D01*
X144715881Y-117713000D01*
X144844119Y-117713000D01*
X144969890Y-117738017D01*
X144969890Y-117738017D01*
G37*
G36*
X159193890Y-117738017D02*
G01*
X159312364Y-117787091D01*
X159418988Y-117858335D01*
X159509665Y-117949012D01*
X159580909Y-118055636D01*
X159629983Y-118174110D01*
X159655000Y-118299882D01*
X159655000Y-118428118D01*
X159629983Y-118553890D01*
X159580909Y-118672364D01*
X159509665Y-118778988D01*
X159418988Y-118869665D01*
X159312364Y-118940909D01*
X159312363Y-118940910D01*
X159312362Y-118940910D01*
X159193890Y-118989983D01*
X159068119Y-119015000D01*
X158939881Y-119015000D01*
X158814110Y-118989983D01*
X158695638Y-118940910D01*
X158695637Y-118940910D01*
X158695636Y-118940909D01*
X158589012Y-118869665D01*
X158498335Y-118778988D01*
X158427091Y-118672364D01*
X158378017Y-118553890D01*
X158353000Y-118428118D01*
X158353000Y-118299882D01*
X158378017Y-118174110D01*
X158427091Y-118055636D01*
X158498335Y-117949012D01*
X158589012Y-117858335D01*
X158695636Y-117787091D01*
X158814110Y-117738017D01*
X158939881Y-117713000D01*
X159068119Y-117713000D01*
X159193890Y-117738017D01*
X159193890Y-117738017D01*
G37*
G36*
X130745890Y-117738017D02*
G01*
X130864364Y-117787091D01*
X130970988Y-117858335D01*
X131061665Y-117949012D01*
X131132909Y-118055636D01*
X131181983Y-118174110D01*
X131207000Y-118299882D01*
X131207000Y-118428118D01*
X131181983Y-118553890D01*
X131132909Y-118672364D01*
X131061665Y-118778988D01*
X130970988Y-118869665D01*
X130864364Y-118940909D01*
X130864363Y-118940910D01*
X130864362Y-118940910D01*
X130745890Y-118989983D01*
X130620119Y-119015000D01*
X130491881Y-119015000D01*
X130366110Y-118989983D01*
X130247638Y-118940910D01*
X130247637Y-118940910D01*
X130247636Y-118940909D01*
X130141012Y-118869665D01*
X130050335Y-118778988D01*
X129979091Y-118672364D01*
X129930017Y-118553890D01*
X129905000Y-118428118D01*
X129905000Y-118299882D01*
X129930017Y-118174110D01*
X129979091Y-118055636D01*
X130050335Y-117949012D01*
X130141012Y-117858335D01*
X130247636Y-117787091D01*
X130366110Y-117738017D01*
X130491881Y-117713000D01*
X130620119Y-117713000D01*
X130745890Y-117738017D01*
X130745890Y-117738017D01*
G37*
G36*
X174721000Y-118911000D02*
G01*
X173319000Y-118911000D01*
X173319000Y-117309000D01*
X174721000Y-117309000D01*
X174721000Y-118911000D01*
X174721000Y-118911000D01*
G37*
G36*
X172121000Y-118911000D02*
G01*
X170719000Y-118911000D01*
X170719000Y-117309000D01*
X172121000Y-117309000D01*
X172121000Y-118911000D01*
X172121000Y-118911000D01*
G37*
G36*
X118901001Y-118276000D02*
G01*
X117499001Y-118276000D01*
X117499001Y-116674000D01*
X118901001Y-116674000D01*
X118901001Y-118276000D01*
X118901001Y-118276000D01*
G37*
G36*
X116301001Y-118276000D02*
G01*
X114899001Y-118276000D01*
X114899001Y-116674000D01*
X116301001Y-116674000D01*
X116301001Y-118276000D01*
X116301001Y-118276000D01*
G37*
G36*
X170316601Y-112444397D02*
G01*
X170355305Y-112452096D01*
X170387340Y-112465365D01*
X170464680Y-112497400D01*
X170563115Y-112563173D01*
X170646827Y-112646885D01*
X170712600Y-112745320D01*
X170757904Y-112854696D01*
X170781000Y-112970805D01*
X170781000Y-113089195D01*
X170757904Y-113205304D01*
X170712600Y-113314680D01*
X170646827Y-113413115D01*
X170563115Y-113496827D01*
X170464680Y-113562600D01*
X170387340Y-113594635D01*
X170355305Y-113607904D01*
X170316601Y-113615603D01*
X170239195Y-113631000D01*
X170120805Y-113631000D01*
X170043399Y-113615603D01*
X170004695Y-113607904D01*
X169972660Y-113594635D01*
X169895320Y-113562600D01*
X169796885Y-113496827D01*
X169713173Y-113413115D01*
X169647400Y-113314680D01*
X169602096Y-113205304D01*
X169579000Y-113089195D01*
X169579000Y-112970805D01*
X169602096Y-112854696D01*
X169647400Y-112745320D01*
X169713173Y-112646885D01*
X169796885Y-112563173D01*
X169895320Y-112497400D01*
X169972660Y-112465365D01*
X170004695Y-112452096D01*
X170043399Y-112444397D01*
X170120805Y-112429000D01*
X170239195Y-112429000D01*
X170316601Y-112444397D01*
X170316601Y-112444397D01*
G37*
G36*
X114436601Y-112444397D02*
G01*
X114475305Y-112452096D01*
X114507340Y-112465365D01*
X114584680Y-112497400D01*
X114683115Y-112563173D01*
X114766827Y-112646885D01*
X114832600Y-112745320D01*
X114877904Y-112854696D01*
X114901000Y-112970805D01*
X114901000Y-113089195D01*
X114877904Y-113205304D01*
X114832600Y-113314680D01*
X114766827Y-113413115D01*
X114683115Y-113496827D01*
X114584680Y-113562600D01*
X114507340Y-113594635D01*
X114475305Y-113607904D01*
X114436601Y-113615603D01*
X114359195Y-113631000D01*
X114240805Y-113631000D01*
X114163399Y-113615603D01*
X114124695Y-113607904D01*
X114092660Y-113594635D01*
X114015320Y-113562600D01*
X113916885Y-113496827D01*
X113833173Y-113413115D01*
X113767400Y-113314680D01*
X113722096Y-113205304D01*
X113699000Y-113089195D01*
X113699000Y-112970805D01*
X113722096Y-112854696D01*
X113767400Y-112745320D01*
X113833173Y-112646885D01*
X113916885Y-112563173D01*
X114015320Y-112497400D01*
X114092660Y-112465365D01*
X114124695Y-112452096D01*
X114163399Y-112444397D01*
X114240805Y-112429000D01*
X114359195Y-112429000D01*
X114436601Y-112444397D01*
X114436601Y-112444397D01*
G37*
G36*
X130745890Y-112150017D02*
G01*
X130864364Y-112199091D01*
X130963999Y-112265665D01*
X130970988Y-112270335D01*
X131061665Y-112361012D01*
X131132910Y-112467638D01*
X131181983Y-112586110D01*
X131207000Y-112711881D01*
X131207000Y-112840119D01*
X131181983Y-112965890D01*
X131132909Y-113084364D01*
X131061665Y-113190988D01*
X130970988Y-113281665D01*
X130864364Y-113352909D01*
X130864363Y-113352910D01*
X130864362Y-113352910D01*
X130745890Y-113401983D01*
X130620119Y-113427000D01*
X130491881Y-113427000D01*
X130366110Y-113401983D01*
X130247638Y-113352910D01*
X130247637Y-113352910D01*
X130247636Y-113352909D01*
X130141012Y-113281665D01*
X130050335Y-113190988D01*
X129979091Y-113084364D01*
X129930017Y-112965890D01*
X129905000Y-112840119D01*
X129905000Y-112711881D01*
X129930017Y-112586110D01*
X129979090Y-112467638D01*
X130050335Y-112361012D01*
X130141012Y-112270335D01*
X130148001Y-112265665D01*
X130247636Y-112199091D01*
X130366110Y-112150017D01*
X130491881Y-112125000D01*
X130620119Y-112125000D01*
X130745890Y-112150017D01*
X130745890Y-112150017D01*
G37*
G36*
X159193890Y-112150017D02*
G01*
X159312364Y-112199091D01*
X159411999Y-112265665D01*
X159418988Y-112270335D01*
X159509665Y-112361012D01*
X159580910Y-112467638D01*
X159629983Y-112586110D01*
X159655000Y-112711881D01*
X159655000Y-112840119D01*
X159629983Y-112965890D01*
X159580909Y-113084364D01*
X159509665Y-113190988D01*
X159418988Y-113281665D01*
X159312364Y-113352909D01*
X159312363Y-113352910D01*
X159312362Y-113352910D01*
X159193890Y-113401983D01*
X159068119Y-113427000D01*
X158939881Y-113427000D01*
X158814110Y-113401983D01*
X158695638Y-113352910D01*
X158695637Y-113352910D01*
X158695636Y-113352909D01*
X158589012Y-113281665D01*
X158498335Y-113190988D01*
X158427091Y-113084364D01*
X158378017Y-112965890D01*
X158353000Y-112840119D01*
X158353000Y-112711881D01*
X158378017Y-112586110D01*
X158427090Y-112467638D01*
X158498335Y-112361012D01*
X158589012Y-112270335D01*
X158596001Y-112265665D01*
X158695636Y-112199091D01*
X158814110Y-112150017D01*
X158939881Y-112125000D01*
X159068119Y-112125000D01*
X159193890Y-112150017D01*
X159193890Y-112150017D01*
G37*
G36*
X144969890Y-111134017D02*
G01*
X145088364Y-111183091D01*
X145194988Y-111254335D01*
X145285665Y-111345012D01*
X145356909Y-111451636D01*
X145405983Y-111570110D01*
X145431000Y-111695882D01*
X145431000Y-111824118D01*
X145405983Y-111949890D01*
X145356909Y-112068364D01*
X145285665Y-112174988D01*
X145194988Y-112265665D01*
X145088364Y-112336909D01*
X145088363Y-112336910D01*
X145088362Y-112336910D01*
X144969890Y-112385983D01*
X144844119Y-112411000D01*
X144715881Y-112411000D01*
X144590110Y-112385983D01*
X144471638Y-112336910D01*
X144471637Y-112336910D01*
X144471636Y-112336909D01*
X144365012Y-112265665D01*
X144274335Y-112174988D01*
X144203091Y-112068364D01*
X144154017Y-111949890D01*
X144129000Y-111824118D01*
X144129000Y-111695882D01*
X144154017Y-111570110D01*
X144203091Y-111451636D01*
X144274335Y-111345012D01*
X144365012Y-111254335D01*
X144471636Y-111183091D01*
X144590110Y-111134017D01*
X144715881Y-111109000D01*
X144844119Y-111109000D01*
X144969890Y-111134017D01*
X144969890Y-111134017D01*
G37*
G36*
X165016000Y-111181000D02*
G01*
X163914000Y-111181000D01*
X163914000Y-106079000D01*
X165016000Y-106079000D01*
X165016000Y-111181000D01*
X165016000Y-111181000D01*
G37*
G36*
X181526000Y-111181000D02*
G01*
X180424000Y-111181000D01*
X180424000Y-106079000D01*
X181526000Y-106079000D01*
X181526000Y-111181000D01*
X181526000Y-111181000D01*
G37*
G36*
X125646000Y-110801000D02*
G01*
X124544000Y-110801000D01*
X124544000Y-105699000D01*
X125646000Y-105699000D01*
X125646000Y-110801000D01*
X125646000Y-110801000D01*
G37*
G36*
X135291000Y-110656000D02*
G01*
X133889000Y-110656000D01*
X133889000Y-109054000D01*
X135291000Y-109054000D01*
X135291000Y-110656000D01*
X135291000Y-110656000D01*
G37*
G36*
X137891000Y-110656000D02*
G01*
X136489000Y-110656000D01*
X136489000Y-109054000D01*
X137891000Y-109054000D01*
X137891000Y-110656000D01*
X137891000Y-110656000D01*
G37*
G36*
X152436000Y-110656000D02*
G01*
X151034000Y-110656000D01*
X151034000Y-109054000D01*
X152436000Y-109054000D01*
X152436000Y-110656000D01*
X152436000Y-110656000D01*
G37*
G36*
X155036000Y-110656000D02*
G01*
X153634000Y-110656000D01*
X153634000Y-109054000D01*
X155036000Y-109054000D01*
X155036000Y-110656000D01*
X155036000Y-110656000D01*
G37*
G36*
X139736000Y-110556000D02*
G01*
X138434000Y-110556000D01*
X138434000Y-109154000D01*
X139736000Y-109154000D01*
X139736000Y-110556000D01*
X139736000Y-110556000D01*
G37*
G36*
X142236000Y-110556000D02*
G01*
X140934000Y-110556000D01*
X140934000Y-109154000D01*
X142236000Y-109154000D01*
X142236000Y-110556000D01*
X142236000Y-110556000D01*
G37*
G36*
X108501000Y-110546000D02*
G01*
X107399000Y-110546000D01*
X107399000Y-105444000D01*
X108501000Y-105444000D01*
X108501000Y-110546000D01*
X108501000Y-110546000D01*
G37*
G36*
X148091601Y-109269397D02*
G01*
X148130305Y-109277096D01*
X148162340Y-109290365D01*
X148239680Y-109322400D01*
X148338115Y-109388173D01*
X148421827Y-109471885D01*
X148487600Y-109570320D01*
X148501450Y-109603758D01*
X148532904Y-109679695D01*
X148556000Y-109795807D01*
X148556000Y-109914193D01*
X148532904Y-110030305D01*
X148520531Y-110060175D01*
X148487600Y-110139680D01*
X148421827Y-110238115D01*
X148338115Y-110321827D01*
X148239680Y-110387600D01*
X148162340Y-110419635D01*
X148130305Y-110432904D01*
X148091601Y-110440603D01*
X148014195Y-110456000D01*
X147895805Y-110456000D01*
X147818399Y-110440603D01*
X147779695Y-110432904D01*
X147747660Y-110419635D01*
X147670320Y-110387600D01*
X147571885Y-110321827D01*
X147488173Y-110238115D01*
X147422400Y-110139680D01*
X147389469Y-110060175D01*
X147377096Y-110030305D01*
X147354000Y-109914193D01*
X147354000Y-109795807D01*
X147377096Y-109679695D01*
X147408550Y-109603758D01*
X147422400Y-109570320D01*
X147488173Y-109471885D01*
X147571885Y-109388173D01*
X147670320Y-109322400D01*
X147747660Y-109290365D01*
X147779695Y-109277096D01*
X147818399Y-109269397D01*
X147895805Y-109254000D01*
X148014195Y-109254000D01*
X148091601Y-109269397D01*
X148091601Y-109269397D01*
G37*
G36*
X157616601Y-109269397D02*
G01*
X157655305Y-109277096D01*
X157687340Y-109290365D01*
X157764680Y-109322400D01*
X157863115Y-109388173D01*
X157946827Y-109471885D01*
X158012600Y-109570320D01*
X158026450Y-109603758D01*
X158057904Y-109679695D01*
X158081000Y-109795807D01*
X158081000Y-109914193D01*
X158057904Y-110030305D01*
X158045531Y-110060175D01*
X158012600Y-110139680D01*
X157946827Y-110238115D01*
X157863115Y-110321827D01*
X157764680Y-110387600D01*
X157687340Y-110419635D01*
X157655305Y-110432904D01*
X157616601Y-110440603D01*
X157539195Y-110456000D01*
X157420805Y-110456000D01*
X157343399Y-110440603D01*
X157304695Y-110432904D01*
X157272660Y-110419635D01*
X157195320Y-110387600D01*
X157096885Y-110321827D01*
X157013173Y-110238115D01*
X156947400Y-110139680D01*
X156914469Y-110060175D01*
X156902096Y-110030305D01*
X156879000Y-109914193D01*
X156879000Y-109795807D01*
X156902096Y-109679695D01*
X156933550Y-109603758D01*
X156947400Y-109570320D01*
X157013173Y-109471885D01*
X157096885Y-109388173D01*
X157195320Y-109322400D01*
X157272660Y-109290365D01*
X157304695Y-109277096D01*
X157343399Y-109269397D01*
X157420805Y-109254000D01*
X157539195Y-109254000D01*
X157616601Y-109269397D01*
X157616601Y-109269397D01*
G37*
G36*
X132216601Y-109269397D02*
G01*
X132255305Y-109277096D01*
X132287340Y-109290365D01*
X132364680Y-109322400D01*
X132463115Y-109388173D01*
X132546827Y-109471885D01*
X132612600Y-109570320D01*
X132626450Y-109603758D01*
X132657904Y-109679695D01*
X132681000Y-109795807D01*
X132681000Y-109914193D01*
X132657904Y-110030305D01*
X132645531Y-110060175D01*
X132612600Y-110139680D01*
X132546827Y-110238115D01*
X132463115Y-110321827D01*
X132364680Y-110387600D01*
X132287340Y-110419635D01*
X132255305Y-110432904D01*
X132216601Y-110440603D01*
X132139195Y-110456000D01*
X132020805Y-110456000D01*
X131943399Y-110440603D01*
X131904695Y-110432904D01*
X131872660Y-110419635D01*
X131795320Y-110387600D01*
X131696885Y-110321827D01*
X131613173Y-110238115D01*
X131547400Y-110139680D01*
X131514469Y-110060175D01*
X131502096Y-110030305D01*
X131479000Y-109914193D01*
X131479000Y-109795807D01*
X131502096Y-109679695D01*
X131533550Y-109603758D01*
X131547400Y-109570320D01*
X131613173Y-109471885D01*
X131696885Y-109388173D01*
X131795320Y-109322400D01*
X131872660Y-109290365D01*
X131904695Y-109277096D01*
X131943399Y-109269397D01*
X132020805Y-109254000D01*
X132139195Y-109254000D01*
X132216601Y-109269397D01*
X132216601Y-109269397D01*
G37*
G36*
X117526000Y-110171000D02*
G01*
X116154000Y-110171000D01*
X116154000Y-106889000D01*
X117526000Y-106889000D01*
X117526000Y-110171000D01*
X117526000Y-110171000D01*
G37*
G36*
X114986000Y-110171000D02*
G01*
X113614000Y-110171000D01*
X113614000Y-106889000D01*
X114986000Y-106889000D01*
X114986000Y-110171000D01*
X114986000Y-110171000D01*
G37*
G36*
X120066000Y-110171000D02*
G01*
X118694000Y-110171000D01*
X118694000Y-106889000D01*
X120066000Y-106889000D01*
X120066000Y-110171000D01*
X120066000Y-110171000D01*
G37*
G36*
X175946000Y-109906000D02*
G01*
X174574000Y-109906000D01*
X174574000Y-106624000D01*
X175946000Y-106624000D01*
X175946000Y-109906000D01*
X175946000Y-109906000D01*
G37*
G36*
X173406000Y-109906000D02*
G01*
X172034000Y-109906000D01*
X172034000Y-106624000D01*
X173406000Y-106624000D01*
X173406000Y-109906000D01*
X173406000Y-109906000D01*
G37*
G36*
X170866000Y-109906000D02*
G01*
X169494000Y-109906000D01*
X169494000Y-106624000D01*
X170866000Y-106624000D01*
X170866000Y-109906000D01*
X170866000Y-109906000D01*
G37*
G36*
X144131000Y-107801000D02*
G01*
X143529000Y-107801000D01*
X143529000Y-106699000D01*
X144131000Y-106699000D01*
X144131000Y-107801000D01*
X144131000Y-107801000D01*
G37*
G36*
X146031000Y-107801000D02*
G01*
X145429000Y-107801000D01*
X145429000Y-106699000D01*
X146031000Y-106699000D01*
X146031000Y-107801000D01*
X146031000Y-107801000D01*
G37*
G36*
X154901000Y-106746000D02*
G01*
X153599000Y-106746000D01*
X153599000Y-105344000D01*
X154901000Y-105344000D01*
X154901000Y-106746000D01*
X154901000Y-106746000D01*
G37*
G36*
X152401000Y-106746000D02*
G01*
X151099000Y-106746000D01*
X151099000Y-105344000D01*
X152401000Y-105344000D01*
X152401000Y-106746000D01*
X152401000Y-106746000D01*
G37*
G36*
X198731560Y-103879064D02*
G01*
X198883027Y-103909193D01*
X199097045Y-103997842D01*
X199097046Y-103997843D01*
X199289654Y-104126539D01*
X199453461Y-104290346D01*
X199539258Y-104418751D01*
X199582158Y-104482955D01*
X199670807Y-104696973D01*
X199716000Y-104924174D01*
X199716000Y-105155826D01*
X199670807Y-105383027D01*
X199582158Y-105597045D01*
X199582157Y-105597046D01*
X199453461Y-105789654D01*
X199289654Y-105953461D01*
X199161249Y-106039258D01*
X199097045Y-106082158D01*
X198883027Y-106170807D01*
X198731560Y-106200936D01*
X198655827Y-106216000D01*
X198424173Y-106216000D01*
X198348440Y-106200936D01*
X198196973Y-106170807D01*
X197982955Y-106082158D01*
X197918751Y-106039258D01*
X197790346Y-105953461D01*
X197626539Y-105789654D01*
X197497843Y-105597046D01*
X197497842Y-105597045D01*
X197409193Y-105383027D01*
X197364000Y-105155826D01*
X197364000Y-104924174D01*
X197409193Y-104696973D01*
X197497842Y-104482955D01*
X197540742Y-104418751D01*
X197626539Y-104290346D01*
X197790346Y-104126539D01*
X197982954Y-103997843D01*
X197982955Y-103997842D01*
X198196973Y-103909193D01*
X198348440Y-103879064D01*
X198424173Y-103864000D01*
X198655827Y-103864000D01*
X198731560Y-103879064D01*
X198731560Y-103879064D01*
G37*
G36*
X92651560Y-103879064D02*
G01*
X92803027Y-103909193D01*
X93017045Y-103997842D01*
X93017046Y-103997843D01*
X93209654Y-104126539D01*
X93373461Y-104290346D01*
X93459258Y-104418751D01*
X93502158Y-104482955D01*
X93590807Y-104696973D01*
X93636000Y-104924174D01*
X93636000Y-105155826D01*
X93590807Y-105383027D01*
X93502158Y-105597045D01*
X93502157Y-105597046D01*
X93373461Y-105789654D01*
X93209654Y-105953461D01*
X93081249Y-106039258D01*
X93017045Y-106082158D01*
X92803027Y-106170807D01*
X92651560Y-106200936D01*
X92575827Y-106216000D01*
X92344173Y-106216000D01*
X92268440Y-106200936D01*
X92116973Y-106170807D01*
X91902955Y-106082158D01*
X91838751Y-106039258D01*
X91710346Y-105953461D01*
X91546539Y-105789654D01*
X91417843Y-105597046D01*
X91417842Y-105597045D01*
X91329193Y-105383027D01*
X91284000Y-105155826D01*
X91284000Y-104924174D01*
X91329193Y-104696973D01*
X91417842Y-104482955D01*
X91460742Y-104418751D01*
X91546539Y-104290346D01*
X91710346Y-104126539D01*
X91902954Y-103997843D01*
X91902955Y-103997842D01*
X92116973Y-103909193D01*
X92268440Y-103879064D01*
X92344173Y-103864000D01*
X92575827Y-103864000D01*
X92651560Y-103879064D01*
X92651560Y-103879064D01*
G37*
G36*
X193651560Y-103879064D02*
G01*
X193803027Y-103909193D01*
X194017045Y-103997842D01*
X194017046Y-103997843D01*
X194209654Y-104126539D01*
X194373461Y-104290346D01*
X194459258Y-104418751D01*
X194502158Y-104482955D01*
X194590807Y-104696973D01*
X194636000Y-104924174D01*
X194636000Y-105155826D01*
X194590807Y-105383027D01*
X194502158Y-105597045D01*
X194502157Y-105597046D01*
X194373461Y-105789654D01*
X194209654Y-105953461D01*
X194081249Y-106039258D01*
X194017045Y-106082158D01*
X193803027Y-106170807D01*
X193651560Y-106200936D01*
X193575827Y-106216000D01*
X193344173Y-106216000D01*
X193268440Y-106200936D01*
X193116973Y-106170807D01*
X192902955Y-106082158D01*
X192838751Y-106039258D01*
X192710346Y-105953461D01*
X192546539Y-105789654D01*
X192417843Y-105597046D01*
X192417842Y-105597045D01*
X192329193Y-105383027D01*
X192284000Y-105155826D01*
X192284000Y-104924174D01*
X192329193Y-104696973D01*
X192417842Y-104482955D01*
X192460742Y-104418751D01*
X192546539Y-104290346D01*
X192710346Y-104126539D01*
X192902954Y-103997843D01*
X192902955Y-103997842D01*
X193116973Y-103909193D01*
X193268440Y-103879064D01*
X193344173Y-103864000D01*
X193575827Y-103864000D01*
X193651560Y-103879064D01*
X193651560Y-103879064D01*
G37*
G36*
X97731560Y-103879064D02*
G01*
X97883027Y-103909193D01*
X98097045Y-103997842D01*
X98097046Y-103997843D01*
X98289654Y-104126539D01*
X98453461Y-104290346D01*
X98539258Y-104418751D01*
X98582158Y-104482955D01*
X98670807Y-104696973D01*
X98716000Y-104924174D01*
X98716000Y-105155826D01*
X98670807Y-105383027D01*
X98582158Y-105597045D01*
X98582157Y-105597046D01*
X98453461Y-105789654D01*
X98289654Y-105953461D01*
X98161249Y-106039258D01*
X98097045Y-106082158D01*
X97883027Y-106170807D01*
X97731560Y-106200936D01*
X97655827Y-106216000D01*
X97424173Y-106216000D01*
X97348440Y-106200936D01*
X97196973Y-106170807D01*
X96982955Y-106082158D01*
X96918751Y-106039258D01*
X96790346Y-105953461D01*
X96626539Y-105789654D01*
X96497843Y-105597046D01*
X96497842Y-105597045D01*
X96409193Y-105383027D01*
X96364000Y-105155826D01*
X96364000Y-104924174D01*
X96409193Y-104696973D01*
X96497842Y-104482955D01*
X96540742Y-104418751D01*
X96626539Y-104290346D01*
X96790346Y-104126539D01*
X96982954Y-103997843D01*
X96982955Y-103997842D01*
X97196973Y-103909193D01*
X97348440Y-103879064D01*
X97424173Y-103864000D01*
X97655827Y-103864000D01*
X97731560Y-103879064D01*
X97731560Y-103879064D01*
G37*
G36*
X130745890Y-104530017D02*
G01*
X130864364Y-104579091D01*
X130970988Y-104650335D01*
X131061665Y-104741012D01*
X131132909Y-104847636D01*
X131181983Y-104966110D01*
X131207000Y-105091882D01*
X131207000Y-105220118D01*
X131181983Y-105345890D01*
X131132909Y-105464364D01*
X131061665Y-105570988D01*
X130970988Y-105661665D01*
X130864364Y-105732909D01*
X130864363Y-105732910D01*
X130864362Y-105732910D01*
X130745890Y-105781983D01*
X130620119Y-105807000D01*
X130491881Y-105807000D01*
X130366110Y-105781983D01*
X130247638Y-105732910D01*
X130247637Y-105732910D01*
X130247636Y-105732909D01*
X130141012Y-105661665D01*
X130050335Y-105570988D01*
X129979091Y-105464364D01*
X129930017Y-105345890D01*
X129905000Y-105220118D01*
X129905000Y-105091882D01*
X129930017Y-104966110D01*
X129979091Y-104847636D01*
X130050335Y-104741012D01*
X130141012Y-104650335D01*
X130247636Y-104579091D01*
X130366110Y-104530017D01*
X130491881Y-104505000D01*
X130620119Y-104505000D01*
X130745890Y-104530017D01*
X130745890Y-104530017D01*
G37*
G36*
X146031000Y-105301000D02*
G01*
X145429000Y-105301000D01*
X145429000Y-104199000D01*
X146031000Y-104199000D01*
X146031000Y-105301000D01*
X146031000Y-105301000D01*
G37*
G36*
X145081000Y-105301000D02*
G01*
X144479000Y-105301000D01*
X144479000Y-104199000D01*
X145081000Y-104199000D01*
X145081000Y-105301000D01*
X145081000Y-105301000D01*
G37*
G36*
X144131000Y-105301000D02*
G01*
X143529000Y-105301000D01*
X143529000Y-104199000D01*
X144131000Y-104199000D01*
X144131000Y-105301000D01*
X144131000Y-105301000D01*
G37*
G36*
X159193890Y-104022017D02*
G01*
X159312364Y-104071091D01*
X159418988Y-104142335D01*
X159509665Y-104233012D01*
X159580909Y-104339636D01*
X159629983Y-104458110D01*
X159655000Y-104583882D01*
X159655000Y-104712118D01*
X159629983Y-104837890D01*
X159580909Y-104956364D01*
X159509665Y-105062988D01*
X159418988Y-105153665D01*
X159312364Y-105224909D01*
X159312363Y-105224910D01*
X159312362Y-105224910D01*
X159193890Y-105273983D01*
X159068119Y-105299000D01*
X158939881Y-105299000D01*
X158814110Y-105273983D01*
X158695638Y-105224910D01*
X158695637Y-105224910D01*
X158695636Y-105224909D01*
X158589012Y-105153665D01*
X158498335Y-105062988D01*
X158427091Y-104956364D01*
X158378017Y-104837890D01*
X158353000Y-104712118D01*
X158353000Y-104583882D01*
X158378017Y-104458110D01*
X158427091Y-104339636D01*
X158498335Y-104233012D01*
X158589012Y-104142335D01*
X158695636Y-104071091D01*
X158814110Y-104022017D01*
X158939881Y-103997000D01*
X159068119Y-103997000D01*
X159193890Y-104022017D01*
X159193890Y-104022017D01*
G37*
G36*
X95191560Y-101339064D02*
G01*
X95343027Y-101369193D01*
X95557045Y-101457842D01*
X95557046Y-101457843D01*
X95749654Y-101586539D01*
X95913461Y-101750346D01*
X95981307Y-101851885D01*
X96042158Y-101942955D01*
X96130807Y-102156973D01*
X96176000Y-102384174D01*
X96176000Y-102615826D01*
X96130807Y-102843027D01*
X96042158Y-103057045D01*
X96042157Y-103057046D01*
X95913461Y-103249654D01*
X95749654Y-103413461D01*
X95621249Y-103499258D01*
X95557045Y-103542158D01*
X95343027Y-103630807D01*
X95191560Y-103660936D01*
X95115827Y-103676000D01*
X94884173Y-103676000D01*
X94808440Y-103660936D01*
X94656973Y-103630807D01*
X94442955Y-103542158D01*
X94378751Y-103499258D01*
X94250346Y-103413461D01*
X94086539Y-103249654D01*
X93957843Y-103057046D01*
X93957842Y-103057045D01*
X93869193Y-102843027D01*
X93824000Y-102615826D01*
X93824000Y-102384174D01*
X93869193Y-102156973D01*
X93957842Y-101942955D01*
X94018693Y-101851885D01*
X94086539Y-101750346D01*
X94250346Y-101586539D01*
X94442954Y-101457843D01*
X94442955Y-101457842D01*
X94656973Y-101369193D01*
X94808440Y-101339064D01*
X94884173Y-101324000D01*
X95115827Y-101324000D01*
X95191560Y-101339064D01*
X95191560Y-101339064D01*
G37*
G36*
X196191560Y-101339064D02*
G01*
X196343027Y-101369193D01*
X196557045Y-101457842D01*
X196557046Y-101457843D01*
X196749654Y-101586539D01*
X196913461Y-101750346D01*
X196981307Y-101851885D01*
X197042158Y-101942955D01*
X197130807Y-102156973D01*
X197176000Y-102384174D01*
X197176000Y-102615826D01*
X197130807Y-102843027D01*
X197042158Y-103057045D01*
X197042157Y-103057046D01*
X196913461Y-103249654D01*
X196749654Y-103413461D01*
X196621249Y-103499258D01*
X196557045Y-103542158D01*
X196343027Y-103630807D01*
X196191560Y-103660936D01*
X196115827Y-103676000D01*
X195884173Y-103676000D01*
X195808440Y-103660936D01*
X195656973Y-103630807D01*
X195442955Y-103542158D01*
X195378751Y-103499258D01*
X195250346Y-103413461D01*
X195086539Y-103249654D01*
X194957843Y-103057046D01*
X194957842Y-103057045D01*
X194869193Y-102843027D01*
X194824000Y-102615826D01*
X194824000Y-102384174D01*
X194869193Y-102156973D01*
X194957842Y-101942955D01*
X195018693Y-101851885D01*
X195086539Y-101750346D01*
X195250346Y-101586539D01*
X195442954Y-101457843D01*
X195442955Y-101457842D01*
X195656973Y-101369193D01*
X195808440Y-101339064D01*
X195884173Y-101324000D01*
X196115827Y-101324000D01*
X196191560Y-101339064D01*
X196191560Y-101339064D01*
G37*
G36*
X137791000Y-103571000D02*
G01*
X136489000Y-103571000D01*
X136489000Y-102169000D01*
X137791000Y-102169000D01*
X137791000Y-103571000D01*
X137791000Y-103571000D01*
G37*
G36*
X152401000Y-103571000D02*
G01*
X151099000Y-103571000D01*
X151099000Y-102169000D01*
X152401000Y-102169000D01*
X152401000Y-103571000D01*
X152401000Y-103571000D01*
G37*
G36*
X135291000Y-103571000D02*
G01*
X133989000Y-103571000D01*
X133989000Y-102169000D01*
X135291000Y-102169000D01*
X135291000Y-103571000D01*
X135291000Y-103571000D01*
G37*
G36*
X154901000Y-103571000D02*
G01*
X153599000Y-103571000D01*
X153599000Y-102169000D01*
X154901000Y-102169000D01*
X154901000Y-103571000D01*
X154901000Y-103571000D01*
G37*
G36*
X106141000Y-103036000D02*
G01*
X104739000Y-103036000D01*
X104739000Y-101434000D01*
X106141000Y-101434000D01*
X106141000Y-103036000D01*
X106141000Y-103036000D01*
G37*
G36*
X184821000Y-103036000D02*
G01*
X183419000Y-103036000D01*
X183419000Y-101434000D01*
X184821000Y-101434000D01*
X184821000Y-103036000D01*
X184821000Y-103036000D01*
G37*
G36*
X103541000Y-103036000D02*
G01*
X102139000Y-103036000D01*
X102139000Y-101434000D01*
X103541000Y-101434000D01*
X103541000Y-103036000D01*
X103541000Y-103036000D01*
G37*
G36*
X187421000Y-103036000D02*
G01*
X186019000Y-103036000D01*
X186019000Y-101434000D01*
X187421000Y-101434000D01*
X187421000Y-103036000D01*
X187421000Y-103036000D01*
G37*
G36*
X101101601Y-101649397D02*
G01*
X101140305Y-101657096D01*
X101168824Y-101668909D01*
X101249680Y-101702400D01*
X101348115Y-101768173D01*
X101431827Y-101851885D01*
X101497600Y-101950320D01*
X101542904Y-102059696D01*
X101566000Y-102175805D01*
X101566000Y-102294195D01*
X101542904Y-102410304D01*
X101497600Y-102519680D01*
X101431827Y-102618115D01*
X101348115Y-102701827D01*
X101249680Y-102767600D01*
X101172340Y-102799635D01*
X101140305Y-102812904D01*
X101101601Y-102820603D01*
X101024195Y-102836000D01*
X100905805Y-102836000D01*
X100828399Y-102820603D01*
X100789695Y-102812904D01*
X100757660Y-102799635D01*
X100680320Y-102767600D01*
X100581885Y-102701827D01*
X100498173Y-102618115D01*
X100432400Y-102519680D01*
X100387096Y-102410304D01*
X100364000Y-102294195D01*
X100364000Y-102175805D01*
X100387096Y-102059696D01*
X100432400Y-101950320D01*
X100498173Y-101851885D01*
X100581885Y-101768173D01*
X100680320Y-101702400D01*
X100761176Y-101668909D01*
X100789695Y-101657096D01*
X100828399Y-101649397D01*
X100905805Y-101634000D01*
X101024195Y-101634000D01*
X101101601Y-101649397D01*
X101101601Y-101649397D01*
G37*
G36*
X188731601Y-101649397D02*
G01*
X188770305Y-101657096D01*
X188798824Y-101668909D01*
X188879680Y-101702400D01*
X188978115Y-101768173D01*
X189061827Y-101851885D01*
X189127600Y-101950320D01*
X189172904Y-102059696D01*
X189196000Y-102175805D01*
X189196000Y-102294195D01*
X189172904Y-102410304D01*
X189127600Y-102519680D01*
X189061827Y-102618115D01*
X188978115Y-102701827D01*
X188879680Y-102767600D01*
X188802340Y-102799635D01*
X188770305Y-102812904D01*
X188731601Y-102820603D01*
X188654195Y-102836000D01*
X188535805Y-102836000D01*
X188458399Y-102820603D01*
X188419695Y-102812904D01*
X188387660Y-102799635D01*
X188310320Y-102767600D01*
X188211885Y-102701827D01*
X188128173Y-102618115D01*
X188062400Y-102519680D01*
X188017096Y-102410304D01*
X187994000Y-102294195D01*
X187994000Y-102175805D01*
X188017096Y-102059696D01*
X188062400Y-101950320D01*
X188128173Y-101851885D01*
X188211885Y-101768173D01*
X188310320Y-101702400D01*
X188391176Y-101668909D01*
X188419695Y-101657096D01*
X188458399Y-101649397D01*
X188535805Y-101634000D01*
X188654195Y-101634000D01*
X188731601Y-101649397D01*
X188731601Y-101649397D01*
G37*
G36*
X159193890Y-100466017D02*
G01*
X159312364Y-100515091D01*
X159319534Y-100519882D01*
X159418988Y-100586335D01*
X159509665Y-100677012D01*
X159580910Y-100783638D01*
X159629983Y-100902110D01*
X159655000Y-101027881D01*
X159655000Y-101156119D01*
X159629983Y-101281890D01*
X159602552Y-101348115D01*
X159580909Y-101400364D01*
X159509665Y-101506988D01*
X159418988Y-101597665D01*
X159312364Y-101668909D01*
X159312363Y-101668910D01*
X159312362Y-101668910D01*
X159193890Y-101717983D01*
X159068119Y-101743000D01*
X158939881Y-101743000D01*
X158814110Y-101717983D01*
X158695638Y-101668910D01*
X158695637Y-101668910D01*
X158695636Y-101668909D01*
X158589012Y-101597665D01*
X158498335Y-101506988D01*
X158427091Y-101400364D01*
X158405449Y-101348115D01*
X158378017Y-101281890D01*
X158353000Y-101156119D01*
X158353000Y-101027881D01*
X158378017Y-100902110D01*
X158427090Y-100783638D01*
X158498335Y-100677012D01*
X158589012Y-100586335D01*
X158688466Y-100519882D01*
X158695636Y-100515091D01*
X158814110Y-100466017D01*
X158939881Y-100441000D01*
X159068119Y-100441000D01*
X159193890Y-100466017D01*
X159193890Y-100466017D01*
G37*
G36*
X143646601Y-100379397D02*
G01*
X143685305Y-100387096D01*
X143702238Y-100394110D01*
X143794680Y-100432400D01*
X143893115Y-100498173D01*
X143976827Y-100581885D01*
X144042600Y-100680320D01*
X144087904Y-100789696D01*
X144111000Y-100905805D01*
X144111000Y-101024195D01*
X144097977Y-101089665D01*
X144087904Y-101140305D01*
X144079369Y-101160909D01*
X144042600Y-101249680D01*
X143976827Y-101348115D01*
X143893115Y-101431827D01*
X143794680Y-101497600D01*
X143717340Y-101529635D01*
X143685305Y-101542904D01*
X143646601Y-101550603D01*
X143569195Y-101566000D01*
X143450805Y-101566000D01*
X143373399Y-101550603D01*
X143334695Y-101542904D01*
X143302660Y-101529635D01*
X143225320Y-101497600D01*
X143126885Y-101431827D01*
X143043173Y-101348115D01*
X142977400Y-101249680D01*
X142940631Y-101160909D01*
X142932096Y-101140305D01*
X142922023Y-101089665D01*
X142909000Y-101024195D01*
X142909000Y-100905805D01*
X142932096Y-100789696D01*
X142977400Y-100680320D01*
X143043173Y-100581885D01*
X143126885Y-100498173D01*
X143225320Y-100432400D01*
X143317762Y-100394110D01*
X143334695Y-100387096D01*
X143373399Y-100379397D01*
X143450805Y-100364000D01*
X143569195Y-100364000D01*
X143646601Y-100379397D01*
X143646601Y-100379397D01*
G37*
G36*
X146186601Y-100379397D02*
G01*
X146225305Y-100387096D01*
X146242238Y-100394110D01*
X146334680Y-100432400D01*
X146433115Y-100498173D01*
X146516827Y-100581885D01*
X146582600Y-100680320D01*
X146627904Y-100789696D01*
X146651000Y-100905805D01*
X146651000Y-101024195D01*
X146637977Y-101089665D01*
X146627904Y-101140305D01*
X146619369Y-101160909D01*
X146582600Y-101249680D01*
X146516827Y-101348115D01*
X146433115Y-101431827D01*
X146334680Y-101497600D01*
X146257340Y-101529635D01*
X146225305Y-101542904D01*
X146186601Y-101550603D01*
X146109195Y-101566000D01*
X145990805Y-101566000D01*
X145913399Y-101550603D01*
X145874695Y-101542904D01*
X145842660Y-101529635D01*
X145765320Y-101497600D01*
X145666885Y-101431827D01*
X145583173Y-101348115D01*
X145517400Y-101249680D01*
X145480631Y-101160909D01*
X145472096Y-101140305D01*
X145462023Y-101089665D01*
X145449000Y-101024195D01*
X145449000Y-100905805D01*
X145472096Y-100789696D01*
X145517400Y-100680320D01*
X145583173Y-100581885D01*
X145666885Y-100498173D01*
X145765320Y-100432400D01*
X145857762Y-100394110D01*
X145874695Y-100387096D01*
X145913399Y-100379397D01*
X145990805Y-100364000D01*
X146109195Y-100364000D01*
X146186601Y-100379397D01*
X146186601Y-100379397D01*
G37*
G36*
X130745890Y-99958017D02*
G01*
X130864364Y-100007091D01*
X130970988Y-100078335D01*
X131061665Y-100169012D01*
X131132909Y-100275636D01*
X131181983Y-100394110D01*
X131207000Y-100519882D01*
X131207000Y-100648118D01*
X131181983Y-100773890D01*
X131132909Y-100892364D01*
X131061665Y-100998988D01*
X130970988Y-101089665D01*
X130864364Y-101160909D01*
X130864363Y-101160910D01*
X130864362Y-101160910D01*
X130745890Y-101209983D01*
X130620119Y-101235000D01*
X130491881Y-101235000D01*
X130366110Y-101209983D01*
X130247638Y-101160910D01*
X130247637Y-101160910D01*
X130247636Y-101160909D01*
X130141012Y-101089665D01*
X130050335Y-100998988D01*
X129979091Y-100892364D01*
X129930017Y-100773890D01*
X129905000Y-100648118D01*
X129905000Y-100519882D01*
X129930017Y-100394110D01*
X129979091Y-100275636D01*
X130050335Y-100169012D01*
X130141012Y-100078335D01*
X130247636Y-100007091D01*
X130366110Y-99958017D01*
X130491881Y-99933000D01*
X130620119Y-99933000D01*
X130745890Y-99958017D01*
X130745890Y-99958017D01*
G37*
G36*
X198731560Y-98799064D02*
G01*
X198883027Y-98829193D01*
X199097045Y-98917842D01*
X199097046Y-98917843D01*
X199289654Y-99046539D01*
X199453461Y-99210346D01*
X199539258Y-99338751D01*
X199582158Y-99402955D01*
X199670807Y-99616973D01*
X199716000Y-99844174D01*
X199716000Y-100075826D01*
X199670807Y-100303027D01*
X199582158Y-100517045D01*
X199582157Y-100517046D01*
X199453461Y-100709654D01*
X199289654Y-100873461D01*
X199161249Y-100959258D01*
X199097045Y-101002158D01*
X198883027Y-101090807D01*
X198731560Y-101120936D01*
X198655827Y-101136000D01*
X198424173Y-101136000D01*
X198348440Y-101120936D01*
X198196973Y-101090807D01*
X197982955Y-101002158D01*
X197918751Y-100959258D01*
X197790346Y-100873461D01*
X197626539Y-100709654D01*
X197497843Y-100517046D01*
X197497842Y-100517045D01*
X197409193Y-100303027D01*
X197364000Y-100075826D01*
X197364000Y-99844174D01*
X197409193Y-99616973D01*
X197497842Y-99402955D01*
X197540742Y-99338751D01*
X197626539Y-99210346D01*
X197790346Y-99046539D01*
X197982954Y-98917843D01*
X197982955Y-98917842D01*
X198196973Y-98829193D01*
X198348440Y-98799064D01*
X198424173Y-98784000D01*
X198655827Y-98784000D01*
X198731560Y-98799064D01*
X198731560Y-98799064D01*
G37*
G36*
X92651560Y-98799064D02*
G01*
X92803027Y-98829193D01*
X93017045Y-98917842D01*
X93017046Y-98917843D01*
X93209654Y-99046539D01*
X93373461Y-99210346D01*
X93459258Y-99338751D01*
X93502158Y-99402955D01*
X93590807Y-99616973D01*
X93636000Y-99844174D01*
X93636000Y-100075826D01*
X93590807Y-100303027D01*
X93502158Y-100517045D01*
X93502157Y-100517046D01*
X93373461Y-100709654D01*
X93209654Y-100873461D01*
X93081249Y-100959258D01*
X93017045Y-101002158D01*
X92803027Y-101090807D01*
X92651560Y-101120936D01*
X92575827Y-101136000D01*
X92344173Y-101136000D01*
X92268440Y-101120936D01*
X92116973Y-101090807D01*
X91902955Y-101002158D01*
X91838751Y-100959258D01*
X91710346Y-100873461D01*
X91546539Y-100709654D01*
X91417843Y-100517046D01*
X91417842Y-100517045D01*
X91329193Y-100303027D01*
X91284000Y-100075826D01*
X91284000Y-99844174D01*
X91329193Y-99616973D01*
X91417842Y-99402955D01*
X91460742Y-99338751D01*
X91546539Y-99210346D01*
X91710346Y-99046539D01*
X91902954Y-98917843D01*
X91902955Y-98917842D01*
X92116973Y-98829193D01*
X92268440Y-98799064D01*
X92344173Y-98784000D01*
X92575827Y-98784000D01*
X92651560Y-98799064D01*
X92651560Y-98799064D01*
G37*
G36*
X193651560Y-98799064D02*
G01*
X193803027Y-98829193D01*
X194017045Y-98917842D01*
X194017046Y-98917843D01*
X194209654Y-99046539D01*
X194373461Y-99210346D01*
X194459258Y-99338751D01*
X194502158Y-99402955D01*
X194590807Y-99616973D01*
X194636000Y-99844174D01*
X194636000Y-100075826D01*
X194590807Y-100303027D01*
X194502158Y-100517045D01*
X194502157Y-100517046D01*
X194373461Y-100709654D01*
X194209654Y-100873461D01*
X194081249Y-100959258D01*
X194017045Y-101002158D01*
X193803027Y-101090807D01*
X193651560Y-101120936D01*
X193575827Y-101136000D01*
X193344173Y-101136000D01*
X193268440Y-101120936D01*
X193116973Y-101090807D01*
X192902955Y-101002158D01*
X192838751Y-100959258D01*
X192710346Y-100873461D01*
X192546539Y-100709654D01*
X192417843Y-100517046D01*
X192417842Y-100517045D01*
X192329193Y-100303027D01*
X192284000Y-100075826D01*
X192284000Y-99844174D01*
X192329193Y-99616973D01*
X192417842Y-99402955D01*
X192460742Y-99338751D01*
X192546539Y-99210346D01*
X192710346Y-99046539D01*
X192902954Y-98917843D01*
X192902955Y-98917842D01*
X193116973Y-98829193D01*
X193268440Y-98799064D01*
X193344173Y-98784000D01*
X193575827Y-98784000D01*
X193651560Y-98799064D01*
X193651560Y-98799064D01*
G37*
G36*
X97731560Y-98799064D02*
G01*
X97883027Y-98829193D01*
X98097045Y-98917842D01*
X98097046Y-98917843D01*
X98289654Y-99046539D01*
X98453461Y-99210346D01*
X98539258Y-99338751D01*
X98582158Y-99402955D01*
X98670807Y-99616973D01*
X98716000Y-99844174D01*
X98716000Y-100075826D01*
X98670807Y-100303027D01*
X98582158Y-100517045D01*
X98582157Y-100517046D01*
X98453461Y-100709654D01*
X98289654Y-100873461D01*
X98161249Y-100959258D01*
X98097045Y-101002158D01*
X97883027Y-101090807D01*
X97731560Y-101120936D01*
X97655827Y-101136000D01*
X97424173Y-101136000D01*
X97348440Y-101120936D01*
X97196973Y-101090807D01*
X96982955Y-101002158D01*
X96918751Y-100959258D01*
X96790346Y-100873461D01*
X96626539Y-100709654D01*
X96497843Y-100517046D01*
X96497842Y-100517045D01*
X96409193Y-100303027D01*
X96364000Y-100075826D01*
X96364000Y-99844174D01*
X96409193Y-99616973D01*
X96497842Y-99402955D01*
X96540742Y-99338751D01*
X96626539Y-99210346D01*
X96790346Y-99046539D01*
X96982954Y-98917843D01*
X96982955Y-98917842D01*
X97196973Y-98829193D01*
X97348440Y-98799064D01*
X97424173Y-98784000D01*
X97655827Y-98784000D01*
X97731560Y-98799064D01*
X97731560Y-98799064D01*
G37*
G36*
X144969890Y-98942017D02*
G01*
X145088364Y-98991091D01*
X145194988Y-99062335D01*
X145285665Y-99153012D01*
X145356909Y-99259636D01*
X145405983Y-99378110D01*
X145431000Y-99503882D01*
X145431000Y-99632118D01*
X145405983Y-99757890D01*
X145356909Y-99876364D01*
X145285665Y-99982988D01*
X145194988Y-100073665D01*
X145088364Y-100144909D01*
X145088363Y-100144910D01*
X145088362Y-100144910D01*
X144969890Y-100193983D01*
X144844119Y-100219000D01*
X144715881Y-100219000D01*
X144590110Y-100193983D01*
X144471638Y-100144910D01*
X144471637Y-100144910D01*
X144471636Y-100144909D01*
X144365012Y-100073665D01*
X144274335Y-99982988D01*
X144203091Y-99876364D01*
X144154017Y-99757890D01*
X144129000Y-99632118D01*
X144129000Y-99503882D01*
X144154017Y-99378110D01*
X144203091Y-99259636D01*
X144274335Y-99153012D01*
X144365012Y-99062335D01*
X144471636Y-98991091D01*
X144590110Y-98942017D01*
X144715881Y-98917000D01*
X144844119Y-98917000D01*
X144969890Y-98942017D01*
X144969890Y-98942017D01*
G37*
G36*
X181526000Y-99701000D02*
G01*
X180424000Y-99701000D01*
X180424000Y-94599000D01*
X181526000Y-94599000D01*
X181526000Y-99701000D01*
X181526000Y-99701000D01*
G37*
G36*
X165016000Y-99701000D02*
G01*
X163914000Y-99701000D01*
X163914000Y-94599000D01*
X165016000Y-94599000D01*
X165016000Y-99701000D01*
X165016000Y-99701000D01*
G37*
G36*
X108501000Y-99661000D02*
G01*
X107399000Y-99661000D01*
X107399000Y-94559000D01*
X108501000Y-94559000D01*
X108501000Y-99661000D01*
X108501000Y-99661000D01*
G37*
G36*
X125646000Y-99661000D02*
G01*
X124544000Y-99661000D01*
X124544000Y-94559000D01*
X125646000Y-94559000D01*
X125646000Y-99661000D01*
X125646000Y-99661000D01*
G37*
G36*
X114986000Y-98111000D02*
G01*
X113614000Y-98111000D01*
X113614000Y-94829000D01*
X114986000Y-94829000D01*
X114986000Y-98111000D01*
X114986000Y-98111000D01*
G37*
G36*
X120066000Y-98111000D02*
G01*
X118694000Y-98111000D01*
X118694000Y-94829000D01*
X120066000Y-94829000D01*
X120066000Y-98111000D01*
X120066000Y-98111000D01*
G37*
G36*
X117526000Y-98111000D02*
G01*
X116154000Y-98111000D01*
X116154000Y-94829000D01*
X117526000Y-94829000D01*
X117526000Y-98111000D01*
X117526000Y-98111000D01*
G37*
G36*
X170866000Y-97846000D02*
G01*
X169494000Y-97846000D01*
X169494000Y-94564000D01*
X170866000Y-94564000D01*
X170866000Y-97846000D01*
X170866000Y-97846000D01*
G37*
G36*
X173406000Y-97846000D02*
G01*
X172034000Y-97846000D01*
X172034000Y-94564000D01*
X173406000Y-94564000D01*
X173406000Y-97846000D01*
X173406000Y-97846000D01*
G37*
G36*
X175946000Y-97846000D02*
G01*
X174574000Y-97846000D01*
X174574000Y-94564000D01*
X175946000Y-94564000D01*
X175946000Y-97846000D01*
X175946000Y-97846000D01*
G37*
G36*
X150049890Y-96402017D02*
G01*
X150168364Y-96451091D01*
X150274988Y-96522335D01*
X150365665Y-96613012D01*
X150436909Y-96719636D01*
X150485983Y-96838110D01*
X150511000Y-96963882D01*
X150511000Y-97092118D01*
X150485983Y-97217890D01*
X150436909Y-97336364D01*
X150365665Y-97442988D01*
X150274988Y-97533665D01*
X150168364Y-97604909D01*
X150168363Y-97604910D01*
X150168362Y-97604910D01*
X150049890Y-97653983D01*
X149924119Y-97679000D01*
X149795881Y-97679000D01*
X149670110Y-97653983D01*
X149551638Y-97604910D01*
X149551637Y-97604910D01*
X149551636Y-97604909D01*
X149445012Y-97533665D01*
X149354335Y-97442988D01*
X149283091Y-97336364D01*
X149234017Y-97217890D01*
X149209000Y-97092118D01*
X149209000Y-96963882D01*
X149234017Y-96838110D01*
X149283091Y-96719636D01*
X149354335Y-96613012D01*
X149445012Y-96522335D01*
X149551636Y-96451091D01*
X149670110Y-96402017D01*
X149795881Y-96377000D01*
X149924119Y-96377000D01*
X150049890Y-96402017D01*
X150049890Y-96402017D01*
G37*
G36*
X155637890Y-96402017D02*
G01*
X155756364Y-96451091D01*
X155862988Y-96522335D01*
X155953665Y-96613012D01*
X156024909Y-96719636D01*
X156073983Y-96838110D01*
X156099000Y-96963882D01*
X156099000Y-97092118D01*
X156073983Y-97217890D01*
X156024909Y-97336364D01*
X155953665Y-97442988D01*
X155862988Y-97533665D01*
X155756364Y-97604909D01*
X155756363Y-97604910D01*
X155756362Y-97604910D01*
X155637890Y-97653983D01*
X155512119Y-97679000D01*
X155383881Y-97679000D01*
X155258110Y-97653983D01*
X155139638Y-97604910D01*
X155139637Y-97604910D01*
X155139636Y-97604909D01*
X155033012Y-97533665D01*
X154942335Y-97442988D01*
X154871091Y-97336364D01*
X154822017Y-97217890D01*
X154797000Y-97092118D01*
X154797000Y-96963882D01*
X154822017Y-96838110D01*
X154871091Y-96719636D01*
X154942335Y-96613012D01*
X155033012Y-96522335D01*
X155139636Y-96451091D01*
X155258110Y-96402017D01*
X155383881Y-96377000D01*
X155512119Y-96377000D01*
X155637890Y-96402017D01*
X155637890Y-96402017D01*
G37*
G36*
X139381890Y-96402017D02*
G01*
X139500364Y-96451091D01*
X139606988Y-96522335D01*
X139697665Y-96613012D01*
X139768909Y-96719636D01*
X139817983Y-96838110D01*
X139843000Y-96963882D01*
X139843000Y-97092118D01*
X139817983Y-97217890D01*
X139768909Y-97336364D01*
X139697665Y-97442988D01*
X139606988Y-97533665D01*
X139500364Y-97604909D01*
X139500363Y-97604910D01*
X139500362Y-97604910D01*
X139381890Y-97653983D01*
X139256119Y-97679000D01*
X139127881Y-97679000D01*
X139002110Y-97653983D01*
X138883638Y-97604910D01*
X138883637Y-97604910D01*
X138883636Y-97604909D01*
X138777012Y-97533665D01*
X138686335Y-97442988D01*
X138615091Y-97336364D01*
X138566017Y-97217890D01*
X138541000Y-97092118D01*
X138541000Y-96963882D01*
X138566017Y-96838110D01*
X138615091Y-96719636D01*
X138686335Y-96613012D01*
X138777012Y-96522335D01*
X138883636Y-96451091D01*
X139002110Y-96402017D01*
X139127881Y-96377000D01*
X139256119Y-96377000D01*
X139381890Y-96402017D01*
X139381890Y-96402017D01*
G37*
G36*
X135317890Y-96402017D02*
G01*
X135436364Y-96451091D01*
X135542988Y-96522335D01*
X135633665Y-96613012D01*
X135704909Y-96719636D01*
X135753983Y-96838110D01*
X135779000Y-96963882D01*
X135779000Y-97092118D01*
X135753983Y-97217890D01*
X135704909Y-97336364D01*
X135633665Y-97442988D01*
X135542988Y-97533665D01*
X135436364Y-97604909D01*
X135436363Y-97604910D01*
X135436362Y-97604910D01*
X135317890Y-97653983D01*
X135192119Y-97679000D01*
X135063881Y-97679000D01*
X134938110Y-97653983D01*
X134819638Y-97604910D01*
X134819637Y-97604910D01*
X134819636Y-97604909D01*
X134713012Y-97533665D01*
X134622335Y-97442988D01*
X134551091Y-97336364D01*
X134502017Y-97217890D01*
X134477000Y-97092118D01*
X134477000Y-96963882D01*
X134502017Y-96838110D01*
X134551091Y-96719636D01*
X134622335Y-96613012D01*
X134713012Y-96522335D01*
X134819636Y-96451091D01*
X134938110Y-96402017D01*
X135063881Y-96377000D01*
X135192119Y-96377000D01*
X135317890Y-96402017D01*
X135317890Y-96402017D01*
G37*
G36*
X130745890Y-96402017D02*
G01*
X130864364Y-96451091D01*
X130970988Y-96522335D01*
X131061665Y-96613012D01*
X131132909Y-96719636D01*
X131181983Y-96838110D01*
X131207000Y-96963882D01*
X131207000Y-97092118D01*
X131181983Y-97217890D01*
X131132909Y-97336364D01*
X131061665Y-97442988D01*
X130970988Y-97533665D01*
X130864364Y-97604909D01*
X130864363Y-97604910D01*
X130864362Y-97604910D01*
X130745890Y-97653983D01*
X130620119Y-97679000D01*
X130491881Y-97679000D01*
X130366110Y-97653983D01*
X130247638Y-97604910D01*
X130247637Y-97604910D01*
X130247636Y-97604909D01*
X130141012Y-97533665D01*
X130050335Y-97442988D01*
X129979091Y-97336364D01*
X129930017Y-97217890D01*
X129905000Y-97092118D01*
X129905000Y-96963882D01*
X129930017Y-96838110D01*
X129979091Y-96719636D01*
X130050335Y-96613012D01*
X130141012Y-96522335D01*
X130247636Y-96451091D01*
X130366110Y-96402017D01*
X130491881Y-96377000D01*
X130620119Y-96377000D01*
X130745890Y-96402017D01*
X130745890Y-96402017D01*
G37*
G36*
X159193890Y-93354017D02*
G01*
X159312364Y-93403091D01*
X159418988Y-93474335D01*
X159509665Y-93565012D01*
X159580909Y-93671636D01*
X159629983Y-93790110D01*
X159655000Y-93915882D01*
X159655000Y-94044118D01*
X159629983Y-94169890D01*
X159580909Y-94288364D01*
X159509665Y-94394988D01*
X159418988Y-94485665D01*
X159312364Y-94556909D01*
X159312363Y-94556910D01*
X159312362Y-94556910D01*
X159193890Y-94605983D01*
X159068119Y-94631000D01*
X158939881Y-94631000D01*
X158814110Y-94605983D01*
X158695638Y-94556910D01*
X158695637Y-94556910D01*
X158695636Y-94556909D01*
X158589012Y-94485665D01*
X158498335Y-94394988D01*
X158427091Y-94288364D01*
X158378017Y-94169890D01*
X158353000Y-94044118D01*
X158353000Y-93915882D01*
X158378017Y-93790110D01*
X158427091Y-93671636D01*
X158498335Y-93565012D01*
X158589012Y-93474335D01*
X158695636Y-93403091D01*
X158814110Y-93354017D01*
X158939881Y-93329000D01*
X159068119Y-93329000D01*
X159193890Y-93354017D01*
X159193890Y-93354017D01*
G37*
G36*
X130745890Y-92846017D02*
G01*
X130864364Y-92895091D01*
X130970988Y-92966335D01*
X131061665Y-93057012D01*
X131132909Y-93163636D01*
X131181983Y-93282110D01*
X131207000Y-93407882D01*
X131207000Y-93536118D01*
X131181983Y-93661890D01*
X131132909Y-93780364D01*
X131061665Y-93886988D01*
X130970988Y-93977665D01*
X130864364Y-94048909D01*
X130864363Y-94048910D01*
X130864362Y-94048910D01*
X130745890Y-94097983D01*
X130620119Y-94123000D01*
X130491881Y-94123000D01*
X130366110Y-94097983D01*
X130247638Y-94048910D01*
X130247637Y-94048910D01*
X130247636Y-94048909D01*
X130141012Y-93977665D01*
X130050335Y-93886988D01*
X129979091Y-93780364D01*
X129930017Y-93661890D01*
X129905000Y-93536118D01*
X129905000Y-93407882D01*
X129930017Y-93282110D01*
X129979091Y-93163636D01*
X130050335Y-93057012D01*
X130141012Y-92966335D01*
X130247636Y-92895091D01*
X130366110Y-92846017D01*
X130491881Y-92821000D01*
X130620119Y-92821000D01*
X130745890Y-92846017D01*
X130745890Y-92846017D01*
G37*
G36*
X148091601Y-91489397D02*
G01*
X148130305Y-91497096D01*
X148135372Y-91499195D01*
X148239680Y-91542400D01*
X148338115Y-91608173D01*
X148421827Y-91691885D01*
X148487600Y-91790320D01*
X148519635Y-91867660D01*
X148532904Y-91899695D01*
X148540603Y-91938399D01*
X148556000Y-92015805D01*
X148556000Y-92134195D01*
X148532904Y-92250304D01*
X148487600Y-92359680D01*
X148421827Y-92458115D01*
X148338115Y-92541827D01*
X148239680Y-92607600D01*
X148162340Y-92639635D01*
X148130305Y-92652904D01*
X148091601Y-92660603D01*
X148014195Y-92676000D01*
X147895805Y-92676000D01*
X147818399Y-92660603D01*
X147779695Y-92652904D01*
X147747660Y-92639635D01*
X147670320Y-92607600D01*
X147571885Y-92541827D01*
X147488173Y-92458115D01*
X147422400Y-92359680D01*
X147377096Y-92250304D01*
X147354000Y-92134195D01*
X147354000Y-92015805D01*
X147369397Y-91938399D01*
X147377096Y-91899695D01*
X147390365Y-91867660D01*
X147422400Y-91790320D01*
X147488173Y-91691885D01*
X147571885Y-91608173D01*
X147670320Y-91542400D01*
X147774628Y-91499195D01*
X147779695Y-91497096D01*
X147818399Y-91489397D01*
X147895805Y-91474000D01*
X148014195Y-91474000D01*
X148091601Y-91489397D01*
X148091601Y-91489397D01*
G37*
G36*
X144281601Y-91489397D02*
G01*
X144320305Y-91497096D01*
X144325372Y-91499195D01*
X144429680Y-91542400D01*
X144528115Y-91608173D01*
X144611827Y-91691885D01*
X144677600Y-91790320D01*
X144709635Y-91867660D01*
X144722904Y-91899695D01*
X144730603Y-91938399D01*
X144746000Y-92015805D01*
X144746000Y-92134195D01*
X144722904Y-92250304D01*
X144677600Y-92359680D01*
X144611827Y-92458115D01*
X144528115Y-92541827D01*
X144429680Y-92607600D01*
X144352340Y-92639635D01*
X144320305Y-92652904D01*
X144281601Y-92660603D01*
X144204195Y-92676000D01*
X144085805Y-92676000D01*
X144008399Y-92660603D01*
X143969695Y-92652904D01*
X143937660Y-92639635D01*
X143860320Y-92607600D01*
X143761885Y-92541827D01*
X143678173Y-92458115D01*
X143612400Y-92359680D01*
X143567096Y-92250304D01*
X143544000Y-92134195D01*
X143544000Y-92015805D01*
X143559397Y-91938399D01*
X143567096Y-91899695D01*
X143580365Y-91867660D01*
X143612400Y-91790320D01*
X143678173Y-91691885D01*
X143761885Y-91608173D01*
X143860320Y-91542400D01*
X143964628Y-91499195D01*
X143969695Y-91497096D01*
X144008399Y-91489397D01*
X144085805Y-91474000D01*
X144204195Y-91474000D01*
X144281601Y-91489397D01*
X144281601Y-91489397D01*
G37*
G36*
X119516601Y-91489397D02*
G01*
X119555305Y-91497096D01*
X119560372Y-91499195D01*
X119664680Y-91542400D01*
X119763115Y-91608173D01*
X119846827Y-91691885D01*
X119912600Y-91790320D01*
X119944635Y-91867660D01*
X119957904Y-91899695D01*
X119965603Y-91938399D01*
X119981000Y-92015805D01*
X119981000Y-92134195D01*
X119957904Y-92250304D01*
X119912600Y-92359680D01*
X119846827Y-92458115D01*
X119763115Y-92541827D01*
X119664680Y-92607600D01*
X119587340Y-92639635D01*
X119555305Y-92652904D01*
X119516601Y-92660603D01*
X119439195Y-92676000D01*
X119320805Y-92676000D01*
X119243399Y-92660603D01*
X119204695Y-92652904D01*
X119172660Y-92639635D01*
X119095320Y-92607600D01*
X118996885Y-92541827D01*
X118913173Y-92458115D01*
X118847400Y-92359680D01*
X118802096Y-92250304D01*
X118779000Y-92134195D01*
X118779000Y-92015805D01*
X118794397Y-91938399D01*
X118802096Y-91899695D01*
X118815365Y-91867660D01*
X118847400Y-91790320D01*
X118913173Y-91691885D01*
X118996885Y-91608173D01*
X119095320Y-91542400D01*
X119199628Y-91499195D01*
X119204695Y-91497096D01*
X119243399Y-91489397D01*
X119320805Y-91474000D01*
X119439195Y-91474000D01*
X119516601Y-91489397D01*
X119516601Y-91489397D01*
G37*
G36*
X175396601Y-90854397D02*
G01*
X175435305Y-90862096D01*
X175467340Y-90875365D01*
X175544680Y-90907400D01*
X175643115Y-90973173D01*
X175726827Y-91056885D01*
X175792600Y-91155320D01*
X175837904Y-91264696D01*
X175861000Y-91380805D01*
X175861000Y-91499195D01*
X175845603Y-91576601D01*
X175839323Y-91608173D01*
X175837904Y-91615304D01*
X175792600Y-91724680D01*
X175726827Y-91823115D01*
X175643115Y-91906827D01*
X175544680Y-91972600D01*
X175467340Y-92004635D01*
X175435305Y-92017904D01*
X175396601Y-92025603D01*
X175319195Y-92041000D01*
X175200805Y-92041000D01*
X175123399Y-92025603D01*
X175084695Y-92017904D01*
X175052660Y-92004635D01*
X174975320Y-91972600D01*
X174876885Y-91906827D01*
X174793173Y-91823115D01*
X174727400Y-91724680D01*
X174682096Y-91615304D01*
X174680678Y-91608173D01*
X174674397Y-91576601D01*
X174659000Y-91499195D01*
X174659000Y-91380805D01*
X174682096Y-91264696D01*
X174727400Y-91155320D01*
X174793173Y-91056885D01*
X174876885Y-90973173D01*
X174975320Y-90907400D01*
X175052660Y-90875365D01*
X175084695Y-90862096D01*
X175123399Y-90854397D01*
X175200805Y-90839000D01*
X175319195Y-90839000D01*
X175396601Y-90854397D01*
X175396601Y-90854397D01*
G37*
G36*
X165016000Y-90901000D02*
G01*
X163914000Y-90901000D01*
X163914000Y-85799000D01*
X165016000Y-85799000D01*
X165016000Y-90901000D01*
X165016000Y-90901000D01*
G37*
G36*
X181526000Y-90901000D02*
G01*
X180424000Y-90901000D01*
X180424000Y-85799000D01*
X181526000Y-85799000D01*
X181526000Y-90901000D01*
X181526000Y-90901000D01*
G37*
G36*
X108501000Y-90861000D02*
G01*
X107399000Y-90861000D01*
X107399000Y-85759000D01*
X108501000Y-85759000D01*
X108501000Y-90861000D01*
X108501000Y-90861000D01*
G37*
G36*
X125646000Y-90861000D02*
G01*
X124544000Y-90861000D01*
X124544000Y-85759000D01*
X125646000Y-85759000D01*
X125646000Y-90861000D01*
X125646000Y-90861000D01*
G37*
G36*
X159193890Y-89290017D02*
G01*
X159312364Y-89339091D01*
X159418988Y-89410335D01*
X159509665Y-89501012D01*
X159580910Y-89607638D01*
X159629983Y-89726110D01*
X159655000Y-89851881D01*
X159655000Y-89980119D01*
X159641298Y-90049004D01*
X159629983Y-90105890D01*
X159580909Y-90224364D01*
X159509665Y-90330988D01*
X159418988Y-90421665D01*
X159312364Y-90492909D01*
X159312363Y-90492910D01*
X159312362Y-90492910D01*
X159193890Y-90541983D01*
X159068119Y-90567000D01*
X158939881Y-90567000D01*
X158814110Y-90541983D01*
X158695638Y-90492910D01*
X158695637Y-90492910D01*
X158695636Y-90492909D01*
X158589012Y-90421665D01*
X158498335Y-90330988D01*
X158427091Y-90224364D01*
X158378017Y-90105890D01*
X158366702Y-90049004D01*
X158353000Y-89980119D01*
X158353000Y-89851881D01*
X158378017Y-89726110D01*
X158427090Y-89607638D01*
X158498335Y-89501012D01*
X158589012Y-89410335D01*
X158695636Y-89339091D01*
X158814110Y-89290017D01*
X158939881Y-89265000D01*
X159068119Y-89265000D01*
X159193890Y-89290017D01*
X159193890Y-89290017D01*
G37*
G36*
X130745890Y-89290017D02*
G01*
X130864364Y-89339091D01*
X130970988Y-89410335D01*
X131061665Y-89501012D01*
X131132910Y-89607638D01*
X131181983Y-89726110D01*
X131207000Y-89851881D01*
X131207000Y-89980119D01*
X131193298Y-90049004D01*
X131181983Y-90105890D01*
X131132909Y-90224364D01*
X131061665Y-90330988D01*
X130970988Y-90421665D01*
X130864364Y-90492909D01*
X130864363Y-90492910D01*
X130864362Y-90492910D01*
X130745890Y-90541983D01*
X130620119Y-90567000D01*
X130491881Y-90567000D01*
X130366110Y-90541983D01*
X130247638Y-90492910D01*
X130247637Y-90492910D01*
X130247636Y-90492909D01*
X130141012Y-90421665D01*
X130050335Y-90330988D01*
X129979091Y-90224364D01*
X129930017Y-90105890D01*
X129918702Y-90049004D01*
X129905000Y-89980119D01*
X129905000Y-89851881D01*
X129930017Y-89726110D01*
X129979090Y-89607638D01*
X130050335Y-89501012D01*
X130141012Y-89410335D01*
X130247636Y-89339091D01*
X130366110Y-89290017D01*
X130491881Y-89265000D01*
X130620119Y-89265000D01*
X130745890Y-89290017D01*
X130745890Y-89290017D01*
G37*
G36*
X142276000Y-89601000D02*
G01*
X140974000Y-89601000D01*
X140974000Y-88199000D01*
X142276000Y-88199000D01*
X142276000Y-89601000D01*
X142276000Y-89601000D01*
G37*
G36*
X144776000Y-89601000D02*
G01*
X143474000Y-89601000D01*
X143474000Y-88199000D01*
X144776000Y-88199000D01*
X144776000Y-89601000D01*
X144776000Y-89601000D01*
G37*
G36*
X136561000Y-89601000D02*
G01*
X135259000Y-89601000D01*
X135259000Y-88199000D01*
X136561000Y-88199000D01*
X136561000Y-89601000D01*
X136561000Y-89601000D01*
G37*
G36*
X139061000Y-89601000D02*
G01*
X137759000Y-89601000D01*
X137759000Y-88199000D01*
X139061000Y-88199000D01*
X139061000Y-89601000D01*
X139061000Y-89601000D01*
G37*
G36*
X134121601Y-88314397D02*
G01*
X134160305Y-88322096D01*
X134192340Y-88335365D01*
X134269680Y-88367400D01*
X134368115Y-88433173D01*
X134451827Y-88516885D01*
X134517600Y-88615320D01*
X134562904Y-88724696D01*
X134586000Y-88840805D01*
X134586000Y-88959195D01*
X134562904Y-89075304D01*
X134517600Y-89184680D01*
X134451827Y-89283115D01*
X134368115Y-89366827D01*
X134269680Y-89432600D01*
X134192340Y-89464635D01*
X134160305Y-89477904D01*
X134121601Y-89485603D01*
X134044195Y-89501000D01*
X133925805Y-89501000D01*
X133848399Y-89485603D01*
X133809695Y-89477904D01*
X133777660Y-89464635D01*
X133700320Y-89432600D01*
X133601885Y-89366827D01*
X133518173Y-89283115D01*
X133452400Y-89184680D01*
X133407096Y-89075304D01*
X133384000Y-88959195D01*
X133384000Y-88840805D01*
X133407096Y-88724696D01*
X133452400Y-88615320D01*
X133518173Y-88516885D01*
X133601885Y-88433173D01*
X133700320Y-88367400D01*
X133777660Y-88335365D01*
X133809695Y-88322096D01*
X133848399Y-88314397D01*
X133925805Y-88299000D01*
X134044195Y-88299000D01*
X134121601Y-88314397D01*
X134121601Y-88314397D01*
G37*
G36*
X116241000Y-88431000D02*
G01*
X114839000Y-88431000D01*
X114839000Y-86829000D01*
X116241000Y-86829000D01*
X116241000Y-88431000D01*
X116241000Y-88431000D01*
G37*
G36*
X118841000Y-88431000D02*
G01*
X117439000Y-88431000D01*
X117439000Y-86829000D01*
X118841000Y-86829000D01*
X118841000Y-88431000D01*
X118841000Y-88431000D01*
G37*
G36*
X174721000Y-88431000D02*
G01*
X173319000Y-88431000D01*
X173319000Y-86829000D01*
X174721000Y-86829000D01*
X174721000Y-88431000D01*
X174721000Y-88431000D01*
G37*
G36*
X172121000Y-88431000D02*
G01*
X170719000Y-88431000D01*
X170719000Y-86829000D01*
X172121000Y-86829000D01*
X172121000Y-88431000D01*
X172121000Y-88431000D01*
G37*
G36*
X148656000Y-87626000D02*
G01*
X147254000Y-87626000D01*
X147254000Y-86324000D01*
X148656000Y-86324000D01*
X148656000Y-87626000D01*
X148656000Y-87626000D01*
G37*
G36*
X130745890Y-85226017D02*
G01*
X130864364Y-85275091D01*
X130970988Y-85346335D01*
X131061665Y-85437012D01*
X131132909Y-85543636D01*
X131181983Y-85662110D01*
X131207000Y-85787882D01*
X131207000Y-85916118D01*
X131181983Y-86041890D01*
X131132909Y-86160364D01*
X131061665Y-86266988D01*
X130970988Y-86357665D01*
X130864364Y-86428909D01*
X130864363Y-86428910D01*
X130864362Y-86428910D01*
X130745890Y-86477983D01*
X130620119Y-86503000D01*
X130491881Y-86503000D01*
X130366110Y-86477983D01*
X130247638Y-86428910D01*
X130247637Y-86428910D01*
X130247636Y-86428909D01*
X130141012Y-86357665D01*
X130050335Y-86266988D01*
X129979091Y-86160364D01*
X129930017Y-86041890D01*
X129905000Y-85916118D01*
X129905000Y-85787882D01*
X129930017Y-85662110D01*
X129979091Y-85543636D01*
X130050335Y-85437012D01*
X130141012Y-85346335D01*
X130247636Y-85275091D01*
X130366110Y-85226017D01*
X130491881Y-85201000D01*
X130620119Y-85201000D01*
X130745890Y-85226017D01*
X130745890Y-85226017D01*
G37*
G36*
X159193890Y-85226017D02*
G01*
X159312364Y-85275091D01*
X159418988Y-85346335D01*
X159509665Y-85437012D01*
X159580909Y-85543636D01*
X159629983Y-85662110D01*
X159655000Y-85787882D01*
X159655000Y-85916118D01*
X159629983Y-86041890D01*
X159580909Y-86160364D01*
X159509665Y-86266988D01*
X159418988Y-86357665D01*
X159312364Y-86428909D01*
X159312363Y-86428910D01*
X159312362Y-86428910D01*
X159193890Y-86477983D01*
X159068119Y-86503000D01*
X158939881Y-86503000D01*
X158814110Y-86477983D01*
X158695638Y-86428910D01*
X158695637Y-86428910D01*
X158695636Y-86428909D01*
X158589012Y-86357665D01*
X158498335Y-86266988D01*
X158427091Y-86160364D01*
X158378017Y-86041890D01*
X158353000Y-85916118D01*
X158353000Y-85787882D01*
X158378017Y-85662110D01*
X158427091Y-85543636D01*
X158498335Y-85437012D01*
X158589012Y-85346335D01*
X158695636Y-85275091D01*
X158814110Y-85226017D01*
X158939881Y-85201000D01*
X159068119Y-85201000D01*
X159193890Y-85226017D01*
X159193890Y-85226017D01*
G37*
G36*
X172121000Y-85256000D02*
G01*
X170719000Y-85256000D01*
X170719000Y-83654000D01*
X172121000Y-83654000D01*
X172121000Y-85256000D01*
X172121000Y-85256000D01*
G37*
G36*
X116241000Y-85256000D02*
G01*
X114839000Y-85256000D01*
X114839000Y-83654000D01*
X116241000Y-83654000D01*
X116241000Y-85256000D01*
X116241000Y-85256000D01*
G37*
G36*
X118841000Y-85256000D02*
G01*
X117439000Y-85256000D01*
X117439000Y-83654000D01*
X118841000Y-83654000D01*
X118841000Y-85256000D01*
X118841000Y-85256000D01*
G37*
G36*
X174721000Y-85256000D02*
G01*
X173319000Y-85256000D01*
X173319000Y-83654000D01*
X174721000Y-83654000D01*
X174721000Y-85256000D01*
X174721000Y-85256000D01*
G37*
G36*
X148656000Y-85126000D02*
G01*
X147254000Y-85126000D01*
X147254000Y-83824000D01*
X148656000Y-83824000D01*
X148656000Y-85126000D01*
X148656000Y-85126000D01*
G37*
G36*
X136561000Y-83986000D02*
G01*
X135159000Y-83986000D01*
X135159000Y-82384000D01*
X136561000Y-82384000D01*
X136561000Y-83986000D01*
X136561000Y-83986000D01*
G37*
G36*
X139161000Y-83986000D02*
G01*
X137759000Y-83986000D01*
X137759000Y-82384000D01*
X139161000Y-82384000D01*
X139161000Y-83986000D01*
X139161000Y-83986000D01*
G37*
G36*
X142276000Y-83886000D02*
G01*
X140974000Y-83886000D01*
X140974000Y-82484000D01*
X142276000Y-82484000D01*
X142276000Y-83886000D01*
X142276000Y-83886000D01*
G37*
G36*
X144776000Y-83886000D02*
G01*
X143474000Y-83886000D01*
X143474000Y-82484000D01*
X144776000Y-82484000D01*
X144776000Y-83886000D01*
X144776000Y-83886000D01*
G37*
G36*
X134121601Y-82599397D02*
G01*
X134160305Y-82607096D01*
X134192340Y-82620365D01*
X134269680Y-82652400D01*
X134368115Y-82718173D01*
X134451827Y-82801885D01*
X134517600Y-82900320D01*
X134562904Y-83009696D01*
X134586000Y-83125805D01*
X134586000Y-83244195D01*
X134562904Y-83360304D01*
X134517600Y-83469680D01*
X134451827Y-83568115D01*
X134368115Y-83651827D01*
X134269680Y-83717600D01*
X134192340Y-83749635D01*
X134160305Y-83762904D01*
X134121601Y-83770603D01*
X134044195Y-83786000D01*
X133925805Y-83786000D01*
X133848399Y-83770603D01*
X133809695Y-83762904D01*
X133777660Y-83749635D01*
X133700320Y-83717600D01*
X133601885Y-83651827D01*
X133518173Y-83568115D01*
X133452400Y-83469680D01*
X133407096Y-83360304D01*
X133384000Y-83244195D01*
X133384000Y-83125805D01*
X133407096Y-83009696D01*
X133452400Y-82900320D01*
X133518173Y-82801885D01*
X133601885Y-82718173D01*
X133700320Y-82652400D01*
X133777660Y-82620365D01*
X133809695Y-82607096D01*
X133848399Y-82599397D01*
X133925805Y-82584000D01*
X134044195Y-82584000D01*
X134121601Y-82599397D01*
X134121601Y-82599397D01*
G37*
G36*
X130745890Y-81162017D02*
G01*
X130864364Y-81211091D01*
X130970988Y-81282335D01*
X131061665Y-81373012D01*
X131132909Y-81479636D01*
X131181983Y-81598110D01*
X131207000Y-81723882D01*
X131207000Y-81852118D01*
X131181983Y-81977890D01*
X131132909Y-82096364D01*
X131061665Y-82202988D01*
X130970988Y-82293665D01*
X130864364Y-82364909D01*
X130864363Y-82364910D01*
X130864362Y-82364910D01*
X130745890Y-82413983D01*
X130620119Y-82439000D01*
X130491881Y-82439000D01*
X130366110Y-82413983D01*
X130247638Y-82364910D01*
X130247637Y-82364910D01*
X130247636Y-82364909D01*
X130141012Y-82293665D01*
X130050335Y-82202988D01*
X129979091Y-82096364D01*
X129930017Y-81977890D01*
X129905000Y-81852118D01*
X129905000Y-81723882D01*
X129930017Y-81598110D01*
X129979091Y-81479636D01*
X130050335Y-81373012D01*
X130141012Y-81282335D01*
X130247636Y-81211091D01*
X130366110Y-81162017D01*
X130491881Y-81137000D01*
X130620119Y-81137000D01*
X130745890Y-81162017D01*
X130745890Y-81162017D01*
G37*
G36*
X159193890Y-81162017D02*
G01*
X159312364Y-81211091D01*
X159418988Y-81282335D01*
X159509665Y-81373012D01*
X159580909Y-81479636D01*
X159629983Y-81598110D01*
X159655000Y-81723882D01*
X159655000Y-81852118D01*
X159629983Y-81977890D01*
X159580909Y-82096364D01*
X159509665Y-82202988D01*
X159418988Y-82293665D01*
X159312364Y-82364909D01*
X159312363Y-82364910D01*
X159312362Y-82364910D01*
X159193890Y-82413983D01*
X159068119Y-82439000D01*
X158939881Y-82439000D01*
X158814110Y-82413983D01*
X158695638Y-82364910D01*
X158695637Y-82364910D01*
X158695636Y-82364909D01*
X158589012Y-82293665D01*
X158498335Y-82202988D01*
X158427091Y-82096364D01*
X158378017Y-81977890D01*
X158353000Y-81852118D01*
X158353000Y-81723882D01*
X158378017Y-81598110D01*
X158427091Y-81479636D01*
X158498335Y-81373012D01*
X158589012Y-81282335D01*
X158695636Y-81211091D01*
X158814110Y-81162017D01*
X158939881Y-81137000D01*
X159068119Y-81137000D01*
X159193890Y-81162017D01*
X159193890Y-81162017D01*
G37*
G36*
X148906000Y-77951000D02*
G01*
X147004000Y-77951000D01*
X147004000Y-76049000D01*
X148906000Y-76049000D01*
X148906000Y-77951000D01*
X148906000Y-77951000D01*
G37*
G36*
X145692395Y-76085546D02*
G01*
X145865466Y-76157234D01*
X145865467Y-76157235D01*
X146021227Y-76261310D01*
X146153690Y-76393773D01*
X146153691Y-76393775D01*
X146257766Y-76549534D01*
X146329454Y-76722605D01*
X146366000Y-76906333D01*
X146366000Y-77093667D01*
X146329454Y-77277395D01*
X146257766Y-77450466D01*
X146257765Y-77450467D01*
X146153690Y-77606227D01*
X146021227Y-77738690D01*
X145942818Y-77791081D01*
X145865466Y-77842766D01*
X145692395Y-77914454D01*
X145508667Y-77951000D01*
X145321333Y-77951000D01*
X145137605Y-77914454D01*
X144964534Y-77842766D01*
X144887182Y-77791081D01*
X144808773Y-77738690D01*
X144676310Y-77606227D01*
X144572235Y-77450467D01*
X144572234Y-77450466D01*
X144500546Y-77277395D01*
X144464000Y-77093667D01*
X144464000Y-76906333D01*
X144500546Y-76722605D01*
X144572234Y-76549534D01*
X144676309Y-76393775D01*
X144676310Y-76393773D01*
X144808773Y-76261310D01*
X144964533Y-76157235D01*
X144964534Y-76157234D01*
X145137605Y-76085546D01*
X145321333Y-76049000D01*
X145508667Y-76049000D01*
X145692395Y-76085546D01*
X145692395Y-76085546D01*
G37*
G36*
X159193890Y-76590017D02*
G01*
X159312364Y-76639091D01*
X159418988Y-76710335D01*
X159509665Y-76801012D01*
X159580909Y-76907636D01*
X159629983Y-77026110D01*
X159655000Y-77151882D01*
X159655000Y-77280118D01*
X159629983Y-77405890D01*
X159580909Y-77524364D01*
X159509665Y-77630988D01*
X159418988Y-77721665D01*
X159312364Y-77792909D01*
X159312363Y-77792910D01*
X159312362Y-77792910D01*
X159193890Y-77841983D01*
X159068119Y-77867000D01*
X158939881Y-77867000D01*
X158814110Y-77841983D01*
X158695638Y-77792910D01*
X158695637Y-77792910D01*
X158695636Y-77792909D01*
X158589012Y-77721665D01*
X158498335Y-77630988D01*
X158427091Y-77524364D01*
X158378017Y-77405890D01*
X158353000Y-77280118D01*
X158353000Y-77151882D01*
X158378017Y-77026110D01*
X158427091Y-76907636D01*
X158498335Y-76801012D01*
X158589012Y-76710335D01*
X158695636Y-76639091D01*
X158814110Y-76590017D01*
X158939881Y-76565000D01*
X159068119Y-76565000D01*
X159193890Y-76590017D01*
X159193890Y-76590017D01*
G37*
G36*
X130745890Y-76590017D02*
G01*
X130864364Y-76639091D01*
X130970988Y-76710335D01*
X131061665Y-76801012D01*
X131132909Y-76907636D01*
X131181983Y-77026110D01*
X131207000Y-77151882D01*
X131207000Y-77280118D01*
X131181983Y-77405890D01*
X131132909Y-77524364D01*
X131061665Y-77630988D01*
X130970988Y-77721665D01*
X130864364Y-77792909D01*
X130864363Y-77792910D01*
X130864362Y-77792910D01*
X130745890Y-77841983D01*
X130620119Y-77867000D01*
X130491881Y-77867000D01*
X130366110Y-77841983D01*
X130247638Y-77792910D01*
X130247637Y-77792910D01*
X130247636Y-77792909D01*
X130141012Y-77721665D01*
X130050335Y-77630988D01*
X129979091Y-77524364D01*
X129930017Y-77405890D01*
X129905000Y-77280118D01*
X129905000Y-77151882D01*
X129930017Y-77026110D01*
X129979091Y-76907636D01*
X130050335Y-76801012D01*
X130141012Y-76710335D01*
X130247636Y-76639091D01*
X130366110Y-76590017D01*
X130491881Y-76565000D01*
X130620119Y-76565000D01*
X130745890Y-76590017D01*
X130745890Y-76590017D01*
G37*
M02*
