G04 #@! TF.GenerationSoftware,KiCad,Pcbnew,(5.1.0)-1*
G04 #@! TF.CreationDate,2019-08-25T01:17:47+02:00*
G04 #@! TF.ProjectId,Filtre-de-resolution-MSA-200-Hz,46696c74-7265-42d6-9465-2d7265736f6c,1.0*
G04 #@! TF.SameCoordinates,Original*
G04 #@! TF.FileFunction,Legend,Top*
G04 #@! TF.FilePolarity,Positive*
%FSLAX46Y46*%
G04 Gerber Fmt 4.6, Leading zero omitted, Abs format (unit mm)*
G04 Created by KiCad (PCBNEW (5.1.0)-1) date 2019-08-25 01:17:47*
%MOMM*%
%LPD*%
G04 APERTURE LIST*
%ADD10C,0.150000*%
%ADD11C,0.100000*%
%ADD12C,0.120000*%
%ADD13C,1.000000*%
%ADD14C,0.075000*%
%ADD15C,0.080000*%
G04 APERTURE END LIST*
D10*
X92453571Y-90761904D02*
X92453571Y-91095238D01*
X92977380Y-91095238D02*
X91977380Y-91095238D01*
X91977380Y-90619047D01*
X92977380Y-90238095D02*
X92310714Y-90238095D01*
X91977380Y-90238095D02*
X92025000Y-90285714D01*
X92072619Y-90238095D01*
X92025000Y-90190476D01*
X91977380Y-90238095D01*
X92072619Y-90238095D01*
X92977380Y-89619047D02*
X92929761Y-89714285D01*
X92834523Y-89761904D01*
X91977380Y-89761904D01*
X92310714Y-89380952D02*
X92310714Y-89000000D01*
X91977380Y-89238095D02*
X92834523Y-89238095D01*
X92929761Y-89190476D01*
X92977380Y-89095238D01*
X92977380Y-89000000D01*
X92977380Y-88666666D02*
X92310714Y-88666666D01*
X92501190Y-88666666D02*
X92405952Y-88619047D01*
X92358333Y-88571428D01*
X92310714Y-88476190D01*
X92310714Y-88380952D01*
X92929761Y-87666666D02*
X92977380Y-87761904D01*
X92977380Y-87952380D01*
X92929761Y-88047619D01*
X92834523Y-88095238D01*
X92453571Y-88095238D01*
X92358333Y-88047619D01*
X92310714Y-87952380D01*
X92310714Y-87761904D01*
X92358333Y-87666666D01*
X92453571Y-87619047D01*
X92548809Y-87619047D01*
X92644047Y-88095238D01*
X92977380Y-86000000D02*
X91977380Y-86000000D01*
X92929761Y-86000000D02*
X92977380Y-86095238D01*
X92977380Y-86285714D01*
X92929761Y-86380952D01*
X92882142Y-86428571D01*
X92786904Y-86476190D01*
X92501190Y-86476190D01*
X92405952Y-86428571D01*
X92358333Y-86380952D01*
X92310714Y-86285714D01*
X92310714Y-86095238D01*
X92358333Y-86000000D01*
X92929761Y-85142857D02*
X92977380Y-85238095D01*
X92977380Y-85428571D01*
X92929761Y-85523809D01*
X92834523Y-85571428D01*
X92453571Y-85571428D01*
X92358333Y-85523809D01*
X92310714Y-85428571D01*
X92310714Y-85238095D01*
X92358333Y-85142857D01*
X92453571Y-85095238D01*
X92548809Y-85095238D01*
X92644047Y-85571428D01*
X92977380Y-83904761D02*
X92310714Y-83904761D01*
X92501190Y-83904761D02*
X92405952Y-83857142D01*
X92358333Y-83809523D01*
X92310714Y-83714285D01*
X92310714Y-83619047D01*
X92929761Y-82904761D02*
X92977380Y-83000000D01*
X92977380Y-83190476D01*
X92929761Y-83285714D01*
X92834523Y-83333333D01*
X92453571Y-83333333D01*
X92358333Y-83285714D01*
X92310714Y-83190476D01*
X92310714Y-83000000D01*
X92358333Y-82904761D01*
X92453571Y-82857142D01*
X92548809Y-82857142D01*
X92644047Y-83333333D01*
X91929761Y-83000000D02*
X92072619Y-83142857D01*
X92929761Y-82476190D02*
X92977380Y-82380952D01*
X92977380Y-82190476D01*
X92929761Y-82095238D01*
X92834523Y-82047619D01*
X92786904Y-82047619D01*
X92691666Y-82095238D01*
X92644047Y-82190476D01*
X92644047Y-82333333D01*
X92596428Y-82428571D01*
X92501190Y-82476190D01*
X92453571Y-82476190D01*
X92358333Y-82428571D01*
X92310714Y-82333333D01*
X92310714Y-82190476D01*
X92358333Y-82095238D01*
X92977380Y-81476190D02*
X92929761Y-81571428D01*
X92882142Y-81619047D01*
X92786904Y-81666666D01*
X92501190Y-81666666D01*
X92405952Y-81619047D01*
X92358333Y-81571428D01*
X92310714Y-81476190D01*
X92310714Y-81333333D01*
X92358333Y-81238095D01*
X92405952Y-81190476D01*
X92501190Y-81142857D01*
X92786904Y-81142857D01*
X92882142Y-81190476D01*
X92929761Y-81238095D01*
X92977380Y-81333333D01*
X92977380Y-81476190D01*
X92977380Y-80571428D02*
X92929761Y-80666666D01*
X92834523Y-80714285D01*
X91977380Y-80714285D01*
X92310714Y-79761904D02*
X92977380Y-79761904D01*
X92310714Y-80190476D02*
X92834523Y-80190476D01*
X92929761Y-80142857D01*
X92977380Y-80047619D01*
X92977380Y-79904761D01*
X92929761Y-79809523D01*
X92882142Y-79761904D01*
X92310714Y-79428571D02*
X92310714Y-79047619D01*
X91977380Y-79285714D02*
X92834523Y-79285714D01*
X92929761Y-79238095D01*
X92977380Y-79142857D01*
X92977380Y-79047619D01*
X92977380Y-78714285D02*
X92310714Y-78714285D01*
X91977380Y-78714285D02*
X92025000Y-78761904D01*
X92072619Y-78714285D01*
X92025000Y-78666666D01*
X91977380Y-78714285D01*
X92072619Y-78714285D01*
X92977380Y-78095238D02*
X92929761Y-78190476D01*
X92882142Y-78238095D01*
X92786904Y-78285714D01*
X92501190Y-78285714D01*
X92405952Y-78238095D01*
X92358333Y-78190476D01*
X92310714Y-78095238D01*
X92310714Y-77952380D01*
X92358333Y-77857142D01*
X92405952Y-77809523D01*
X92501190Y-77761904D01*
X92786904Y-77761904D01*
X92882142Y-77809523D01*
X92929761Y-77857142D01*
X92977380Y-77952380D01*
X92977380Y-78095238D01*
X92310714Y-77333333D02*
X92977380Y-77333333D01*
X92405952Y-77333333D02*
X92358333Y-77285714D01*
X92310714Y-77190476D01*
X92310714Y-77047619D01*
X92358333Y-76952380D01*
X92453571Y-76904761D01*
X92977380Y-76904761D01*
X94627380Y-88642857D02*
X94627380Y-89214285D01*
X94627380Y-88928571D02*
X93627380Y-88928571D01*
X93770238Y-89023809D01*
X93865476Y-89119047D01*
X93913095Y-89214285D01*
X93627380Y-88023809D02*
X93627380Y-87928571D01*
X93675000Y-87833333D01*
X93722619Y-87785714D01*
X93817857Y-87738095D01*
X94008333Y-87690476D01*
X94246428Y-87690476D01*
X94436904Y-87738095D01*
X94532142Y-87785714D01*
X94579761Y-87833333D01*
X94627380Y-87928571D01*
X94627380Y-88023809D01*
X94579761Y-88119047D01*
X94532142Y-88166666D01*
X94436904Y-88214285D01*
X94246428Y-88261904D01*
X94008333Y-88261904D01*
X93817857Y-88214285D01*
X93722619Y-88166666D01*
X93675000Y-88119047D01*
X93627380Y-88023809D01*
X94532142Y-87261904D02*
X94579761Y-87214285D01*
X94627380Y-87261904D01*
X94579761Y-87309523D01*
X94532142Y-87261904D01*
X94627380Y-87261904D01*
X93627380Y-86880952D02*
X93627380Y-86214285D01*
X94627380Y-86642857D01*
X94627380Y-85071428D02*
X93627380Y-85071428D01*
X94341666Y-84738095D01*
X93627380Y-84404761D01*
X94627380Y-84404761D01*
X94627380Y-83928571D02*
X93627380Y-83928571D01*
X94103571Y-83928571D02*
X94103571Y-83357142D01*
X94627380Y-83357142D02*
X93627380Y-83357142D01*
X93960714Y-82976190D02*
X93960714Y-82452380D01*
X94627380Y-82976190D01*
X94627380Y-82452380D01*
X94627380Y-81309523D02*
X93627380Y-81309523D01*
X94341666Y-80976190D01*
X93627380Y-80642857D01*
X94627380Y-80642857D01*
X94579761Y-80214285D02*
X94627380Y-80071428D01*
X94627380Y-79833333D01*
X94579761Y-79738095D01*
X94532142Y-79690476D01*
X94436904Y-79642857D01*
X94341666Y-79642857D01*
X94246428Y-79690476D01*
X94198809Y-79738095D01*
X94151190Y-79833333D01*
X94103571Y-80023809D01*
X94055952Y-80119047D01*
X94008333Y-80166666D01*
X93913095Y-80214285D01*
X93817857Y-80214285D01*
X93722619Y-80166666D01*
X93675000Y-80119047D01*
X93627380Y-80023809D01*
X93627380Y-79785714D01*
X93675000Y-79642857D01*
X94341666Y-79261904D02*
X94341666Y-78785714D01*
X94627380Y-79357142D02*
X93627380Y-79023809D01*
X94627380Y-78690476D01*
X95753571Y-85880952D02*
X95753571Y-86214285D01*
X96277380Y-86214285D02*
X95277380Y-86214285D01*
X95277380Y-85738095D01*
X96277380Y-84833333D02*
X96277380Y-85404761D01*
X96277380Y-85119047D02*
X95277380Y-85119047D01*
X95420238Y-85214285D01*
X95515476Y-85309523D01*
X95563095Y-85404761D01*
X95277380Y-84214285D02*
X95277380Y-84023809D01*
X95325000Y-83928571D01*
X95420238Y-83833333D01*
X95610714Y-83785714D01*
X95944047Y-83785714D01*
X96134523Y-83833333D01*
X96229761Y-83928571D01*
X96277380Y-84023809D01*
X96277380Y-84214285D01*
X96229761Y-84309523D01*
X96134523Y-84404761D01*
X95944047Y-84452380D01*
X95610714Y-84452380D01*
X95420238Y-84404761D01*
X95325000Y-84309523D01*
X95277380Y-84214285D01*
X96277380Y-83357142D02*
X95277380Y-83357142D01*
X96277380Y-82785714D02*
X95705952Y-83214285D01*
X95277380Y-82785714D02*
X95848809Y-83357142D01*
X95277380Y-82357142D02*
X96086904Y-82357142D01*
X96182142Y-82309523D01*
X96229761Y-82261904D01*
X96277380Y-82166666D01*
X96277380Y-81976190D01*
X96229761Y-81880952D01*
X96182142Y-81833333D01*
X96086904Y-81785714D01*
X95277380Y-81785714D01*
X97403571Y-85809523D02*
X97403571Y-86142857D01*
X97927380Y-86142857D02*
X96927380Y-86142857D01*
X96927380Y-85666666D01*
X97260714Y-84857142D02*
X97927380Y-84857142D01*
X96879761Y-85095238D02*
X97594047Y-85333333D01*
X97594047Y-84714285D01*
X97927380Y-84333333D02*
X96927380Y-84333333D01*
X97403571Y-84333333D02*
X97403571Y-83761904D01*
X97927380Y-83761904D02*
X96927380Y-83761904D01*
X97451190Y-83095238D02*
X97927380Y-83095238D01*
X96927380Y-83428571D02*
X97451190Y-83095238D01*
X96927380Y-82761904D01*
X96927380Y-82428571D02*
X97736904Y-82428571D01*
X97832142Y-82380952D01*
X97879761Y-82333333D01*
X97927380Y-82238095D01*
X97927380Y-82047619D01*
X97879761Y-81952380D01*
X97832142Y-81904761D01*
X97736904Y-81857142D01*
X96927380Y-81857142D01*
X194000000Y-108404761D02*
X194142857Y-108452380D01*
X194380952Y-108452380D01*
X194476190Y-108404761D01*
X194523809Y-108357142D01*
X194571428Y-108261904D01*
X194571428Y-108166666D01*
X194523809Y-108071428D01*
X194476190Y-108023809D01*
X194380952Y-107976190D01*
X194190476Y-107928571D01*
X194095238Y-107880952D01*
X194047619Y-107833333D01*
X194000000Y-107738095D01*
X194000000Y-107642857D01*
X194047619Y-107547619D01*
X194095238Y-107500000D01*
X194190476Y-107452380D01*
X194428571Y-107452380D01*
X194571428Y-107500000D01*
X195142857Y-108452380D02*
X195047619Y-108404761D01*
X195000000Y-108357142D01*
X194952380Y-108261904D01*
X194952380Y-107976190D01*
X195000000Y-107880952D01*
X195047619Y-107833333D01*
X195142857Y-107785714D01*
X195285714Y-107785714D01*
X195380952Y-107833333D01*
X195428571Y-107880952D01*
X195476190Y-107976190D01*
X195476190Y-108261904D01*
X195428571Y-108357142D01*
X195380952Y-108404761D01*
X195285714Y-108452380D01*
X195142857Y-108452380D01*
X195904761Y-108452380D02*
X195904761Y-107785714D01*
X195904761Y-107976190D02*
X195952380Y-107880952D01*
X196000000Y-107833333D01*
X196095238Y-107785714D01*
X196190476Y-107785714D01*
X196380952Y-107785714D02*
X196761904Y-107785714D01*
X196523809Y-107452380D02*
X196523809Y-108309523D01*
X196571428Y-108404761D01*
X196666666Y-108452380D01*
X196761904Y-108452380D01*
X197095238Y-108452380D02*
X197095238Y-107785714D01*
X197095238Y-107452380D02*
X197047619Y-107500000D01*
X197095238Y-107547619D01*
X197142857Y-107500000D01*
X197095238Y-107452380D01*
X197095238Y-107547619D01*
X197952380Y-108404761D02*
X197857142Y-108452380D01*
X197666666Y-108452380D01*
X197571428Y-108404761D01*
X197523809Y-108309523D01*
X197523809Y-107928571D01*
X197571428Y-107833333D01*
X197666666Y-107785714D01*
X197857142Y-107785714D01*
X197952380Y-107833333D01*
X198000000Y-107928571D01*
X198000000Y-108023809D01*
X197523809Y-108119047D01*
X92880952Y-96928571D02*
X93214285Y-96928571D01*
X93357142Y-97452380D02*
X92880952Y-97452380D01*
X92880952Y-96452380D01*
X93357142Y-96452380D01*
X93785714Y-96785714D02*
X93785714Y-97452380D01*
X93785714Y-96880952D02*
X93833333Y-96833333D01*
X93928571Y-96785714D01*
X94071428Y-96785714D01*
X94166666Y-96833333D01*
X94214285Y-96928571D01*
X94214285Y-97452380D01*
X94547619Y-96785714D02*
X94928571Y-96785714D01*
X94690476Y-96452380D02*
X94690476Y-97309523D01*
X94738095Y-97404761D01*
X94833333Y-97452380D01*
X94928571Y-97452380D01*
X95261904Y-97452380D02*
X95261904Y-96785714D01*
X95261904Y-96976190D02*
X95309523Y-96880952D01*
X95357142Y-96833333D01*
X95452380Y-96785714D01*
X95547619Y-96785714D01*
X96261904Y-97404761D02*
X96166666Y-97452380D01*
X95976190Y-97452380D01*
X95880952Y-97404761D01*
X95833333Y-97309523D01*
X95833333Y-96928571D01*
X95880952Y-96833333D01*
X95976190Y-96785714D01*
X96166666Y-96785714D01*
X96261904Y-96833333D01*
X96309523Y-96928571D01*
X96309523Y-97023809D01*
X95833333Y-97119047D01*
X96166666Y-96404761D02*
X96023809Y-96547619D01*
X97119047Y-97404761D02*
X97023809Y-97452380D01*
X96833333Y-97452380D01*
X96738095Y-97404761D01*
X96690476Y-97309523D01*
X96690476Y-96928571D01*
X96738095Y-96833333D01*
X96833333Y-96785714D01*
X97023809Y-96785714D01*
X97119047Y-96833333D01*
X97166666Y-96928571D01*
X97166666Y-97023809D01*
X96690476Y-97119047D01*
X141238095Y-76500000D02*
X141142857Y-76452380D01*
X141000000Y-76452380D01*
X140857142Y-76500000D01*
X140761904Y-76595238D01*
X140714285Y-76690476D01*
X140666666Y-76880952D01*
X140666666Y-77023809D01*
X140714285Y-77214285D01*
X140761904Y-77309523D01*
X140857142Y-77404761D01*
X141000000Y-77452380D01*
X141095238Y-77452380D01*
X141238095Y-77404761D01*
X141285714Y-77357142D01*
X141285714Y-77023809D01*
X141095238Y-77023809D01*
X141714285Y-77452380D02*
X141714285Y-76452380D01*
X142285714Y-77452380D01*
X142285714Y-76452380D01*
X142761904Y-77452380D02*
X142761904Y-76452380D01*
X143000000Y-76452380D01*
X143142857Y-76500000D01*
X143238095Y-76595238D01*
X143285714Y-76690476D01*
X143333333Y-76880952D01*
X143333333Y-77023809D01*
X143285714Y-77214285D01*
X143238095Y-77309523D01*
X143142857Y-77404761D01*
X143000000Y-77452380D01*
X142761904Y-77452380D01*
X149714285Y-77071428D02*
X150476190Y-77071428D01*
X150095238Y-77452380D02*
X150095238Y-76690476D01*
X151428571Y-76452380D02*
X150952380Y-76452380D01*
X150904761Y-76928571D01*
X150952380Y-76880952D01*
X151047619Y-76833333D01*
X151285714Y-76833333D01*
X151380952Y-76880952D01*
X151428571Y-76928571D01*
X151476190Y-77023809D01*
X151476190Y-77261904D01*
X151428571Y-77357142D01*
X151380952Y-77404761D01*
X151285714Y-77452380D01*
X151047619Y-77452380D01*
X150952380Y-77404761D01*
X150904761Y-77357142D01*
X151761904Y-76452380D02*
X152095238Y-77452380D01*
X152428571Y-76452380D01*
X151166666Y-90452380D02*
X151166666Y-89976190D01*
X151452380Y-90547619D02*
X150452380Y-90214285D01*
X151452380Y-89880952D01*
X151452380Y-89404761D02*
X151404761Y-89500000D01*
X151309523Y-89547619D01*
X150452380Y-89547619D01*
X151452380Y-89023809D02*
X150785714Y-89023809D01*
X150452380Y-89023809D02*
X150500000Y-89071428D01*
X150547619Y-89023809D01*
X150500000Y-88976190D01*
X150452380Y-89023809D01*
X150547619Y-89023809D01*
X151452380Y-88547619D02*
X150785714Y-88547619D01*
X150880952Y-88547619D02*
X150833333Y-88500000D01*
X150785714Y-88404761D01*
X150785714Y-88261904D01*
X150833333Y-88166666D01*
X150928571Y-88119047D01*
X151452380Y-88119047D01*
X150928571Y-88119047D02*
X150833333Y-88071428D01*
X150785714Y-87976190D01*
X150785714Y-87833333D01*
X150833333Y-87738095D01*
X150928571Y-87690476D01*
X151452380Y-87690476D01*
X151404761Y-86833333D02*
X151452380Y-86928571D01*
X151452380Y-87119047D01*
X151404761Y-87214285D01*
X151309523Y-87261904D01*
X150928571Y-87261904D01*
X150833333Y-87214285D01*
X150785714Y-87119047D01*
X150785714Y-86928571D01*
X150833333Y-86833333D01*
X150928571Y-86785714D01*
X151023809Y-86785714D01*
X151119047Y-87261904D01*
X150785714Y-86357142D02*
X151452380Y-86357142D01*
X150880952Y-86357142D02*
X150833333Y-86309523D01*
X150785714Y-86214285D01*
X150785714Y-86071428D01*
X150833333Y-85976190D01*
X150928571Y-85928571D01*
X151452380Y-85928571D01*
X150785714Y-85595238D02*
X150785714Y-85214285D01*
X150452380Y-85452380D02*
X151309523Y-85452380D01*
X151404761Y-85404761D01*
X151452380Y-85309523D01*
X151452380Y-85214285D01*
X151452380Y-84452380D02*
X150928571Y-84452380D01*
X150833333Y-84500000D01*
X150785714Y-84595238D01*
X150785714Y-84785714D01*
X150833333Y-84880952D01*
X151404761Y-84452380D02*
X151452380Y-84547619D01*
X151452380Y-84785714D01*
X151404761Y-84880952D01*
X151309523Y-84928571D01*
X151214285Y-84928571D01*
X151119047Y-84880952D01*
X151071428Y-84785714D01*
X151071428Y-84547619D01*
X151023809Y-84452380D01*
X150785714Y-84119047D02*
X150785714Y-83738095D01*
X150452380Y-83976190D02*
X151309523Y-83976190D01*
X151404761Y-83928571D01*
X151452380Y-83833333D01*
X151452380Y-83738095D01*
X151452380Y-83404761D02*
X150785714Y-83404761D01*
X150452380Y-83404761D02*
X150500000Y-83452380D01*
X150547619Y-83404761D01*
X150500000Y-83357142D01*
X150452380Y-83404761D01*
X150547619Y-83404761D01*
X151452380Y-82785714D02*
X151404761Y-82880952D01*
X151357142Y-82928571D01*
X151261904Y-82976190D01*
X150976190Y-82976190D01*
X150880952Y-82928571D01*
X150833333Y-82880952D01*
X150785714Y-82785714D01*
X150785714Y-82642857D01*
X150833333Y-82547619D01*
X150880952Y-82500000D01*
X150976190Y-82452380D01*
X151261904Y-82452380D01*
X151357142Y-82500000D01*
X151404761Y-82547619D01*
X151452380Y-82642857D01*
X151452380Y-82785714D01*
X150785714Y-82023809D02*
X151452380Y-82023809D01*
X150880952Y-82023809D02*
X150833333Y-81976190D01*
X150785714Y-81880952D01*
X150785714Y-81738095D01*
X150833333Y-81642857D01*
X150928571Y-81595238D01*
X151452380Y-81595238D01*
X147071428Y-124357142D02*
X147023809Y-124404761D01*
X146880952Y-124452380D01*
X146785714Y-124452380D01*
X146642857Y-124404761D01*
X146547619Y-124309523D01*
X146500000Y-124214285D01*
X146452380Y-124023809D01*
X146452380Y-123880952D01*
X146500000Y-123690476D01*
X146547619Y-123595238D01*
X146642857Y-123500000D01*
X146785714Y-123452380D01*
X146880952Y-123452380D01*
X147023809Y-123500000D01*
X147071428Y-123547619D01*
X147642857Y-124452380D02*
X147547619Y-124404761D01*
X147500000Y-124357142D01*
X147452380Y-124261904D01*
X147452380Y-123976190D01*
X147500000Y-123880952D01*
X147547619Y-123833333D01*
X147642857Y-123785714D01*
X147785714Y-123785714D01*
X147880952Y-123833333D01*
X147928571Y-123880952D01*
X147976190Y-123976190D01*
X147976190Y-124261904D01*
X147928571Y-124357142D01*
X147880952Y-124404761D01*
X147785714Y-124452380D01*
X147642857Y-124452380D01*
X148404761Y-124452380D02*
X148404761Y-123785714D01*
X148404761Y-123880952D02*
X148452380Y-123833333D01*
X148547619Y-123785714D01*
X148690476Y-123785714D01*
X148785714Y-123833333D01*
X148833333Y-123928571D01*
X148833333Y-124452380D01*
X148833333Y-123928571D02*
X148880952Y-123833333D01*
X148976190Y-123785714D01*
X149119047Y-123785714D01*
X149214285Y-123833333D01*
X149261904Y-123928571D01*
X149261904Y-124452380D01*
X149738095Y-123785714D02*
X149738095Y-124785714D01*
X149738095Y-123833333D02*
X149833333Y-123785714D01*
X150023809Y-123785714D01*
X150119047Y-123833333D01*
X150166666Y-123880952D01*
X150214285Y-123976190D01*
X150214285Y-124261904D01*
X150166666Y-124357142D01*
X150119047Y-124404761D01*
X150023809Y-124452380D01*
X149833333Y-124452380D01*
X149738095Y-124404761D01*
X151023809Y-124404761D02*
X150928571Y-124452380D01*
X150738095Y-124452380D01*
X150642857Y-124404761D01*
X150595238Y-124309523D01*
X150595238Y-123928571D01*
X150642857Y-123833333D01*
X150738095Y-123785714D01*
X150928571Y-123785714D01*
X151023809Y-123833333D01*
X151071428Y-123928571D01*
X151071428Y-124023809D01*
X150595238Y-124119047D01*
X151500000Y-123785714D02*
X151500000Y-124452380D01*
X151500000Y-123880952D02*
X151547619Y-123833333D01*
X151642857Y-123785714D01*
X151785714Y-123785714D01*
X151880952Y-123833333D01*
X151928571Y-123928571D01*
X151928571Y-124452380D01*
X152357142Y-124404761D02*
X152452380Y-124452380D01*
X152642857Y-124452380D01*
X152738095Y-124404761D01*
X152785714Y-124309523D01*
X152785714Y-124261904D01*
X152738095Y-124166666D01*
X152642857Y-124119047D01*
X152500000Y-124119047D01*
X152404761Y-124071428D01*
X152357142Y-123976190D01*
X152357142Y-123928571D01*
X152404761Y-123833333D01*
X152500000Y-123785714D01*
X152642857Y-123785714D01*
X152738095Y-123833333D01*
X153642857Y-124452380D02*
X153642857Y-123928571D01*
X153595238Y-123833333D01*
X153500000Y-123785714D01*
X153309523Y-123785714D01*
X153214285Y-123833333D01*
X153642857Y-124404761D02*
X153547619Y-124452380D01*
X153309523Y-124452380D01*
X153214285Y-124404761D01*
X153166666Y-124309523D01*
X153166666Y-124214285D01*
X153214285Y-124119047D01*
X153309523Y-124071428D01*
X153547619Y-124071428D01*
X153642857Y-124023809D01*
X153976190Y-123785714D02*
X154357142Y-123785714D01*
X154119047Y-123452380D02*
X154119047Y-124309523D01*
X154166666Y-124404761D01*
X154261904Y-124452380D01*
X154357142Y-124452380D01*
X154690476Y-124452380D02*
X154690476Y-123785714D01*
X154690476Y-123452380D02*
X154642857Y-123500000D01*
X154690476Y-123547619D01*
X154738095Y-123500000D01*
X154690476Y-123452380D01*
X154690476Y-123547619D01*
X155309523Y-124452380D02*
X155214285Y-124404761D01*
X155166666Y-124357142D01*
X155119047Y-124261904D01*
X155119047Y-123976190D01*
X155166666Y-123880952D01*
X155214285Y-123833333D01*
X155309523Y-123785714D01*
X155452380Y-123785714D01*
X155547619Y-123833333D01*
X155595238Y-123880952D01*
X155642857Y-123976190D01*
X155642857Y-124261904D01*
X155595238Y-124357142D01*
X155547619Y-124404761D01*
X155452380Y-124452380D01*
X155309523Y-124452380D01*
X156071428Y-123785714D02*
X156071428Y-124452380D01*
X156071428Y-123880952D02*
X156119047Y-123833333D01*
X156214285Y-123785714D01*
X156357142Y-123785714D01*
X156452380Y-123833333D01*
X156500000Y-123928571D01*
X156500000Y-124452380D01*
X169857142Y-124357142D02*
X169809523Y-124404761D01*
X169666666Y-124452380D01*
X169571428Y-124452380D01*
X169428571Y-124404761D01*
X169333333Y-124309523D01*
X169285714Y-124214285D01*
X169238095Y-124023809D01*
X169238095Y-123880952D01*
X169285714Y-123690476D01*
X169333333Y-123595238D01*
X169428571Y-123500000D01*
X169571428Y-123452380D01*
X169666666Y-123452380D01*
X169809523Y-123500000D01*
X169857142Y-123547619D01*
X170666666Y-124404761D02*
X170571428Y-124452380D01*
X170380952Y-124452380D01*
X170285714Y-124404761D01*
X170238095Y-124309523D01*
X170238095Y-123928571D01*
X170285714Y-123833333D01*
X170380952Y-123785714D01*
X170571428Y-123785714D01*
X170666666Y-123833333D01*
X170714285Y-123928571D01*
X170714285Y-124023809D01*
X170238095Y-124119047D01*
X171285714Y-124452380D02*
X171190476Y-124404761D01*
X171142857Y-124309523D01*
X171142857Y-123452380D01*
X171809523Y-124452380D02*
X171714285Y-124404761D01*
X171666666Y-124309523D01*
X171666666Y-123452380D01*
X172619047Y-123785714D02*
X172619047Y-124452380D01*
X172190476Y-123785714D02*
X172190476Y-124309523D01*
X172238095Y-124404761D01*
X172333333Y-124452380D01*
X172476190Y-124452380D01*
X172571428Y-124404761D01*
X172619047Y-124357142D01*
X173238095Y-124452380D02*
X173142857Y-124404761D01*
X173095238Y-124309523D01*
X173095238Y-123452380D01*
X174000000Y-124404761D02*
X173904761Y-124452380D01*
X173714285Y-124452380D01*
X173619047Y-124404761D01*
X173571428Y-124309523D01*
X173571428Y-123928571D01*
X173619047Y-123833333D01*
X173714285Y-123785714D01*
X173904761Y-123785714D01*
X174000000Y-123833333D01*
X174047619Y-123928571D01*
X174047619Y-124023809D01*
X173571428Y-124119047D01*
X175190476Y-123547619D02*
X175238095Y-123500000D01*
X175333333Y-123452380D01*
X175571428Y-123452380D01*
X175666666Y-123500000D01*
X175714285Y-123547619D01*
X175761904Y-123642857D01*
X175761904Y-123738095D01*
X175714285Y-123880952D01*
X175142857Y-124452380D01*
X175761904Y-124452380D01*
X114357142Y-124357142D02*
X114309523Y-124404761D01*
X114166666Y-124452380D01*
X114071428Y-124452380D01*
X113928571Y-124404761D01*
X113833333Y-124309523D01*
X113785714Y-124214285D01*
X113738095Y-124023809D01*
X113738095Y-123880952D01*
X113785714Y-123690476D01*
X113833333Y-123595238D01*
X113928571Y-123500000D01*
X114071428Y-123452380D01*
X114166666Y-123452380D01*
X114309523Y-123500000D01*
X114357142Y-123547619D01*
X115166666Y-124404761D02*
X115071428Y-124452380D01*
X114880952Y-124452380D01*
X114785714Y-124404761D01*
X114738095Y-124309523D01*
X114738095Y-123928571D01*
X114785714Y-123833333D01*
X114880952Y-123785714D01*
X115071428Y-123785714D01*
X115166666Y-123833333D01*
X115214285Y-123928571D01*
X115214285Y-124023809D01*
X114738095Y-124119047D01*
X115785714Y-124452380D02*
X115690476Y-124404761D01*
X115642857Y-124309523D01*
X115642857Y-123452380D01*
X116309523Y-124452380D02*
X116214285Y-124404761D01*
X116166666Y-124309523D01*
X116166666Y-123452380D01*
X117119047Y-123785714D02*
X117119047Y-124452380D01*
X116690476Y-123785714D02*
X116690476Y-124309523D01*
X116738095Y-124404761D01*
X116833333Y-124452380D01*
X116976190Y-124452380D01*
X117071428Y-124404761D01*
X117119047Y-124357142D01*
X117738095Y-124452380D02*
X117642857Y-124404761D01*
X117595238Y-124309523D01*
X117595238Y-123452380D01*
X118500000Y-124404761D02*
X118404761Y-124452380D01*
X118214285Y-124452380D01*
X118119047Y-124404761D01*
X118071428Y-124309523D01*
X118071428Y-123928571D01*
X118119047Y-123833333D01*
X118214285Y-123785714D01*
X118404761Y-123785714D01*
X118500000Y-123833333D01*
X118547619Y-123928571D01*
X118547619Y-124023809D01*
X118071428Y-124119047D01*
X120261904Y-124452380D02*
X119690476Y-124452380D01*
X119976190Y-124452380D02*
X119976190Y-123452380D01*
X119880952Y-123595238D01*
X119785714Y-123690476D01*
X119690476Y-123738095D01*
D11*
X116300001Y-118275000D02*
X117500001Y-118275000D01*
X116300001Y-116675000D02*
X117500001Y-116675000D01*
X147955000Y-85525000D02*
X147955000Y-85925000D01*
X148155000Y-85725000D02*
X147755000Y-85725000D01*
X147255000Y-85125000D02*
X147255000Y-86325000D01*
X148655000Y-85125000D02*
X148655000Y-86325000D01*
D10*
X146151600Y-105339600D02*
X146151600Y-106660400D01*
X143408400Y-105339600D02*
X146151600Y-105339600D01*
X143408400Y-106660400D02*
X143408400Y-105339600D01*
X146151600Y-106660400D02*
X143408400Y-106660400D01*
D12*
X91320000Y-104300000D02*
X91320000Y-100700000D01*
X98200000Y-103800000D02*
X98200000Y-101200000D01*
X93400000Y-98900000D02*
X96600000Y-98900000D01*
X93400000Y-106100000D02*
X96600000Y-106100000D01*
D11*
X144145000Y-75730000D02*
X149225000Y-75730000D01*
X144145000Y-78270000D02*
X144145000Y-75730000D01*
X149225000Y-78270000D02*
X144145000Y-78270000D01*
X149225000Y-75730000D02*
X149225000Y-78270000D01*
D12*
X199680000Y-100700000D02*
X199680000Y-104300000D01*
X192800000Y-101200000D02*
X192800000Y-103800000D01*
X197600000Y-106100000D02*
X194400000Y-106100000D01*
X197600000Y-98900000D02*
X194400000Y-98900000D01*
D11*
X143075000Y-88900000D02*
X142675000Y-88900000D01*
X142875000Y-89100000D02*
X142875000Y-88700000D01*
X143475000Y-88200000D02*
X142275000Y-88200000D01*
X143475000Y-89600000D02*
X142275000Y-89600000D01*
X137360000Y-88900000D02*
X136960000Y-88900000D01*
X137160000Y-89100000D02*
X137160000Y-88700000D01*
X137760000Y-88200000D02*
X136560000Y-88200000D01*
X137760000Y-89600000D02*
X136560000Y-89600000D01*
X135690000Y-102870000D02*
X136090000Y-102870000D01*
X135890000Y-102670000D02*
X135890000Y-103070000D01*
X135290000Y-103570000D02*
X136490000Y-103570000D01*
X135290000Y-102170000D02*
X136490000Y-102170000D01*
X142675000Y-83185000D02*
X143075000Y-83185000D01*
X142875000Y-82985000D02*
X142875000Y-83385000D01*
X142275000Y-83885000D02*
X143475000Y-83885000D01*
X142275000Y-82485000D02*
X143475000Y-82485000D01*
X140135000Y-109855000D02*
X140535000Y-109855000D01*
X140335000Y-109655000D02*
X140335000Y-110055000D01*
X139735000Y-110555000D02*
X140935000Y-110555000D01*
X139735000Y-109155000D02*
X140935000Y-109155000D01*
X152800000Y-106045000D02*
X153200000Y-106045000D01*
X153000000Y-105845000D02*
X153000000Y-106245000D01*
X152400000Y-106745000D02*
X153600000Y-106745000D01*
X152400000Y-105345000D02*
X153600000Y-105345000D01*
X152800000Y-102870000D02*
X153200000Y-102870000D01*
X153000000Y-102670000D02*
X153000000Y-103070000D01*
X152400000Y-103570000D02*
X153600000Y-103570000D01*
X152400000Y-102170000D02*
X153600000Y-102170000D01*
D10*
X112776000Y-106056000D02*
X112776000Y-98944000D01*
X113792000Y-106056000D02*
X112776000Y-106056000D01*
X118872000Y-106056000D02*
X114808000Y-106056000D01*
X120904000Y-106056000D02*
X119888000Y-106056000D01*
X120904000Y-98944000D02*
X120904000Y-106056000D01*
X119888000Y-98944000D02*
X120904000Y-98944000D01*
X117348000Y-98944000D02*
X118872000Y-98944000D01*
X114808000Y-98944000D02*
X116332000Y-98944000D01*
X112776000Y-98944000D02*
X113792000Y-98944000D01*
X119380000Y-98055000D02*
X119380000Y-100722000D01*
X116840000Y-98055000D02*
X116840000Y-100722000D01*
X114300000Y-98055000D02*
X114300000Y-100722000D01*
X114300000Y-104278000D02*
X114300000Y-106945000D01*
X119380000Y-104278000D02*
X119380000Y-106945000D01*
D13*
X114046000Y-103135000D02*
X119634000Y-103135000D01*
X114046000Y-101865000D02*
X119634000Y-101865000D01*
D10*
X116840000Y-104278000D02*
G75*
G02X117348000Y-104278000I254000J0D01*
G01*
X117348000Y-104278000D02*
G75*
G02X117856000Y-104278000I254000J0D01*
G01*
X117856000Y-104278000D02*
G75*
G02X118364000Y-104278000I254000J0D01*
G01*
X114300000Y-104278000D02*
G75*
G02X114808000Y-104278000I254000J0D01*
G01*
X114808000Y-104278000D02*
G75*
G02X115316000Y-104278000I254000J0D01*
G01*
X116332000Y-104278000D02*
G75*
G02X116840000Y-104278000I254000J0D01*
G01*
X115824000Y-104278000D02*
G75*
G02X116332000Y-104278000I254000J0D01*
G01*
X118872000Y-104278000D02*
G75*
G02X119380000Y-104278000I254000J0D01*
G01*
X118364000Y-104278000D02*
G75*
G02X118872000Y-104278000I254000J0D01*
G01*
X115316000Y-104278000D02*
G75*
G02X115824000Y-104278000I254000J0D01*
G01*
X119380000Y-100722000D02*
G75*
G02X118872000Y-100722000I-254000J0D01*
G01*
X118872000Y-100722000D02*
G75*
G02X118364000Y-100722000I-254000J0D01*
G01*
X118364000Y-100722000D02*
G75*
G02X117856000Y-100722000I-254000J0D01*
G01*
X117856000Y-100722000D02*
G75*
G02X117348000Y-100722000I-254000J0D01*
G01*
X117348000Y-100722000D02*
G75*
G02X116840000Y-100722000I-254000J0D01*
G01*
X114808000Y-100722000D02*
G75*
G02X114300000Y-100722000I-254000J0D01*
G01*
X115316000Y-100722000D02*
G75*
G02X114808000Y-100722000I-254000J0D01*
G01*
X115824000Y-100722000D02*
G75*
G02X115316000Y-100722000I-254000J0D01*
G01*
X116332000Y-100722000D02*
G75*
G02X115824000Y-100722000I-254000J0D01*
G01*
X116840000Y-100722000D02*
G75*
G02X116332000Y-100722000I-254000J0D01*
G01*
X112776000Y-107580000D02*
G75*
G03X112776000Y-107580000I-508000J0D01*
G01*
X107350000Y-92510000D02*
X108550000Y-92510000D01*
X107350000Y-92910000D02*
X107350000Y-92510000D01*
X108550000Y-92910000D02*
X107350000Y-92910000D01*
X108550000Y-92510000D02*
X108550000Y-92910000D01*
X108450000Y-93210000D02*
X107450000Y-93210000D01*
X108450000Y-92210000D02*
X107450000Y-92210000D01*
X107950000Y-93710000D02*
X107950000Y-93210000D01*
X107950000Y-91710000D02*
X107950000Y-92210000D01*
X105450000Y-86710000D02*
X106950000Y-86710000D01*
X105450000Y-98710000D02*
X105450000Y-86710000D01*
X106950000Y-98710000D02*
X105450000Y-98710000D01*
X110450000Y-98710000D02*
X108950000Y-98710000D01*
X110450000Y-86710000D02*
X110450000Y-98710000D01*
X108950000Y-86710000D02*
X110450000Y-86710000D01*
X108550000Y-112595000D02*
X107350000Y-112595000D01*
X108550000Y-112195000D02*
X108550000Y-112595000D01*
X107350000Y-112195000D02*
X108550000Y-112195000D01*
X107350000Y-112595000D02*
X107350000Y-112195000D01*
X107450000Y-111895000D02*
X108450000Y-111895000D01*
X107450000Y-112895000D02*
X108450000Y-112895000D01*
X107950000Y-111395000D02*
X107950000Y-111895000D01*
X107950000Y-113395000D02*
X107950000Y-112895000D01*
X110450000Y-118395000D02*
X108950000Y-118395000D01*
X110450000Y-106395000D02*
X110450000Y-118395000D01*
X108950000Y-106395000D02*
X110450000Y-106395000D01*
X105450000Y-106395000D02*
X106950000Y-106395000D01*
X105450000Y-118395000D02*
X105450000Y-106395000D01*
X106950000Y-118395000D02*
X105450000Y-118395000D01*
X125695000Y-92910000D02*
X124495000Y-92910000D01*
X125695000Y-92510000D02*
X125695000Y-92910000D01*
X124495000Y-92510000D02*
X125695000Y-92510000D01*
X124495000Y-92910000D02*
X124495000Y-92510000D01*
X124595000Y-92210000D02*
X125595000Y-92210000D01*
X124595000Y-93210000D02*
X125595000Y-93210000D01*
X125095000Y-91710000D02*
X125095000Y-92210000D01*
X125095000Y-93710000D02*
X125095000Y-93210000D01*
X127595000Y-98710000D02*
X126095000Y-98710000D01*
X127595000Y-86710000D02*
X127595000Y-98710000D01*
X126095000Y-86710000D02*
X127595000Y-86710000D01*
X122595000Y-86710000D02*
X124095000Y-86710000D01*
X122595000Y-98710000D02*
X122595000Y-86710000D01*
X124095000Y-98710000D02*
X122595000Y-98710000D01*
X124495000Y-112450000D02*
X125695000Y-112450000D01*
X124495000Y-112850000D02*
X124495000Y-112450000D01*
X125695000Y-112850000D02*
X124495000Y-112850000D01*
X125695000Y-112450000D02*
X125695000Y-112850000D01*
X125595000Y-113150000D02*
X124595000Y-113150000D01*
X125595000Y-112150000D02*
X124595000Y-112150000D01*
X125095000Y-113650000D02*
X125095000Y-113150000D01*
X125095000Y-111650000D02*
X125095000Y-112150000D01*
X122595000Y-106650000D02*
X124095000Y-106650000D01*
X122595000Y-118650000D02*
X122595000Y-106650000D01*
X124095000Y-118650000D02*
X122595000Y-118650000D01*
X127595000Y-118650000D02*
X126095000Y-118650000D01*
X127595000Y-106650000D02*
X127595000Y-118650000D01*
X126095000Y-106650000D02*
X127595000Y-106650000D01*
D11*
X103540000Y-101435000D02*
X104740000Y-101435000D01*
X103540000Y-103035000D02*
X104740000Y-103035000D01*
X184820000Y-103035000D02*
X186020000Y-103035000D01*
X184820000Y-101435000D02*
X186020000Y-101435000D01*
X116240000Y-86830000D02*
X117440000Y-86830000D01*
X116240000Y-88430000D02*
X117440000Y-88430000D01*
X116240000Y-85255000D02*
X117440000Y-85255000D01*
X116240000Y-83655000D02*
X117440000Y-83655000D01*
X116300001Y-119850000D02*
X117500001Y-119850000D01*
X116300001Y-121450000D02*
X117500001Y-121450000D01*
X136560000Y-83985000D02*
X137760000Y-83985000D01*
X136560000Y-82385000D02*
X137760000Y-82385000D01*
X135290000Y-110655000D02*
X136490000Y-110655000D01*
X135290000Y-109055000D02*
X136490000Y-109055000D01*
X152435000Y-109055000D02*
X153635000Y-109055000D01*
X152435000Y-110655000D02*
X153635000Y-110655000D01*
X172120000Y-83655000D02*
X173320000Y-83655000D01*
X172120000Y-85255000D02*
X173320000Y-85255000D01*
X172120000Y-88430000D02*
X173320000Y-88430000D01*
X172120000Y-86830000D02*
X173320000Y-86830000D01*
X172120000Y-117310000D02*
X173320000Y-117310000D01*
X172120000Y-118910000D02*
X173320000Y-118910000D01*
X172120000Y-120485000D02*
X173320000Y-120485000D01*
X172120000Y-122085000D02*
X173320000Y-122085000D01*
D10*
X168656000Y-107315000D02*
G75*
G03X168656000Y-107315000I-508000J0D01*
G01*
X172720000Y-100457000D02*
G75*
G02X172212000Y-100457000I-254000J0D01*
G01*
X172212000Y-100457000D02*
G75*
G02X171704000Y-100457000I-254000J0D01*
G01*
X171704000Y-100457000D02*
G75*
G02X171196000Y-100457000I-254000J0D01*
G01*
X171196000Y-100457000D02*
G75*
G02X170688000Y-100457000I-254000J0D01*
G01*
X170688000Y-100457000D02*
G75*
G02X170180000Y-100457000I-254000J0D01*
G01*
X173228000Y-100457000D02*
G75*
G02X172720000Y-100457000I-254000J0D01*
G01*
X173736000Y-100457000D02*
G75*
G02X173228000Y-100457000I-254000J0D01*
G01*
X174244000Y-100457000D02*
G75*
G02X173736000Y-100457000I-254000J0D01*
G01*
X174752000Y-100457000D02*
G75*
G02X174244000Y-100457000I-254000J0D01*
G01*
X175260000Y-100457000D02*
G75*
G02X174752000Y-100457000I-254000J0D01*
G01*
X171196000Y-104013000D02*
G75*
G02X171704000Y-104013000I254000J0D01*
G01*
X174244000Y-104013000D02*
G75*
G02X174752000Y-104013000I254000J0D01*
G01*
X174752000Y-104013000D02*
G75*
G02X175260000Y-104013000I254000J0D01*
G01*
X171704000Y-104013000D02*
G75*
G02X172212000Y-104013000I254000J0D01*
G01*
X172212000Y-104013000D02*
G75*
G02X172720000Y-104013000I254000J0D01*
G01*
X170688000Y-104013000D02*
G75*
G02X171196000Y-104013000I254000J0D01*
G01*
X170180000Y-104013000D02*
G75*
G02X170688000Y-104013000I254000J0D01*
G01*
X173736000Y-104013000D02*
G75*
G02X174244000Y-104013000I254000J0D01*
G01*
X173228000Y-104013000D02*
G75*
G02X173736000Y-104013000I254000J0D01*
G01*
X172720000Y-104013000D02*
G75*
G02X173228000Y-104013000I254000J0D01*
G01*
D13*
X169926000Y-101600000D02*
X175514000Y-101600000D01*
X169926000Y-102870000D02*
X175514000Y-102870000D01*
D10*
X175260000Y-104013000D02*
X175260000Y-106680000D01*
X170180000Y-104013000D02*
X170180000Y-106680000D01*
X170180000Y-97790000D02*
X170180000Y-100457000D01*
X172720000Y-97790000D02*
X172720000Y-100457000D01*
X175260000Y-97790000D02*
X175260000Y-100457000D01*
X168656000Y-98679000D02*
X169672000Y-98679000D01*
X170688000Y-98679000D02*
X172212000Y-98679000D01*
X173228000Y-98679000D02*
X174752000Y-98679000D01*
X175768000Y-98679000D02*
X176784000Y-98679000D01*
X176784000Y-98679000D02*
X176784000Y-105791000D01*
X176784000Y-105791000D02*
X175768000Y-105791000D01*
X174752000Y-105791000D02*
X170688000Y-105791000D01*
X169672000Y-105791000D02*
X168656000Y-105791000D01*
X168656000Y-105791000D02*
X168656000Y-98679000D01*
X165465000Y-86750000D02*
X166965000Y-86750000D01*
X166965000Y-86750000D02*
X166965000Y-98750000D01*
X166965000Y-98750000D02*
X165465000Y-98750000D01*
X163465000Y-98750000D02*
X161965000Y-98750000D01*
X161965000Y-98750000D02*
X161965000Y-86750000D01*
X161965000Y-86750000D02*
X163465000Y-86750000D01*
X164465000Y-91750000D02*
X164465000Y-92250000D01*
X164465000Y-93750000D02*
X164465000Y-93250000D01*
X164965000Y-92250000D02*
X163965000Y-92250000D01*
X164965000Y-93250000D02*
X163965000Y-93250000D01*
X165065000Y-92550000D02*
X165065000Y-92950000D01*
X165065000Y-92950000D02*
X163865000Y-92950000D01*
X163865000Y-92950000D02*
X163865000Y-92550000D01*
X163865000Y-92550000D02*
X165065000Y-92550000D01*
X165065000Y-113230000D02*
X163865000Y-113230000D01*
X165065000Y-112830000D02*
X165065000Y-113230000D01*
X163865000Y-112830000D02*
X165065000Y-112830000D01*
X163865000Y-113230000D02*
X163865000Y-112830000D01*
X163965000Y-112530000D02*
X164965000Y-112530000D01*
X163965000Y-113530000D02*
X164965000Y-113530000D01*
X164465000Y-112030000D02*
X164465000Y-112530000D01*
X164465000Y-114030000D02*
X164465000Y-113530000D01*
X166965000Y-119030000D02*
X165465000Y-119030000D01*
X166965000Y-107030000D02*
X166965000Y-119030000D01*
X165465000Y-107030000D02*
X166965000Y-107030000D01*
X161965000Y-107030000D02*
X163465000Y-107030000D01*
X161965000Y-119030000D02*
X161965000Y-107030000D01*
X163465000Y-119030000D02*
X161965000Y-119030000D01*
X179975000Y-98750000D02*
X178475000Y-98750000D01*
X178475000Y-98750000D02*
X178475000Y-86750000D01*
X178475000Y-86750000D02*
X179975000Y-86750000D01*
X181975000Y-86750000D02*
X183475000Y-86750000D01*
X183475000Y-86750000D02*
X183475000Y-98750000D01*
X183475000Y-98750000D02*
X181975000Y-98750000D01*
X180975000Y-93750000D02*
X180975000Y-93250000D01*
X180975000Y-91750000D02*
X180975000Y-92250000D01*
X180475000Y-93250000D02*
X181475000Y-93250000D01*
X180475000Y-92250000D02*
X181475000Y-92250000D01*
X180375000Y-92950000D02*
X180375000Y-92550000D01*
X180375000Y-92550000D02*
X181575000Y-92550000D01*
X181575000Y-92550000D02*
X181575000Y-92950000D01*
X181575000Y-92950000D02*
X180375000Y-92950000D01*
X180375000Y-112830000D02*
X181575000Y-112830000D01*
X180375000Y-113230000D02*
X180375000Y-112830000D01*
X181575000Y-113230000D02*
X180375000Y-113230000D01*
X181575000Y-112830000D02*
X181575000Y-113230000D01*
X181475000Y-113530000D02*
X180475000Y-113530000D01*
X181475000Y-112530000D02*
X180475000Y-112530000D01*
X180975000Y-114030000D02*
X180975000Y-113530000D01*
X180975000Y-112030000D02*
X180975000Y-112530000D01*
X178475000Y-107030000D02*
X179975000Y-107030000D01*
X178475000Y-119030000D02*
X178475000Y-107030000D01*
X179975000Y-119030000D02*
X178475000Y-119030000D01*
X183475000Y-119030000D02*
X181975000Y-119030000D01*
X183475000Y-107030000D02*
X183475000Y-119030000D01*
X181975000Y-107030000D02*
X183475000Y-107030000D01*
D14*
X116816667Y-116353571D02*
X116792858Y-116377380D01*
X116721429Y-116401190D01*
X116673810Y-116401190D01*
X116602381Y-116377380D01*
X116554762Y-116329761D01*
X116530953Y-116282142D01*
X116507143Y-116186904D01*
X116507143Y-116115476D01*
X116530953Y-116020238D01*
X116554762Y-115972619D01*
X116602381Y-115925000D01*
X116673810Y-115901190D01*
X116721429Y-115901190D01*
X116792858Y-115925000D01*
X116816667Y-115948809D01*
X117245239Y-115901190D02*
X117150001Y-115901190D01*
X117102381Y-115925000D01*
X117078572Y-115948809D01*
X117030953Y-116020238D01*
X117007143Y-116115476D01*
X117007143Y-116305952D01*
X117030953Y-116353571D01*
X117054762Y-116377380D01*
X117102381Y-116401190D01*
X117197620Y-116401190D01*
X117245239Y-116377380D01*
X117269048Y-116353571D01*
X117292858Y-116305952D01*
X117292858Y-116186904D01*
X117269048Y-116139285D01*
X117245239Y-116115476D01*
X117197620Y-116091666D01*
X117102381Y-116091666D01*
X117054762Y-116115476D01*
X117030953Y-116139285D01*
X117007143Y-116186904D01*
D15*
X146464285Y-86205166D02*
X146464285Y-86371833D01*
X146726190Y-86371833D02*
X146226190Y-86371833D01*
X146226190Y-86133738D01*
X146464285Y-85776595D02*
X146488095Y-85705166D01*
X146511904Y-85681357D01*
X146559523Y-85657547D01*
X146630952Y-85657547D01*
X146678571Y-85681357D01*
X146702380Y-85705166D01*
X146726190Y-85752785D01*
X146726190Y-85943261D01*
X146226190Y-85943261D01*
X146226190Y-85776595D01*
X146250000Y-85728976D01*
X146273809Y-85705166D01*
X146321428Y-85681357D01*
X146369047Y-85681357D01*
X146416666Y-85705166D01*
X146440476Y-85728976D01*
X146464285Y-85776595D01*
X146464285Y-85943261D01*
X146726190Y-85181357D02*
X146726190Y-85467071D01*
X146726190Y-85324214D02*
X146226190Y-85324214D01*
X146297619Y-85371833D01*
X146345238Y-85419452D01*
X146369047Y-85467071D01*
D10*
X147518380Y-106976190D02*
X146518380Y-106976190D01*
X147423142Y-105928571D02*
X147470761Y-105976190D01*
X147518380Y-106119047D01*
X147518380Y-106214285D01*
X147470761Y-106357142D01*
X147375523Y-106452380D01*
X147280285Y-106500000D01*
X147089809Y-106547619D01*
X146946952Y-106547619D01*
X146756476Y-106500000D01*
X146661238Y-106452380D01*
X146566000Y-106357142D01*
X146518380Y-106214285D01*
X146518380Y-106119047D01*
X146566000Y-105976190D01*
X146613619Y-105928571D01*
X147518380Y-104976190D02*
X147518380Y-105547619D01*
X147518380Y-105261904D02*
X146518380Y-105261904D01*
X146661238Y-105357142D01*
X146756476Y-105452380D01*
X146804095Y-105547619D01*
X94261904Y-107852380D02*
X94261904Y-106852380D01*
X94642857Y-106852380D01*
X94738095Y-106900000D01*
X94785714Y-106947619D01*
X94833333Y-107042857D01*
X94833333Y-107185714D01*
X94785714Y-107280952D01*
X94738095Y-107328571D01*
X94642857Y-107376190D01*
X94261904Y-107376190D01*
X95785714Y-107852380D02*
X95214285Y-107852380D01*
X95500000Y-107852380D02*
X95500000Y-106852380D01*
X95404761Y-106995238D01*
X95309523Y-107090476D01*
X95214285Y-107138095D01*
X145946904Y-79992380D02*
X145946904Y-78992380D01*
X146327857Y-78992380D01*
X146423095Y-79040000D01*
X146470714Y-79087619D01*
X146518333Y-79182857D01*
X146518333Y-79325714D01*
X146470714Y-79420952D01*
X146423095Y-79468571D01*
X146327857Y-79516190D01*
X145946904Y-79516190D01*
X146899285Y-79087619D02*
X146946904Y-79040000D01*
X147042142Y-78992380D01*
X147280238Y-78992380D01*
X147375476Y-79040000D01*
X147423095Y-79087619D01*
X147470714Y-79182857D01*
X147470714Y-79278095D01*
X147423095Y-79420952D01*
X146851666Y-79992380D01*
X147470714Y-79992380D01*
X195261904Y-98052380D02*
X195261904Y-97052380D01*
X195642857Y-97052380D01*
X195738095Y-97100000D01*
X195785714Y-97147619D01*
X195833333Y-97242857D01*
X195833333Y-97385714D01*
X195785714Y-97480952D01*
X195738095Y-97528571D01*
X195642857Y-97576190D01*
X195261904Y-97576190D01*
X196166666Y-97052380D02*
X196785714Y-97052380D01*
X196452380Y-97433333D01*
X196595238Y-97433333D01*
X196690476Y-97480952D01*
X196738095Y-97528571D01*
X196785714Y-97623809D01*
X196785714Y-97861904D01*
X196738095Y-97957142D01*
X196690476Y-98004761D01*
X196595238Y-98052380D01*
X196309523Y-98052380D01*
X196214285Y-98004761D01*
X196166666Y-97957142D01*
D15*
X142728166Y-90396190D02*
X142561500Y-90158095D01*
X142442452Y-90396190D02*
X142442452Y-89896190D01*
X142632928Y-89896190D01*
X142680547Y-89920000D01*
X142704357Y-89943809D01*
X142728166Y-89991428D01*
X142728166Y-90062857D01*
X142704357Y-90110476D01*
X142680547Y-90134285D01*
X142632928Y-90158095D01*
X142442452Y-90158095D01*
X143204357Y-90396190D02*
X142918642Y-90396190D01*
X143061500Y-90396190D02*
X143061500Y-89896190D01*
X143013880Y-89967619D01*
X142966261Y-90015238D01*
X142918642Y-90039047D01*
X137013166Y-90396190D02*
X136846500Y-90158095D01*
X136727452Y-90396190D02*
X136727452Y-89896190D01*
X136917928Y-89896190D01*
X136965547Y-89920000D01*
X136989357Y-89943809D01*
X137013166Y-89991428D01*
X137013166Y-90062857D01*
X136989357Y-90110476D01*
X136965547Y-90134285D01*
X136917928Y-90158095D01*
X136727452Y-90158095D01*
X137203642Y-89943809D02*
X137227452Y-89920000D01*
X137275071Y-89896190D01*
X137394119Y-89896190D01*
X137441738Y-89920000D01*
X137465547Y-89943809D01*
X137489357Y-89991428D01*
X137489357Y-90039047D01*
X137465547Y-90110476D01*
X137179833Y-90396190D01*
X137489357Y-90396190D01*
X135870166Y-101826190D02*
X135703500Y-101588095D01*
X135584452Y-101826190D02*
X135584452Y-101326190D01*
X135774928Y-101326190D01*
X135822547Y-101350000D01*
X135846357Y-101373809D01*
X135870166Y-101421428D01*
X135870166Y-101492857D01*
X135846357Y-101540476D01*
X135822547Y-101564285D01*
X135774928Y-101588095D01*
X135584452Y-101588095D01*
X136036833Y-101326190D02*
X136346357Y-101326190D01*
X136179690Y-101516666D01*
X136251119Y-101516666D01*
X136298738Y-101540476D01*
X136322547Y-101564285D01*
X136346357Y-101611904D01*
X136346357Y-101730952D01*
X136322547Y-101778571D01*
X136298738Y-101802380D01*
X136251119Y-101826190D01*
X136108261Y-101826190D01*
X136060642Y-101802380D01*
X136036833Y-101778571D01*
X142855166Y-82141190D02*
X142688500Y-81903095D01*
X142569452Y-82141190D02*
X142569452Y-81641190D01*
X142759928Y-81641190D01*
X142807547Y-81665000D01*
X142831357Y-81688809D01*
X142855166Y-81736428D01*
X142855166Y-81807857D01*
X142831357Y-81855476D01*
X142807547Y-81879285D01*
X142759928Y-81903095D01*
X142569452Y-81903095D01*
X143283738Y-81807857D02*
X143283738Y-82141190D01*
X143164690Y-81617380D02*
X143045642Y-81974523D01*
X143355166Y-81974523D01*
X140315166Y-108811190D02*
X140148500Y-108573095D01*
X140029452Y-108811190D02*
X140029452Y-108311190D01*
X140219928Y-108311190D01*
X140267547Y-108335000D01*
X140291357Y-108358809D01*
X140315166Y-108406428D01*
X140315166Y-108477857D01*
X140291357Y-108525476D01*
X140267547Y-108549285D01*
X140219928Y-108573095D01*
X140029452Y-108573095D01*
X140767547Y-108311190D02*
X140529452Y-108311190D01*
X140505642Y-108549285D01*
X140529452Y-108525476D01*
X140577071Y-108501666D01*
X140696119Y-108501666D01*
X140743738Y-108525476D01*
X140767547Y-108549285D01*
X140791357Y-108596904D01*
X140791357Y-108715952D01*
X140767547Y-108763571D01*
X140743738Y-108787380D01*
X140696119Y-108811190D01*
X140577071Y-108811190D01*
X140529452Y-108787380D01*
X140505642Y-108763571D01*
X152980166Y-105001190D02*
X152813500Y-104763095D01*
X152694452Y-105001190D02*
X152694452Y-104501190D01*
X152884928Y-104501190D01*
X152932547Y-104525000D01*
X152956357Y-104548809D01*
X152980166Y-104596428D01*
X152980166Y-104667857D01*
X152956357Y-104715476D01*
X152932547Y-104739285D01*
X152884928Y-104763095D01*
X152694452Y-104763095D01*
X153408738Y-104501190D02*
X153313500Y-104501190D01*
X153265880Y-104525000D01*
X153242071Y-104548809D01*
X153194452Y-104620238D01*
X153170642Y-104715476D01*
X153170642Y-104905952D01*
X153194452Y-104953571D01*
X153218261Y-104977380D01*
X153265880Y-105001190D01*
X153361119Y-105001190D01*
X153408738Y-104977380D01*
X153432547Y-104953571D01*
X153456357Y-104905952D01*
X153456357Y-104786904D01*
X153432547Y-104739285D01*
X153408738Y-104715476D01*
X153361119Y-104691666D01*
X153265880Y-104691666D01*
X153218261Y-104715476D01*
X153194452Y-104739285D01*
X153170642Y-104786904D01*
X152980166Y-101826190D02*
X152813500Y-101588095D01*
X152694452Y-101826190D02*
X152694452Y-101326190D01*
X152884928Y-101326190D01*
X152932547Y-101350000D01*
X152956357Y-101373809D01*
X152980166Y-101421428D01*
X152980166Y-101492857D01*
X152956357Y-101540476D01*
X152932547Y-101564285D01*
X152884928Y-101588095D01*
X152694452Y-101588095D01*
X153146833Y-101326190D02*
X153480166Y-101326190D01*
X153265880Y-101826190D01*
D10*
X110196380Y-102753904D02*
X110196380Y-102182476D01*
X111196380Y-102468190D02*
X110196380Y-102468190D01*
X111196380Y-101325333D02*
X111196380Y-101896761D01*
X111196380Y-101611047D02*
X110196380Y-101611047D01*
X110339238Y-101706285D01*
X110434476Y-101801523D01*
X110482095Y-101896761D01*
X103902380Y-93519523D02*
X104902380Y-92852857D01*
X103902380Y-92852857D02*
X104902380Y-93519523D01*
X104902380Y-91948095D02*
X104902380Y-92519523D01*
X104902380Y-92233809D02*
X103902380Y-92233809D01*
X104045238Y-92329047D01*
X104140476Y-92424285D01*
X104188095Y-92519523D01*
X103902380Y-113204523D02*
X104902380Y-112537857D01*
X103902380Y-112537857D02*
X104902380Y-113204523D01*
X103997619Y-112204523D02*
X103950000Y-112156904D01*
X103902380Y-112061666D01*
X103902380Y-111823571D01*
X103950000Y-111728333D01*
X103997619Y-111680714D01*
X104092857Y-111633095D01*
X104188095Y-111633095D01*
X104330952Y-111680714D01*
X104902380Y-112252142D01*
X104902380Y-111633095D01*
X121047380Y-93519523D02*
X122047380Y-92852857D01*
X121047380Y-92852857D02*
X122047380Y-93519523D01*
X121047380Y-92567142D02*
X121047380Y-91948095D01*
X121428333Y-92281428D01*
X121428333Y-92138571D01*
X121475952Y-92043333D01*
X121523571Y-91995714D01*
X121618809Y-91948095D01*
X121856904Y-91948095D01*
X121952142Y-91995714D01*
X121999761Y-92043333D01*
X122047380Y-92138571D01*
X122047380Y-92424285D01*
X121999761Y-92519523D01*
X121952142Y-92567142D01*
X121047380Y-113459523D02*
X122047380Y-112792857D01*
X121047380Y-112792857D02*
X122047380Y-113459523D01*
X121380714Y-111983333D02*
X122047380Y-111983333D01*
X120999761Y-112221428D02*
X121714047Y-112459523D01*
X121714047Y-111840476D01*
D14*
X104056666Y-101113571D02*
X104032857Y-101137380D01*
X103961428Y-101161190D01*
X103913809Y-101161190D01*
X103842380Y-101137380D01*
X103794761Y-101089761D01*
X103770952Y-101042142D01*
X103747142Y-100946904D01*
X103747142Y-100875476D01*
X103770952Y-100780238D01*
X103794761Y-100732619D01*
X103842380Y-100685000D01*
X103913809Y-100661190D01*
X103961428Y-100661190D01*
X104032857Y-100685000D01*
X104056666Y-100708809D01*
X104532857Y-101161190D02*
X104247142Y-101161190D01*
X104390000Y-101161190D02*
X104390000Y-100661190D01*
X104342380Y-100732619D01*
X104294761Y-100780238D01*
X104247142Y-100804047D01*
X185336666Y-101113571D02*
X185312857Y-101137380D01*
X185241428Y-101161190D01*
X185193809Y-101161190D01*
X185122380Y-101137380D01*
X185074761Y-101089761D01*
X185050952Y-101042142D01*
X185027142Y-100946904D01*
X185027142Y-100875476D01*
X185050952Y-100780238D01*
X185074761Y-100732619D01*
X185122380Y-100685000D01*
X185193809Y-100661190D01*
X185241428Y-100661190D01*
X185312857Y-100685000D01*
X185336666Y-100708809D01*
X185527142Y-100708809D02*
X185550952Y-100685000D01*
X185598571Y-100661190D01*
X185717619Y-100661190D01*
X185765238Y-100685000D01*
X185789047Y-100708809D01*
X185812857Y-100756428D01*
X185812857Y-100804047D01*
X185789047Y-100875476D01*
X185503333Y-101161190D01*
X185812857Y-101161190D01*
X116756666Y-86508571D02*
X116732857Y-86532380D01*
X116661428Y-86556190D01*
X116613809Y-86556190D01*
X116542380Y-86532380D01*
X116494761Y-86484761D01*
X116470952Y-86437142D01*
X116447142Y-86341904D01*
X116447142Y-86270476D01*
X116470952Y-86175238D01*
X116494761Y-86127619D01*
X116542380Y-86080000D01*
X116613809Y-86056190D01*
X116661428Y-86056190D01*
X116732857Y-86080000D01*
X116756666Y-86103809D01*
X116923333Y-86056190D02*
X117232857Y-86056190D01*
X117066190Y-86246666D01*
X117137619Y-86246666D01*
X117185238Y-86270476D01*
X117209047Y-86294285D01*
X117232857Y-86341904D01*
X117232857Y-86460952D01*
X117209047Y-86508571D01*
X117185238Y-86532380D01*
X117137619Y-86556190D01*
X116994761Y-86556190D01*
X116947142Y-86532380D01*
X116923333Y-86508571D01*
X116756666Y-83333571D02*
X116732857Y-83357380D01*
X116661428Y-83381190D01*
X116613809Y-83381190D01*
X116542380Y-83357380D01*
X116494761Y-83309761D01*
X116470952Y-83262142D01*
X116447142Y-83166904D01*
X116447142Y-83095476D01*
X116470952Y-83000238D01*
X116494761Y-82952619D01*
X116542380Y-82905000D01*
X116613809Y-82881190D01*
X116661428Y-82881190D01*
X116732857Y-82905000D01*
X116756666Y-82928809D01*
X117185238Y-83047857D02*
X117185238Y-83381190D01*
X117066190Y-82857380D02*
X116947142Y-83214523D01*
X117256666Y-83214523D01*
X116816667Y-119528571D02*
X116792858Y-119552380D01*
X116721429Y-119576190D01*
X116673810Y-119576190D01*
X116602381Y-119552380D01*
X116554762Y-119504761D01*
X116530953Y-119457142D01*
X116507143Y-119361904D01*
X116507143Y-119290476D01*
X116530953Y-119195238D01*
X116554762Y-119147619D01*
X116602381Y-119100000D01*
X116673810Y-119076190D01*
X116721429Y-119076190D01*
X116792858Y-119100000D01*
X116816667Y-119123809D01*
X117269048Y-119076190D02*
X117030953Y-119076190D01*
X117007143Y-119314285D01*
X117030953Y-119290476D01*
X117078572Y-119266666D01*
X117197620Y-119266666D01*
X117245239Y-119290476D01*
X117269048Y-119314285D01*
X117292858Y-119361904D01*
X117292858Y-119480952D01*
X117269048Y-119528571D01*
X117245239Y-119552380D01*
X117197620Y-119576190D01*
X117078572Y-119576190D01*
X117030953Y-119552380D01*
X117007143Y-119528571D01*
X137076666Y-82063571D02*
X137052857Y-82087380D01*
X136981428Y-82111190D01*
X136933809Y-82111190D01*
X136862380Y-82087380D01*
X136814761Y-82039761D01*
X136790952Y-81992142D01*
X136767142Y-81896904D01*
X136767142Y-81825476D01*
X136790952Y-81730238D01*
X136814761Y-81682619D01*
X136862380Y-81635000D01*
X136933809Y-81611190D01*
X136981428Y-81611190D01*
X137052857Y-81635000D01*
X137076666Y-81658809D01*
X137243333Y-81611190D02*
X137576666Y-81611190D01*
X137362380Y-82111190D01*
X135806666Y-108733571D02*
X135782857Y-108757380D01*
X135711428Y-108781190D01*
X135663809Y-108781190D01*
X135592380Y-108757380D01*
X135544761Y-108709761D01*
X135520952Y-108662142D01*
X135497142Y-108566904D01*
X135497142Y-108495476D01*
X135520952Y-108400238D01*
X135544761Y-108352619D01*
X135592380Y-108305000D01*
X135663809Y-108281190D01*
X135711428Y-108281190D01*
X135782857Y-108305000D01*
X135806666Y-108328809D01*
X136092380Y-108495476D02*
X136044761Y-108471666D01*
X136020952Y-108447857D01*
X135997142Y-108400238D01*
X135997142Y-108376428D01*
X136020952Y-108328809D01*
X136044761Y-108305000D01*
X136092380Y-108281190D01*
X136187619Y-108281190D01*
X136235238Y-108305000D01*
X136259047Y-108328809D01*
X136282857Y-108376428D01*
X136282857Y-108400238D01*
X136259047Y-108447857D01*
X136235238Y-108471666D01*
X136187619Y-108495476D01*
X136092380Y-108495476D01*
X136044761Y-108519285D01*
X136020952Y-108543095D01*
X135997142Y-108590714D01*
X135997142Y-108685952D01*
X136020952Y-108733571D01*
X136044761Y-108757380D01*
X136092380Y-108781190D01*
X136187619Y-108781190D01*
X136235238Y-108757380D01*
X136259047Y-108733571D01*
X136282857Y-108685952D01*
X136282857Y-108590714D01*
X136259047Y-108543095D01*
X136235238Y-108519285D01*
X136187619Y-108495476D01*
X152951666Y-108733571D02*
X152927857Y-108757380D01*
X152856428Y-108781190D01*
X152808809Y-108781190D01*
X152737380Y-108757380D01*
X152689761Y-108709761D01*
X152665952Y-108662142D01*
X152642142Y-108566904D01*
X152642142Y-108495476D01*
X152665952Y-108400238D01*
X152689761Y-108352619D01*
X152737380Y-108305000D01*
X152808809Y-108281190D01*
X152856428Y-108281190D01*
X152927857Y-108305000D01*
X152951666Y-108328809D01*
X153189761Y-108781190D02*
X153285000Y-108781190D01*
X153332619Y-108757380D01*
X153356428Y-108733571D01*
X153404047Y-108662142D01*
X153427857Y-108566904D01*
X153427857Y-108376428D01*
X153404047Y-108328809D01*
X153380238Y-108305000D01*
X153332619Y-108281190D01*
X153237380Y-108281190D01*
X153189761Y-108305000D01*
X153165952Y-108328809D01*
X153142142Y-108376428D01*
X153142142Y-108495476D01*
X153165952Y-108543095D01*
X153189761Y-108566904D01*
X153237380Y-108590714D01*
X153332619Y-108590714D01*
X153380238Y-108566904D01*
X153404047Y-108543095D01*
X153427857Y-108495476D01*
X172398571Y-83333571D02*
X172374761Y-83357380D01*
X172303333Y-83381190D01*
X172255714Y-83381190D01*
X172184285Y-83357380D01*
X172136666Y-83309761D01*
X172112857Y-83262142D01*
X172089047Y-83166904D01*
X172089047Y-83095476D01*
X172112857Y-83000238D01*
X172136666Y-82952619D01*
X172184285Y-82905000D01*
X172255714Y-82881190D01*
X172303333Y-82881190D01*
X172374761Y-82905000D01*
X172398571Y-82928809D01*
X172874761Y-83381190D02*
X172589047Y-83381190D01*
X172731904Y-83381190D02*
X172731904Y-82881190D01*
X172684285Y-82952619D01*
X172636666Y-83000238D01*
X172589047Y-83024047D01*
X173184285Y-82881190D02*
X173231904Y-82881190D01*
X173279523Y-82905000D01*
X173303333Y-82928809D01*
X173327142Y-82976428D01*
X173350952Y-83071666D01*
X173350952Y-83190714D01*
X173327142Y-83285952D01*
X173303333Y-83333571D01*
X173279523Y-83357380D01*
X173231904Y-83381190D01*
X173184285Y-83381190D01*
X173136666Y-83357380D01*
X173112857Y-83333571D01*
X173089047Y-83285952D01*
X173065238Y-83190714D01*
X173065238Y-83071666D01*
X173089047Y-82976428D01*
X173112857Y-82928809D01*
X173136666Y-82905000D01*
X173184285Y-82881190D01*
X172398571Y-86508571D02*
X172374761Y-86532380D01*
X172303333Y-86556190D01*
X172255714Y-86556190D01*
X172184285Y-86532380D01*
X172136666Y-86484761D01*
X172112857Y-86437142D01*
X172089047Y-86341904D01*
X172089047Y-86270476D01*
X172112857Y-86175238D01*
X172136666Y-86127619D01*
X172184285Y-86080000D01*
X172255714Y-86056190D01*
X172303333Y-86056190D01*
X172374761Y-86080000D01*
X172398571Y-86103809D01*
X172874761Y-86556190D02*
X172589047Y-86556190D01*
X172731904Y-86556190D02*
X172731904Y-86056190D01*
X172684285Y-86127619D01*
X172636666Y-86175238D01*
X172589047Y-86199047D01*
X173350952Y-86556190D02*
X173065238Y-86556190D01*
X173208095Y-86556190D02*
X173208095Y-86056190D01*
X173160476Y-86127619D01*
X173112857Y-86175238D01*
X173065238Y-86199047D01*
X172398571Y-116988571D02*
X172374761Y-117012380D01*
X172303333Y-117036190D01*
X172255714Y-117036190D01*
X172184285Y-117012380D01*
X172136666Y-116964761D01*
X172112857Y-116917142D01*
X172089047Y-116821904D01*
X172089047Y-116750476D01*
X172112857Y-116655238D01*
X172136666Y-116607619D01*
X172184285Y-116560000D01*
X172255714Y-116536190D01*
X172303333Y-116536190D01*
X172374761Y-116560000D01*
X172398571Y-116583809D01*
X172874761Y-117036190D02*
X172589047Y-117036190D01*
X172731904Y-117036190D02*
X172731904Y-116536190D01*
X172684285Y-116607619D01*
X172636666Y-116655238D01*
X172589047Y-116679047D01*
X173065238Y-116583809D02*
X173089047Y-116560000D01*
X173136666Y-116536190D01*
X173255714Y-116536190D01*
X173303333Y-116560000D01*
X173327142Y-116583809D01*
X173350952Y-116631428D01*
X173350952Y-116679047D01*
X173327142Y-116750476D01*
X173041428Y-117036190D01*
X173350952Y-117036190D01*
X172398571Y-120163571D02*
X172374761Y-120187380D01*
X172303333Y-120211190D01*
X172255714Y-120211190D01*
X172184285Y-120187380D01*
X172136666Y-120139761D01*
X172112857Y-120092142D01*
X172089047Y-119996904D01*
X172089047Y-119925476D01*
X172112857Y-119830238D01*
X172136666Y-119782619D01*
X172184285Y-119735000D01*
X172255714Y-119711190D01*
X172303333Y-119711190D01*
X172374761Y-119735000D01*
X172398571Y-119758809D01*
X172874761Y-120211190D02*
X172589047Y-120211190D01*
X172731904Y-120211190D02*
X172731904Y-119711190D01*
X172684285Y-119782619D01*
X172636666Y-119830238D01*
X172589047Y-119854047D01*
X173041428Y-119711190D02*
X173350952Y-119711190D01*
X173184285Y-119901666D01*
X173255714Y-119901666D01*
X173303333Y-119925476D01*
X173327142Y-119949285D01*
X173350952Y-119996904D01*
X173350952Y-120115952D01*
X173327142Y-120163571D01*
X173303333Y-120187380D01*
X173255714Y-120211190D01*
X173112857Y-120211190D01*
X173065238Y-120187380D01*
X173041428Y-120163571D01*
D10*
X166076380Y-102488904D02*
X166076380Y-101917476D01*
X167076380Y-102203190D02*
X166076380Y-102203190D01*
X166171619Y-101631761D02*
X166124000Y-101584142D01*
X166076380Y-101488904D01*
X166076380Y-101250809D01*
X166124000Y-101155571D01*
X166171619Y-101107952D01*
X166266857Y-101060333D01*
X166362095Y-101060333D01*
X166504952Y-101107952D01*
X167076380Y-101679380D01*
X167076380Y-101060333D01*
X160452380Y-93559523D02*
X161452380Y-92892857D01*
X160452380Y-92892857D02*
X161452380Y-93559523D01*
X160452380Y-92035714D02*
X160452380Y-92511904D01*
X160928571Y-92559523D01*
X160880952Y-92511904D01*
X160833333Y-92416666D01*
X160833333Y-92178571D01*
X160880952Y-92083333D01*
X160928571Y-92035714D01*
X161023809Y-91988095D01*
X161261904Y-91988095D01*
X161357142Y-92035714D01*
X161404761Y-92083333D01*
X161452380Y-92178571D01*
X161452380Y-92416666D01*
X161404761Y-92511904D01*
X161357142Y-92559523D01*
X160417380Y-113839523D02*
X161417380Y-113172857D01*
X160417380Y-113172857D02*
X161417380Y-113839523D01*
X160417380Y-112363333D02*
X160417380Y-112553809D01*
X160465000Y-112649047D01*
X160512619Y-112696666D01*
X160655476Y-112791904D01*
X160845952Y-112839523D01*
X161226904Y-112839523D01*
X161322142Y-112791904D01*
X161369761Y-112744285D01*
X161417380Y-112649047D01*
X161417380Y-112458571D01*
X161369761Y-112363333D01*
X161322142Y-112315714D01*
X161226904Y-112268095D01*
X160988809Y-112268095D01*
X160893571Y-112315714D01*
X160845952Y-112363333D01*
X160798333Y-112458571D01*
X160798333Y-112649047D01*
X160845952Y-112744285D01*
X160893571Y-112791904D01*
X160988809Y-112839523D01*
X176927380Y-93559523D02*
X177927380Y-92892857D01*
X176927380Y-92892857D02*
X177927380Y-93559523D01*
X176927380Y-92607142D02*
X176927380Y-91940476D01*
X177927380Y-92369047D01*
X176952380Y-113809523D02*
X177952380Y-113142857D01*
X176952380Y-113142857D02*
X177952380Y-113809523D01*
X177380952Y-112619047D02*
X177333333Y-112714285D01*
X177285714Y-112761904D01*
X177190476Y-112809523D01*
X177142857Y-112809523D01*
X177047619Y-112761904D01*
X177000000Y-112714285D01*
X176952380Y-112619047D01*
X176952380Y-112428571D01*
X177000000Y-112333333D01*
X177047619Y-112285714D01*
X177142857Y-112238095D01*
X177190476Y-112238095D01*
X177285714Y-112285714D01*
X177333333Y-112333333D01*
X177380952Y-112428571D01*
X177380952Y-112619047D01*
X177428571Y-112714285D01*
X177476190Y-112761904D01*
X177571428Y-112809523D01*
X177761904Y-112809523D01*
X177857142Y-112761904D01*
X177904761Y-112714285D01*
X177952380Y-112619047D01*
X177952380Y-112428571D01*
X177904761Y-112333333D01*
X177857142Y-112285714D01*
X177761904Y-112238095D01*
X177571428Y-112238095D01*
X177476190Y-112285714D01*
X177428571Y-112333333D01*
X177380952Y-112428571D01*
M02*
