G04 #@! TF.GenerationSoftware,KiCad,Pcbnew,(5.1.0)-1*
G04 #@! TF.CreationDate,2019-08-25T01:23:41+02:00*
G04 #@! TF.ProjectId,Filtre-de-resolution-MSA-200-Hz,46696c74-7265-42d6-9465-2d7265736f6c,1.0*
G04 #@! TF.SameCoordinates,Original*
G04 #@! TF.FileFunction,Copper,L2,Bot*
G04 #@! TF.FilePolarity,Positive*
%FSLAX46Y46*%
G04 Gerber Fmt 4.6, Leading zero omitted, Abs format (unit mm)*
G04 Created by KiCad (PCBNEW (5.1.0)-1) date 2019-08-25 01:23:41*
%MOMM*%
%LPD*%
G04 APERTURE LIST*
%ADD10C,2.250000*%
%ADD11C,1.800000*%
%ADD12R,1.800000X1.800000*%
%ADD13C,1.000000*%
%ADD14C,1.200000*%
%ADD15C,1.100000*%
%ADD16C,1.000000*%
%ADD17C,0.254000*%
G04 APERTURE END LIST*
D10*
X97540000Y-105040000D03*
X92460000Y-105040000D03*
X92460000Y-99960000D03*
X97540000Y-99960000D03*
X95000000Y-102500000D03*
D11*
X145415000Y-77000000D03*
D12*
X147955000Y-77000000D03*
D10*
X193460000Y-99960000D03*
X198540000Y-99960000D03*
X198540000Y-105040000D03*
X193460000Y-105040000D03*
X196000000Y-102500000D03*
D13*
X107950000Y-95150000D03*
X107950000Y-90270000D03*
X107950000Y-109955000D03*
X107950000Y-114835000D03*
X125095000Y-90270000D03*
X125095000Y-95150000D03*
X125095000Y-115090000D03*
X125095000Y-110210000D03*
X164465000Y-90310000D03*
X164465000Y-95190000D03*
X164465000Y-110590000D03*
X164465000Y-115470000D03*
X180975000Y-95190000D03*
X180975000Y-90310000D03*
X180975000Y-115470000D03*
X180975000Y-110590000D03*
D14*
X159004000Y-81788000D03*
X159004000Y-93980000D03*
X159004000Y-89916000D03*
X130556000Y-105156000D03*
X130556000Y-112776000D03*
X130556000Y-89916000D03*
X130556000Y-77216000D03*
X144780000Y-99568000D03*
X159004000Y-112776000D03*
X144780000Y-118364000D03*
X130556000Y-93472000D03*
X130556000Y-128016000D03*
X155448000Y-97028000D03*
X130556000Y-118364000D03*
X149860000Y-97028000D03*
X144780000Y-111760000D03*
X135128000Y-97028000D03*
X159004000Y-118364000D03*
X130556000Y-100584000D03*
X144780000Y-128016000D03*
X130556000Y-123444000D03*
X130556000Y-81788000D03*
X130556000Y-97028000D03*
X159004000Y-128016000D03*
X159004000Y-123444000D03*
X139192000Y-97028000D03*
X159004000Y-104648000D03*
X159004000Y-85852000D03*
X144780000Y-123444000D03*
X159004000Y-101092000D03*
X130556000Y-85852000D03*
X159004000Y-77216000D03*
D15*
X119380000Y-92075000D03*
X133985000Y-83185000D03*
X133985000Y-88900000D03*
X170180000Y-113030000D03*
X175260000Y-91440000D03*
X157480000Y-109855000D03*
X146050000Y-100965000D03*
X143510000Y-100965000D03*
X132080000Y-109855000D03*
X114300000Y-113030000D03*
X144145000Y-92075000D03*
X100965000Y-102235000D03*
X188595000Y-102235000D03*
X147955000Y-92075000D03*
X147955000Y-109855000D03*
D16*
X125095000Y-95150000D02*
X142340000Y-95150000D01*
X142340000Y-95150000D02*
X144145000Y-93345000D01*
X144145000Y-93345000D02*
X144145000Y-92075000D01*
X95000000Y-102500000D02*
X100700000Y-102500000D01*
X100700000Y-102500000D02*
X100965000Y-102235000D01*
X196000000Y-102500000D02*
X193940000Y-102500000D01*
X193675000Y-102235000D02*
X188595000Y-102235000D01*
X193940000Y-102500000D02*
X193675000Y-102235000D01*
X147955000Y-92075000D02*
X147955000Y-109855000D01*
D17*
G36*
X144614208Y-75681739D02*
G01*
X144530525Y-75935920D01*
X145415000Y-76820395D01*
X145429143Y-76806253D01*
X145608748Y-76985858D01*
X145594605Y-77000000D01*
X145608748Y-77014143D01*
X145429143Y-77193748D01*
X145415000Y-77179605D01*
X144530525Y-78064080D01*
X144614208Y-78318261D01*
X144886775Y-78449158D01*
X145179642Y-78524365D01*
X145481553Y-78540991D01*
X145780907Y-78498397D01*
X146066199Y-78398222D01*
X146215792Y-78318261D01*
X146299474Y-78064082D01*
X146415422Y-78180030D01*
X146462187Y-78133265D01*
X146465498Y-78144180D01*
X146524463Y-78254494D01*
X146603815Y-78351185D01*
X146700506Y-78430537D01*
X146810820Y-78489502D01*
X146930518Y-78525812D01*
X147055000Y-78538072D01*
X148855000Y-78538072D01*
X148979482Y-78525812D01*
X149099180Y-78489502D01*
X149209494Y-78430537D01*
X149306185Y-78351185D01*
X149385537Y-78254494D01*
X149444502Y-78144180D01*
X149468289Y-78065764D01*
X158333841Y-78065764D01*
X158381148Y-78289348D01*
X158602516Y-78390237D01*
X158839313Y-78446000D01*
X159082438Y-78454495D01*
X159322549Y-78415395D01*
X159550418Y-78330202D01*
X159626852Y-78289348D01*
X159674159Y-78065764D01*
X159004000Y-77395605D01*
X158333841Y-78065764D01*
X149468289Y-78065764D01*
X149480812Y-78024482D01*
X149493072Y-77900000D01*
X149493072Y-77294438D01*
X157765505Y-77294438D01*
X157804605Y-77534549D01*
X157889798Y-77762418D01*
X157930652Y-77838852D01*
X158154236Y-77886159D01*
X158824395Y-77216000D01*
X159183605Y-77216000D01*
X159853764Y-77886159D01*
X160077348Y-77838852D01*
X160178237Y-77617484D01*
X160234000Y-77380687D01*
X160242495Y-77137562D01*
X160203395Y-76897451D01*
X160118202Y-76669582D01*
X160077348Y-76593148D01*
X159853764Y-76545841D01*
X159183605Y-77216000D01*
X158824395Y-77216000D01*
X158154236Y-76545841D01*
X157930652Y-76593148D01*
X157829763Y-76814516D01*
X157774000Y-77051313D01*
X157765505Y-77294438D01*
X149493072Y-77294438D01*
X149493072Y-76366236D01*
X158333841Y-76366236D01*
X159004000Y-77036395D01*
X159674159Y-76366236D01*
X159626852Y-76142652D01*
X159405484Y-76041763D01*
X159168687Y-75986000D01*
X158925562Y-75977505D01*
X158685451Y-76016605D01*
X158457582Y-76101798D01*
X158381148Y-76142652D01*
X158333841Y-76366236D01*
X149493072Y-76366236D01*
X149493072Y-76100000D01*
X149480812Y-75975518D01*
X149444502Y-75855820D01*
X149385537Y-75745506D01*
X149315364Y-75660000D01*
X200340001Y-75660000D01*
X200340000Y-129340000D01*
X90660000Y-129340000D01*
X90660000Y-128865764D01*
X129885841Y-128865764D01*
X129933148Y-129089348D01*
X130154516Y-129190237D01*
X130391313Y-129246000D01*
X130634438Y-129254495D01*
X130874549Y-129215395D01*
X131102418Y-129130202D01*
X131178852Y-129089348D01*
X131226159Y-128865764D01*
X144109841Y-128865764D01*
X144157148Y-129089348D01*
X144378516Y-129190237D01*
X144615313Y-129246000D01*
X144858438Y-129254495D01*
X145098549Y-129215395D01*
X145326418Y-129130202D01*
X145402852Y-129089348D01*
X145450159Y-128865764D01*
X158333841Y-128865764D01*
X158381148Y-129089348D01*
X158602516Y-129190237D01*
X158839313Y-129246000D01*
X159082438Y-129254495D01*
X159322549Y-129215395D01*
X159550418Y-129130202D01*
X159626852Y-129089348D01*
X159674159Y-128865764D01*
X159004000Y-128195605D01*
X158333841Y-128865764D01*
X145450159Y-128865764D01*
X144780000Y-128195605D01*
X144109841Y-128865764D01*
X131226159Y-128865764D01*
X130556000Y-128195605D01*
X129885841Y-128865764D01*
X90660000Y-128865764D01*
X90660000Y-128094438D01*
X129317505Y-128094438D01*
X129356605Y-128334549D01*
X129441798Y-128562418D01*
X129482652Y-128638852D01*
X129706236Y-128686159D01*
X130376395Y-128016000D01*
X130735605Y-128016000D01*
X131405764Y-128686159D01*
X131629348Y-128638852D01*
X131730237Y-128417484D01*
X131786000Y-128180687D01*
X131789013Y-128094438D01*
X143541505Y-128094438D01*
X143580605Y-128334549D01*
X143665798Y-128562418D01*
X143706652Y-128638852D01*
X143930236Y-128686159D01*
X144600395Y-128016000D01*
X144959605Y-128016000D01*
X145629764Y-128686159D01*
X145853348Y-128638852D01*
X145954237Y-128417484D01*
X146010000Y-128180687D01*
X146013013Y-128094438D01*
X157765505Y-128094438D01*
X157804605Y-128334549D01*
X157889798Y-128562418D01*
X157930652Y-128638852D01*
X158154236Y-128686159D01*
X158824395Y-128016000D01*
X159183605Y-128016000D01*
X159853764Y-128686159D01*
X160077348Y-128638852D01*
X160178237Y-128417484D01*
X160234000Y-128180687D01*
X160242495Y-127937562D01*
X160203395Y-127697451D01*
X160118202Y-127469582D01*
X160077348Y-127393148D01*
X159853764Y-127345841D01*
X159183605Y-128016000D01*
X158824395Y-128016000D01*
X158154236Y-127345841D01*
X157930652Y-127393148D01*
X157829763Y-127614516D01*
X157774000Y-127851313D01*
X157765505Y-128094438D01*
X146013013Y-128094438D01*
X146018495Y-127937562D01*
X145979395Y-127697451D01*
X145894202Y-127469582D01*
X145853348Y-127393148D01*
X145629764Y-127345841D01*
X144959605Y-128016000D01*
X144600395Y-128016000D01*
X143930236Y-127345841D01*
X143706652Y-127393148D01*
X143605763Y-127614516D01*
X143550000Y-127851313D01*
X143541505Y-128094438D01*
X131789013Y-128094438D01*
X131794495Y-127937562D01*
X131755395Y-127697451D01*
X131670202Y-127469582D01*
X131629348Y-127393148D01*
X131405764Y-127345841D01*
X130735605Y-128016000D01*
X130376395Y-128016000D01*
X129706236Y-127345841D01*
X129482652Y-127393148D01*
X129381763Y-127614516D01*
X129326000Y-127851313D01*
X129317505Y-128094438D01*
X90660000Y-128094438D01*
X90660000Y-127166236D01*
X129885841Y-127166236D01*
X130556000Y-127836395D01*
X131226159Y-127166236D01*
X144109841Y-127166236D01*
X144780000Y-127836395D01*
X145450159Y-127166236D01*
X158333841Y-127166236D01*
X159004000Y-127836395D01*
X159674159Y-127166236D01*
X159626852Y-126942652D01*
X159405484Y-126841763D01*
X159168687Y-126786000D01*
X158925562Y-126777505D01*
X158685451Y-126816605D01*
X158457582Y-126901798D01*
X158381148Y-126942652D01*
X158333841Y-127166236D01*
X145450159Y-127166236D01*
X145402852Y-126942652D01*
X145181484Y-126841763D01*
X144944687Y-126786000D01*
X144701562Y-126777505D01*
X144461451Y-126816605D01*
X144233582Y-126901798D01*
X144157148Y-126942652D01*
X144109841Y-127166236D01*
X131226159Y-127166236D01*
X131178852Y-126942652D01*
X130957484Y-126841763D01*
X130720687Y-126786000D01*
X130477562Y-126777505D01*
X130237451Y-126816605D01*
X130009582Y-126901798D01*
X129933148Y-126942652D01*
X129885841Y-127166236D01*
X90660000Y-127166236D01*
X90660000Y-124293764D01*
X129885841Y-124293764D01*
X129933148Y-124517348D01*
X130154516Y-124618237D01*
X130391313Y-124674000D01*
X130634438Y-124682495D01*
X130874549Y-124643395D01*
X131102418Y-124558202D01*
X131178852Y-124517348D01*
X131226159Y-124293764D01*
X144109841Y-124293764D01*
X144157148Y-124517348D01*
X144378516Y-124618237D01*
X144615313Y-124674000D01*
X144858438Y-124682495D01*
X145098549Y-124643395D01*
X145326418Y-124558202D01*
X145402852Y-124517348D01*
X145450159Y-124293764D01*
X158333841Y-124293764D01*
X158381148Y-124517348D01*
X158602516Y-124618237D01*
X158839313Y-124674000D01*
X159082438Y-124682495D01*
X159322549Y-124643395D01*
X159550418Y-124558202D01*
X159626852Y-124517348D01*
X159674159Y-124293764D01*
X159004000Y-123623605D01*
X158333841Y-124293764D01*
X145450159Y-124293764D01*
X144780000Y-123623605D01*
X144109841Y-124293764D01*
X131226159Y-124293764D01*
X130556000Y-123623605D01*
X129885841Y-124293764D01*
X90660000Y-124293764D01*
X90660000Y-123522438D01*
X129317505Y-123522438D01*
X129356605Y-123762549D01*
X129441798Y-123990418D01*
X129482652Y-124066852D01*
X129706236Y-124114159D01*
X130376395Y-123444000D01*
X130735605Y-123444000D01*
X131405764Y-124114159D01*
X131629348Y-124066852D01*
X131730237Y-123845484D01*
X131786000Y-123608687D01*
X131789013Y-123522438D01*
X143541505Y-123522438D01*
X143580605Y-123762549D01*
X143665798Y-123990418D01*
X143706652Y-124066852D01*
X143930236Y-124114159D01*
X144600395Y-123444000D01*
X144959605Y-123444000D01*
X145629764Y-124114159D01*
X145853348Y-124066852D01*
X145954237Y-123845484D01*
X146010000Y-123608687D01*
X146013013Y-123522438D01*
X157765505Y-123522438D01*
X157804605Y-123762549D01*
X157889798Y-123990418D01*
X157930652Y-124066852D01*
X158154236Y-124114159D01*
X158824395Y-123444000D01*
X159183605Y-123444000D01*
X159853764Y-124114159D01*
X160077348Y-124066852D01*
X160178237Y-123845484D01*
X160234000Y-123608687D01*
X160242495Y-123365562D01*
X160203395Y-123125451D01*
X160118202Y-122897582D01*
X160077348Y-122821148D01*
X159853764Y-122773841D01*
X159183605Y-123444000D01*
X158824395Y-123444000D01*
X158154236Y-122773841D01*
X157930652Y-122821148D01*
X157829763Y-123042516D01*
X157774000Y-123279313D01*
X157765505Y-123522438D01*
X146013013Y-123522438D01*
X146018495Y-123365562D01*
X145979395Y-123125451D01*
X145894202Y-122897582D01*
X145853348Y-122821148D01*
X145629764Y-122773841D01*
X144959605Y-123444000D01*
X144600395Y-123444000D01*
X143930236Y-122773841D01*
X143706652Y-122821148D01*
X143605763Y-123042516D01*
X143550000Y-123279313D01*
X143541505Y-123522438D01*
X131789013Y-123522438D01*
X131794495Y-123365562D01*
X131755395Y-123125451D01*
X131670202Y-122897582D01*
X131629348Y-122821148D01*
X131405764Y-122773841D01*
X130735605Y-123444000D01*
X130376395Y-123444000D01*
X129706236Y-122773841D01*
X129482652Y-122821148D01*
X129381763Y-123042516D01*
X129326000Y-123279313D01*
X129317505Y-123522438D01*
X90660000Y-123522438D01*
X90660000Y-122594236D01*
X129885841Y-122594236D01*
X130556000Y-123264395D01*
X131226159Y-122594236D01*
X144109841Y-122594236D01*
X144780000Y-123264395D01*
X145450159Y-122594236D01*
X158333841Y-122594236D01*
X159004000Y-123264395D01*
X159674159Y-122594236D01*
X159626852Y-122370652D01*
X159405484Y-122269763D01*
X159168687Y-122214000D01*
X158925562Y-122205505D01*
X158685451Y-122244605D01*
X158457582Y-122329798D01*
X158381148Y-122370652D01*
X158333841Y-122594236D01*
X145450159Y-122594236D01*
X145402852Y-122370652D01*
X145181484Y-122269763D01*
X144944687Y-122214000D01*
X144701562Y-122205505D01*
X144461451Y-122244605D01*
X144233582Y-122329798D01*
X144157148Y-122370652D01*
X144109841Y-122594236D01*
X131226159Y-122594236D01*
X131178852Y-122370652D01*
X130957484Y-122269763D01*
X130720687Y-122214000D01*
X130477562Y-122205505D01*
X130237451Y-122244605D01*
X130009582Y-122329798D01*
X129933148Y-122370652D01*
X129885841Y-122594236D01*
X90660000Y-122594236D01*
X90660000Y-119213764D01*
X129885841Y-119213764D01*
X129933148Y-119437348D01*
X130154516Y-119538237D01*
X130391313Y-119594000D01*
X130634438Y-119602495D01*
X130874549Y-119563395D01*
X131102418Y-119478202D01*
X131178852Y-119437348D01*
X131226159Y-119213764D01*
X144109841Y-119213764D01*
X144157148Y-119437348D01*
X144378516Y-119538237D01*
X144615313Y-119594000D01*
X144858438Y-119602495D01*
X145098549Y-119563395D01*
X145326418Y-119478202D01*
X145402852Y-119437348D01*
X145450159Y-119213764D01*
X158333841Y-119213764D01*
X158381148Y-119437348D01*
X158602516Y-119538237D01*
X158839313Y-119594000D01*
X159082438Y-119602495D01*
X159322549Y-119563395D01*
X159550418Y-119478202D01*
X159626852Y-119437348D01*
X159674159Y-119213764D01*
X159004000Y-118543605D01*
X158333841Y-119213764D01*
X145450159Y-119213764D01*
X144780000Y-118543605D01*
X144109841Y-119213764D01*
X131226159Y-119213764D01*
X130556000Y-118543605D01*
X129885841Y-119213764D01*
X90660000Y-119213764D01*
X90660000Y-118442438D01*
X129317505Y-118442438D01*
X129356605Y-118682549D01*
X129441798Y-118910418D01*
X129482652Y-118986852D01*
X129706236Y-119034159D01*
X130376395Y-118364000D01*
X130735605Y-118364000D01*
X131405764Y-119034159D01*
X131629348Y-118986852D01*
X131730237Y-118765484D01*
X131786000Y-118528687D01*
X131789013Y-118442438D01*
X143541505Y-118442438D01*
X143580605Y-118682549D01*
X143665798Y-118910418D01*
X143706652Y-118986852D01*
X143930236Y-119034159D01*
X144600395Y-118364000D01*
X144959605Y-118364000D01*
X145629764Y-119034159D01*
X145853348Y-118986852D01*
X145954237Y-118765484D01*
X146010000Y-118528687D01*
X146013013Y-118442438D01*
X157765505Y-118442438D01*
X157804605Y-118682549D01*
X157889798Y-118910418D01*
X157930652Y-118986852D01*
X158154236Y-119034159D01*
X158824395Y-118364000D01*
X159183605Y-118364000D01*
X159853764Y-119034159D01*
X160077348Y-118986852D01*
X160178237Y-118765484D01*
X160234000Y-118528687D01*
X160242495Y-118285562D01*
X160203395Y-118045451D01*
X160118202Y-117817582D01*
X160077348Y-117741148D01*
X159853764Y-117693841D01*
X159183605Y-118364000D01*
X158824395Y-118364000D01*
X158154236Y-117693841D01*
X157930652Y-117741148D01*
X157829763Y-117962516D01*
X157774000Y-118199313D01*
X157765505Y-118442438D01*
X146013013Y-118442438D01*
X146018495Y-118285562D01*
X145979395Y-118045451D01*
X145894202Y-117817582D01*
X145853348Y-117741148D01*
X145629764Y-117693841D01*
X144959605Y-118364000D01*
X144600395Y-118364000D01*
X143930236Y-117693841D01*
X143706652Y-117741148D01*
X143605763Y-117962516D01*
X143550000Y-118199313D01*
X143541505Y-118442438D01*
X131789013Y-118442438D01*
X131794495Y-118285562D01*
X131755395Y-118045451D01*
X131670202Y-117817582D01*
X131629348Y-117741148D01*
X131405764Y-117693841D01*
X130735605Y-118364000D01*
X130376395Y-118364000D01*
X129706236Y-117693841D01*
X129482652Y-117741148D01*
X129381763Y-117962516D01*
X129326000Y-118199313D01*
X129317505Y-118442438D01*
X90660000Y-118442438D01*
X90660000Y-117514236D01*
X129885841Y-117514236D01*
X130556000Y-118184395D01*
X131226159Y-117514236D01*
X144109841Y-117514236D01*
X144780000Y-118184395D01*
X145450159Y-117514236D01*
X158333841Y-117514236D01*
X159004000Y-118184395D01*
X159674159Y-117514236D01*
X159626852Y-117290652D01*
X159405484Y-117189763D01*
X159168687Y-117134000D01*
X158925562Y-117125505D01*
X158685451Y-117164605D01*
X158457582Y-117249798D01*
X158381148Y-117290652D01*
X158333841Y-117514236D01*
X145450159Y-117514236D01*
X145402852Y-117290652D01*
X145181484Y-117189763D01*
X144944687Y-117134000D01*
X144701562Y-117125505D01*
X144461451Y-117164605D01*
X144233582Y-117249798D01*
X144157148Y-117290652D01*
X144109841Y-117514236D01*
X131226159Y-117514236D01*
X131178852Y-117290652D01*
X130957484Y-117189763D01*
X130720687Y-117134000D01*
X130477562Y-117125505D01*
X130237451Y-117164605D01*
X130009582Y-117249798D01*
X129933148Y-117290652D01*
X129885841Y-117514236D01*
X90660000Y-117514236D01*
X90660000Y-114723212D01*
X106815000Y-114723212D01*
X106815000Y-114946788D01*
X106858617Y-115166067D01*
X106944176Y-115372624D01*
X107068388Y-115558520D01*
X107226480Y-115716612D01*
X107412376Y-115840824D01*
X107618933Y-115926383D01*
X107838212Y-115970000D01*
X108061788Y-115970000D01*
X108281067Y-115926383D01*
X108487624Y-115840824D01*
X108673520Y-115716612D01*
X108831612Y-115558520D01*
X108955824Y-115372624D01*
X109041383Y-115166067D01*
X109078749Y-114978212D01*
X123960000Y-114978212D01*
X123960000Y-115201788D01*
X124003617Y-115421067D01*
X124089176Y-115627624D01*
X124213388Y-115813520D01*
X124371480Y-115971612D01*
X124557376Y-116095824D01*
X124763933Y-116181383D01*
X124983212Y-116225000D01*
X125206788Y-116225000D01*
X125426067Y-116181383D01*
X125632624Y-116095824D01*
X125818520Y-115971612D01*
X125976612Y-115813520D01*
X126100824Y-115627624D01*
X126186383Y-115421067D01*
X126198885Y-115358212D01*
X163330000Y-115358212D01*
X163330000Y-115581788D01*
X163373617Y-115801067D01*
X163459176Y-116007624D01*
X163583388Y-116193520D01*
X163741480Y-116351612D01*
X163927376Y-116475824D01*
X164133933Y-116561383D01*
X164353212Y-116605000D01*
X164576788Y-116605000D01*
X164796067Y-116561383D01*
X165002624Y-116475824D01*
X165188520Y-116351612D01*
X165346612Y-116193520D01*
X165470824Y-116007624D01*
X165556383Y-115801067D01*
X165600000Y-115581788D01*
X165600000Y-115358212D01*
X179840000Y-115358212D01*
X179840000Y-115581788D01*
X179883617Y-115801067D01*
X179969176Y-116007624D01*
X180093388Y-116193520D01*
X180251480Y-116351612D01*
X180437376Y-116475824D01*
X180643933Y-116561383D01*
X180863212Y-116605000D01*
X181086788Y-116605000D01*
X181306067Y-116561383D01*
X181512624Y-116475824D01*
X181698520Y-116351612D01*
X181856612Y-116193520D01*
X181980824Y-116007624D01*
X182066383Y-115801067D01*
X182110000Y-115581788D01*
X182110000Y-115358212D01*
X182066383Y-115138933D01*
X181980824Y-114932376D01*
X181856612Y-114746480D01*
X181698520Y-114588388D01*
X181512624Y-114464176D01*
X181306067Y-114378617D01*
X181086788Y-114335000D01*
X180863212Y-114335000D01*
X180643933Y-114378617D01*
X180437376Y-114464176D01*
X180251480Y-114588388D01*
X180093388Y-114746480D01*
X179969176Y-114932376D01*
X179883617Y-115138933D01*
X179840000Y-115358212D01*
X165600000Y-115358212D01*
X165556383Y-115138933D01*
X165470824Y-114932376D01*
X165346612Y-114746480D01*
X165188520Y-114588388D01*
X165002624Y-114464176D01*
X164796067Y-114378617D01*
X164576788Y-114335000D01*
X164353212Y-114335000D01*
X164133933Y-114378617D01*
X163927376Y-114464176D01*
X163741480Y-114588388D01*
X163583388Y-114746480D01*
X163459176Y-114932376D01*
X163373617Y-115138933D01*
X163330000Y-115358212D01*
X126198885Y-115358212D01*
X126230000Y-115201788D01*
X126230000Y-114978212D01*
X126186383Y-114758933D01*
X126100824Y-114552376D01*
X125976612Y-114366480D01*
X125818520Y-114208388D01*
X125632624Y-114084176D01*
X125426067Y-113998617D01*
X125206788Y-113955000D01*
X124983212Y-113955000D01*
X124763933Y-113998617D01*
X124557376Y-114084176D01*
X124371480Y-114208388D01*
X124213388Y-114366480D01*
X124089176Y-114552376D01*
X124003617Y-114758933D01*
X123960000Y-114978212D01*
X109078749Y-114978212D01*
X109085000Y-114946788D01*
X109085000Y-114723212D01*
X109041383Y-114503933D01*
X108955824Y-114297376D01*
X108831612Y-114111480D01*
X108673520Y-113953388D01*
X108487624Y-113829176D01*
X108281067Y-113743617D01*
X108061788Y-113700000D01*
X107838212Y-113700000D01*
X107618933Y-113743617D01*
X107412376Y-113829176D01*
X107226480Y-113953388D01*
X107068388Y-114111480D01*
X106944176Y-114297376D01*
X106858617Y-114503933D01*
X106815000Y-114723212D01*
X90660000Y-114723212D01*
X90660000Y-113625764D01*
X129885841Y-113625764D01*
X129933148Y-113849348D01*
X130154516Y-113950237D01*
X130391313Y-114006000D01*
X130634438Y-114014495D01*
X130874549Y-113975395D01*
X131102418Y-113890202D01*
X131178852Y-113849348D01*
X131226159Y-113625764D01*
X158333841Y-113625764D01*
X158381148Y-113849348D01*
X158602516Y-113950237D01*
X158839313Y-114006000D01*
X159082438Y-114014495D01*
X159322549Y-113975395D01*
X159550418Y-113890202D01*
X159626852Y-113849348D01*
X159674159Y-113625764D01*
X159004000Y-112955605D01*
X158333841Y-113625764D01*
X131226159Y-113625764D01*
X130556000Y-112955605D01*
X129885841Y-113625764D01*
X90660000Y-113625764D01*
X90660000Y-112854438D01*
X129317505Y-112854438D01*
X129356605Y-113094549D01*
X129441798Y-113322418D01*
X129482652Y-113398852D01*
X129706236Y-113446159D01*
X130376395Y-112776000D01*
X130735605Y-112776000D01*
X131405764Y-113446159D01*
X131629348Y-113398852D01*
X131730237Y-113177484D01*
X131786000Y-112940687D01*
X131794495Y-112697562D01*
X131780198Y-112609764D01*
X144109841Y-112609764D01*
X144157148Y-112833348D01*
X144378516Y-112934237D01*
X144615313Y-112990000D01*
X144858438Y-112998495D01*
X145098549Y-112959395D01*
X145326418Y-112874202D01*
X145363394Y-112854438D01*
X157765505Y-112854438D01*
X157804605Y-113094549D01*
X157889798Y-113322418D01*
X157930652Y-113398852D01*
X158154236Y-113446159D01*
X158824395Y-112776000D01*
X159183605Y-112776000D01*
X159853764Y-113446159D01*
X160077348Y-113398852D01*
X160178237Y-113177484D01*
X160234000Y-112940687D01*
X160242495Y-112697562D01*
X160203395Y-112457451D01*
X160118202Y-112229582D01*
X160077348Y-112153148D01*
X159853764Y-112105841D01*
X159183605Y-112776000D01*
X158824395Y-112776000D01*
X158154236Y-112105841D01*
X157930652Y-112153148D01*
X157829763Y-112374516D01*
X157774000Y-112611313D01*
X157765505Y-112854438D01*
X145363394Y-112854438D01*
X145402852Y-112833348D01*
X145450159Y-112609764D01*
X144780000Y-111939605D01*
X144109841Y-112609764D01*
X131780198Y-112609764D01*
X131755395Y-112457451D01*
X131670202Y-112229582D01*
X131629348Y-112153148D01*
X131405764Y-112105841D01*
X130735605Y-112776000D01*
X130376395Y-112776000D01*
X129706236Y-112105841D01*
X129482652Y-112153148D01*
X129381763Y-112374516D01*
X129326000Y-112611313D01*
X129317505Y-112854438D01*
X90660000Y-112854438D01*
X90660000Y-111926236D01*
X129885841Y-111926236D01*
X130556000Y-112596395D01*
X131226159Y-111926236D01*
X131207583Y-111838438D01*
X143541505Y-111838438D01*
X143580605Y-112078549D01*
X143665798Y-112306418D01*
X143706652Y-112382852D01*
X143930236Y-112430159D01*
X144600395Y-111760000D01*
X144959605Y-111760000D01*
X145629764Y-112430159D01*
X145853348Y-112382852D01*
X145954237Y-112161484D01*
X146009635Y-111926236D01*
X158333841Y-111926236D01*
X159004000Y-112596395D01*
X159674159Y-111926236D01*
X159626852Y-111702652D01*
X159405484Y-111601763D01*
X159168687Y-111546000D01*
X158925562Y-111537505D01*
X158685451Y-111576605D01*
X158457582Y-111661798D01*
X158381148Y-111702652D01*
X158333841Y-111926236D01*
X146009635Y-111926236D01*
X146010000Y-111924687D01*
X146018495Y-111681562D01*
X145979395Y-111441451D01*
X145894202Y-111213582D01*
X145853348Y-111137148D01*
X145629764Y-111089841D01*
X144959605Y-111760000D01*
X144600395Y-111760000D01*
X143930236Y-111089841D01*
X143706652Y-111137148D01*
X143605763Y-111358516D01*
X143550000Y-111595313D01*
X143541505Y-111838438D01*
X131207583Y-111838438D01*
X131178852Y-111702652D01*
X130957484Y-111601763D01*
X130720687Y-111546000D01*
X130477562Y-111537505D01*
X130237451Y-111576605D01*
X130009582Y-111661798D01*
X129933148Y-111702652D01*
X129885841Y-111926236D01*
X90660000Y-111926236D01*
X90660000Y-109843212D01*
X106815000Y-109843212D01*
X106815000Y-110066788D01*
X106858617Y-110286067D01*
X106944176Y-110492624D01*
X107068388Y-110678520D01*
X107226480Y-110836612D01*
X107412376Y-110960824D01*
X107618933Y-111046383D01*
X107838212Y-111090000D01*
X108061788Y-111090000D01*
X108281067Y-111046383D01*
X108487624Y-110960824D01*
X108673520Y-110836612D01*
X108831612Y-110678520D01*
X108955824Y-110492624D01*
X109041383Y-110286067D01*
X109078749Y-110098212D01*
X123960000Y-110098212D01*
X123960000Y-110321788D01*
X124003617Y-110541067D01*
X124089176Y-110747624D01*
X124213388Y-110933520D01*
X124371480Y-111091612D01*
X124557376Y-111215824D01*
X124763933Y-111301383D01*
X124983212Y-111345000D01*
X125206788Y-111345000D01*
X125426067Y-111301383D01*
X125632624Y-111215824D01*
X125818520Y-111091612D01*
X125976612Y-110933520D01*
X125992169Y-110910236D01*
X144109841Y-110910236D01*
X144780000Y-111580395D01*
X145450159Y-110910236D01*
X145402852Y-110686652D01*
X145181484Y-110585763D01*
X144944687Y-110530000D01*
X144701562Y-110521505D01*
X144461451Y-110560605D01*
X144233582Y-110645798D01*
X144157148Y-110686652D01*
X144109841Y-110910236D01*
X125992169Y-110910236D01*
X126100824Y-110747624D01*
X126186383Y-110541067D01*
X126230000Y-110321788D01*
X126230000Y-110098212D01*
X126186383Y-109878933D01*
X126100824Y-109672376D01*
X125976612Y-109486480D01*
X125818520Y-109328388D01*
X125632624Y-109204176D01*
X125426067Y-109118617D01*
X125206788Y-109075000D01*
X124983212Y-109075000D01*
X124763933Y-109118617D01*
X124557376Y-109204176D01*
X124371480Y-109328388D01*
X124213388Y-109486480D01*
X124089176Y-109672376D01*
X124003617Y-109878933D01*
X123960000Y-110098212D01*
X109078749Y-110098212D01*
X109085000Y-110066788D01*
X109085000Y-109843212D01*
X109041383Y-109623933D01*
X108955824Y-109417376D01*
X108831612Y-109231480D01*
X108673520Y-109073388D01*
X108487624Y-108949176D01*
X108281067Y-108863617D01*
X108061788Y-108820000D01*
X107838212Y-108820000D01*
X107618933Y-108863617D01*
X107412376Y-108949176D01*
X107226480Y-109073388D01*
X107068388Y-109231480D01*
X106944176Y-109417376D01*
X106858617Y-109623933D01*
X106815000Y-109843212D01*
X90660000Y-109843212D01*
X90660000Y-106264531D01*
X91415074Y-106264531D01*
X91525921Y-106541714D01*
X91836840Y-106695089D01*
X92171705Y-106784860D01*
X92517650Y-106807576D01*
X92861380Y-106762366D01*
X93189685Y-106650966D01*
X93394079Y-106541714D01*
X93504926Y-106264531D01*
X96495074Y-106264531D01*
X96605921Y-106541714D01*
X96916840Y-106695089D01*
X97251705Y-106784860D01*
X97597650Y-106807576D01*
X97941380Y-106762366D01*
X98269685Y-106650966D01*
X98474079Y-106541714D01*
X98584926Y-106264531D01*
X97540000Y-105219605D01*
X96495074Y-106264531D01*
X93504926Y-106264531D01*
X92460000Y-105219605D01*
X91415074Y-106264531D01*
X90660000Y-106264531D01*
X90660000Y-105097650D01*
X90692424Y-105097650D01*
X90737634Y-105441380D01*
X90849034Y-105769685D01*
X90958286Y-105974079D01*
X91235469Y-106084926D01*
X92280395Y-105040000D01*
X92639605Y-105040000D01*
X93684531Y-106084926D01*
X93961714Y-105974079D01*
X94115089Y-105663160D01*
X94204860Y-105328295D01*
X94220004Y-105097650D01*
X95772424Y-105097650D01*
X95817634Y-105441380D01*
X95929034Y-105769685D01*
X96038286Y-105974079D01*
X96315469Y-106084926D01*
X97360395Y-105040000D01*
X97719605Y-105040000D01*
X98764531Y-106084926D01*
X98962482Y-106005764D01*
X129885841Y-106005764D01*
X129933148Y-106229348D01*
X130154516Y-106330237D01*
X130391313Y-106386000D01*
X130634438Y-106394495D01*
X130874549Y-106355395D01*
X131102418Y-106270202D01*
X131178852Y-106229348D01*
X131226159Y-106005764D01*
X130556000Y-105335605D01*
X129885841Y-106005764D01*
X98962482Y-106005764D01*
X99041714Y-105974079D01*
X99195089Y-105663160D01*
X99284860Y-105328295D01*
X99291022Y-105234438D01*
X129317505Y-105234438D01*
X129356605Y-105474549D01*
X129441798Y-105702418D01*
X129482652Y-105778852D01*
X129706236Y-105826159D01*
X130376395Y-105156000D01*
X130735605Y-105156000D01*
X131405764Y-105826159D01*
X131629348Y-105778852D01*
X131730237Y-105557484D01*
X131786000Y-105320687D01*
X131794495Y-105077562D01*
X131755395Y-104837451D01*
X131670202Y-104609582D01*
X131629348Y-104533148D01*
X131405764Y-104485841D01*
X130735605Y-105156000D01*
X130376395Y-105156000D01*
X129706236Y-104485841D01*
X129482652Y-104533148D01*
X129381763Y-104754516D01*
X129326000Y-104991313D01*
X129317505Y-105234438D01*
X99291022Y-105234438D01*
X99307576Y-104982350D01*
X99262366Y-104638620D01*
X99150966Y-104310315D01*
X99148786Y-104306236D01*
X129885841Y-104306236D01*
X130556000Y-104976395D01*
X131226159Y-104306236D01*
X131178852Y-104082652D01*
X130957484Y-103981763D01*
X130720687Y-103926000D01*
X130477562Y-103917505D01*
X130237451Y-103956605D01*
X130009582Y-104041798D01*
X129933148Y-104082652D01*
X129885841Y-104306236D01*
X99148786Y-104306236D01*
X99041714Y-104105921D01*
X98764531Y-103995074D01*
X97719605Y-105040000D01*
X97360395Y-105040000D01*
X96315469Y-103995074D01*
X96038286Y-104105921D01*
X95884911Y-104416840D01*
X95795140Y-104751705D01*
X95772424Y-105097650D01*
X94220004Y-105097650D01*
X94227576Y-104982350D01*
X94182366Y-104638620D01*
X94070966Y-104310315D01*
X93961714Y-104105921D01*
X93684531Y-103995074D01*
X92639605Y-105040000D01*
X92280395Y-105040000D01*
X91235469Y-103995074D01*
X90958286Y-104105921D01*
X90804911Y-104416840D01*
X90715140Y-104751705D01*
X90692424Y-105097650D01*
X90660000Y-105097650D01*
X90660000Y-103815469D01*
X91415074Y-103815469D01*
X92460000Y-104860395D01*
X93504926Y-103815469D01*
X93394079Y-103538286D01*
X93083160Y-103384911D01*
X92748295Y-103295140D01*
X92402350Y-103272424D01*
X92058620Y-103317634D01*
X91730315Y-103429034D01*
X91525921Y-103538286D01*
X91415074Y-103815469D01*
X90660000Y-103815469D01*
X90660000Y-102326655D01*
X93240000Y-102326655D01*
X93240000Y-102673345D01*
X93307636Y-103013373D01*
X93440308Y-103333673D01*
X93632919Y-103621935D01*
X93878065Y-103867081D01*
X94166327Y-104059692D01*
X94486627Y-104192364D01*
X94826655Y-104260000D01*
X95173345Y-104260000D01*
X95513373Y-104192364D01*
X95833673Y-104059692D01*
X96121935Y-103867081D01*
X96354016Y-103635000D01*
X96567245Y-103635000D01*
X96495074Y-103815469D01*
X97540000Y-104860395D01*
X98584926Y-103815469D01*
X98512755Y-103635000D01*
X100644249Y-103635000D01*
X100700000Y-103640491D01*
X100755751Y-103635000D01*
X100755752Y-103635000D01*
X100922499Y-103618577D01*
X101136447Y-103553676D01*
X101333623Y-103448284D01*
X101506449Y-103306449D01*
X101522723Y-103286619D01*
X101526308Y-103285134D01*
X101720394Y-103155450D01*
X101885450Y-102990394D01*
X102015134Y-102796308D01*
X102104461Y-102580652D01*
X102150000Y-102351712D01*
X102150000Y-102118288D01*
X102104461Y-101889348D01*
X102015134Y-101673692D01*
X101885450Y-101479606D01*
X101839608Y-101433764D01*
X129885841Y-101433764D01*
X129933148Y-101657348D01*
X130154516Y-101758237D01*
X130391313Y-101814000D01*
X130634438Y-101822495D01*
X130874549Y-101783395D01*
X131102418Y-101698202D01*
X131178852Y-101657348D01*
X131226159Y-101433764D01*
X130556000Y-100763605D01*
X129885841Y-101433764D01*
X101839608Y-101433764D01*
X101720394Y-101314550D01*
X101526308Y-101184866D01*
X101310652Y-101095539D01*
X101081712Y-101050000D01*
X100848288Y-101050000D01*
X100619348Y-101095539D01*
X100403692Y-101184866D01*
X100209606Y-101314550D01*
X100159156Y-101365000D01*
X98512755Y-101365000D01*
X98584926Y-101184531D01*
X97540000Y-100139605D01*
X96495074Y-101184531D01*
X96567245Y-101365000D01*
X96354016Y-101365000D01*
X96121935Y-101132919D01*
X95833673Y-100940308D01*
X95513373Y-100807636D01*
X95173345Y-100740000D01*
X94826655Y-100740000D01*
X94486627Y-100807636D01*
X94166327Y-100940308D01*
X93878065Y-101132919D01*
X93632919Y-101378065D01*
X93440308Y-101666327D01*
X93307636Y-101986627D01*
X93240000Y-102326655D01*
X90660000Y-102326655D01*
X90660000Y-101184531D01*
X91415074Y-101184531D01*
X91525921Y-101461714D01*
X91836840Y-101615089D01*
X92171705Y-101704860D01*
X92517650Y-101727576D01*
X92861380Y-101682366D01*
X93189685Y-101570966D01*
X93394079Y-101461714D01*
X93504926Y-101184531D01*
X92460000Y-100139605D01*
X91415074Y-101184531D01*
X90660000Y-101184531D01*
X90660000Y-100017650D01*
X90692424Y-100017650D01*
X90737634Y-100361380D01*
X90849034Y-100689685D01*
X90958286Y-100894079D01*
X91235469Y-101004926D01*
X92280395Y-99960000D01*
X92639605Y-99960000D01*
X93684531Y-101004926D01*
X93961714Y-100894079D01*
X94115089Y-100583160D01*
X94204860Y-100248295D01*
X94220004Y-100017650D01*
X95772424Y-100017650D01*
X95817634Y-100361380D01*
X95929034Y-100689685D01*
X96038286Y-100894079D01*
X96315469Y-101004926D01*
X97360395Y-99960000D01*
X97719605Y-99960000D01*
X98764531Y-101004926D01*
X99041714Y-100894079D01*
X99155981Y-100662438D01*
X129317505Y-100662438D01*
X129356605Y-100902549D01*
X129441798Y-101130418D01*
X129482652Y-101206852D01*
X129706236Y-101254159D01*
X130376395Y-100584000D01*
X130735605Y-100584000D01*
X131405764Y-101254159D01*
X131629348Y-101206852D01*
X131730237Y-100985484D01*
X131786000Y-100748687D01*
X131794495Y-100505562D01*
X131780198Y-100417764D01*
X144109841Y-100417764D01*
X144157148Y-100641348D01*
X144378516Y-100742237D01*
X144615313Y-100798000D01*
X144858438Y-100806495D01*
X145098549Y-100767395D01*
X145326418Y-100682202D01*
X145402852Y-100641348D01*
X145450159Y-100417764D01*
X144780000Y-99747605D01*
X144109841Y-100417764D01*
X131780198Y-100417764D01*
X131755395Y-100265451D01*
X131670202Y-100037582D01*
X131629348Y-99961148D01*
X131405764Y-99913841D01*
X130735605Y-100584000D01*
X130376395Y-100584000D01*
X129706236Y-99913841D01*
X129482652Y-99961148D01*
X129381763Y-100182516D01*
X129326000Y-100419313D01*
X129317505Y-100662438D01*
X99155981Y-100662438D01*
X99195089Y-100583160D01*
X99284860Y-100248295D01*
X99307576Y-99902350D01*
X99285465Y-99734236D01*
X129885841Y-99734236D01*
X130556000Y-100404395D01*
X131226159Y-99734236D01*
X131207583Y-99646438D01*
X143541505Y-99646438D01*
X143580605Y-99886549D01*
X143665798Y-100114418D01*
X143706652Y-100190852D01*
X143930236Y-100238159D01*
X144600395Y-99568000D01*
X144959605Y-99568000D01*
X145629764Y-100238159D01*
X145853348Y-100190852D01*
X145954237Y-99969484D01*
X146010000Y-99732687D01*
X146018495Y-99489562D01*
X145979395Y-99249451D01*
X145894202Y-99021582D01*
X145853348Y-98945148D01*
X145629764Y-98897841D01*
X144959605Y-99568000D01*
X144600395Y-99568000D01*
X143930236Y-98897841D01*
X143706652Y-98945148D01*
X143605763Y-99166516D01*
X143550000Y-99403313D01*
X143541505Y-99646438D01*
X131207583Y-99646438D01*
X131178852Y-99510652D01*
X130957484Y-99409763D01*
X130720687Y-99354000D01*
X130477562Y-99345505D01*
X130237451Y-99384605D01*
X130009582Y-99469798D01*
X129933148Y-99510652D01*
X129885841Y-99734236D01*
X99285465Y-99734236D01*
X99262366Y-99558620D01*
X99150966Y-99230315D01*
X99041714Y-99025921D01*
X98764531Y-98915074D01*
X97719605Y-99960000D01*
X97360395Y-99960000D01*
X96315469Y-98915074D01*
X96038286Y-99025921D01*
X95884911Y-99336840D01*
X95795140Y-99671705D01*
X95772424Y-100017650D01*
X94220004Y-100017650D01*
X94227576Y-99902350D01*
X94182366Y-99558620D01*
X94070966Y-99230315D01*
X93961714Y-99025921D01*
X93684531Y-98915074D01*
X92639605Y-99960000D01*
X92280395Y-99960000D01*
X91235469Y-98915074D01*
X90958286Y-99025921D01*
X90804911Y-99336840D01*
X90715140Y-99671705D01*
X90692424Y-100017650D01*
X90660000Y-100017650D01*
X90660000Y-98735469D01*
X91415074Y-98735469D01*
X92460000Y-99780395D01*
X93504926Y-98735469D01*
X96495074Y-98735469D01*
X97540000Y-99780395D01*
X98584926Y-98735469D01*
X98578035Y-98718236D01*
X144109841Y-98718236D01*
X144780000Y-99388395D01*
X145450159Y-98718236D01*
X145402852Y-98494652D01*
X145181484Y-98393763D01*
X144944687Y-98338000D01*
X144701562Y-98329505D01*
X144461451Y-98368605D01*
X144233582Y-98453798D01*
X144157148Y-98494652D01*
X144109841Y-98718236D01*
X98578035Y-98718236D01*
X98474079Y-98458286D01*
X98163160Y-98304911D01*
X97828295Y-98215140D01*
X97482350Y-98192424D01*
X97138620Y-98237634D01*
X96810315Y-98349034D01*
X96605921Y-98458286D01*
X96495074Y-98735469D01*
X93504926Y-98735469D01*
X93394079Y-98458286D01*
X93083160Y-98304911D01*
X92748295Y-98215140D01*
X92402350Y-98192424D01*
X92058620Y-98237634D01*
X91730315Y-98349034D01*
X91525921Y-98458286D01*
X91415074Y-98735469D01*
X90660000Y-98735469D01*
X90660000Y-97877764D01*
X129885841Y-97877764D01*
X129933148Y-98101348D01*
X130154516Y-98202237D01*
X130391313Y-98258000D01*
X130634438Y-98266495D01*
X130874549Y-98227395D01*
X131102418Y-98142202D01*
X131178852Y-98101348D01*
X131226159Y-97877764D01*
X134457841Y-97877764D01*
X134505148Y-98101348D01*
X134726516Y-98202237D01*
X134963313Y-98258000D01*
X135206438Y-98266495D01*
X135446549Y-98227395D01*
X135674418Y-98142202D01*
X135750852Y-98101348D01*
X135798159Y-97877764D01*
X138521841Y-97877764D01*
X138569148Y-98101348D01*
X138790516Y-98202237D01*
X139027313Y-98258000D01*
X139270438Y-98266495D01*
X139510549Y-98227395D01*
X139738418Y-98142202D01*
X139814852Y-98101348D01*
X139862159Y-97877764D01*
X139192000Y-97207605D01*
X138521841Y-97877764D01*
X135798159Y-97877764D01*
X135128000Y-97207605D01*
X134457841Y-97877764D01*
X131226159Y-97877764D01*
X130556000Y-97207605D01*
X129885841Y-97877764D01*
X90660000Y-97877764D01*
X90660000Y-95038212D01*
X106815000Y-95038212D01*
X106815000Y-95261788D01*
X106858617Y-95481067D01*
X106944176Y-95687624D01*
X107068388Y-95873520D01*
X107226480Y-96031612D01*
X107412376Y-96155824D01*
X107618933Y-96241383D01*
X107838212Y-96285000D01*
X108061788Y-96285000D01*
X108281067Y-96241383D01*
X108487624Y-96155824D01*
X108673520Y-96031612D01*
X108831612Y-95873520D01*
X108955824Y-95687624D01*
X109041383Y-95481067D01*
X109085000Y-95261788D01*
X109085000Y-95150000D01*
X123954509Y-95150000D01*
X123960000Y-95205752D01*
X123960000Y-95261788D01*
X123970932Y-95316747D01*
X123976423Y-95372499D01*
X123992685Y-95426106D01*
X124003617Y-95481067D01*
X124025063Y-95532842D01*
X124041324Y-95586447D01*
X124067731Y-95635851D01*
X124089176Y-95687624D01*
X124120307Y-95734214D01*
X124146716Y-95783623D01*
X124182259Y-95826932D01*
X124213388Y-95873520D01*
X124253009Y-95913141D01*
X124288551Y-95956449D01*
X124331859Y-95991991D01*
X124371480Y-96031612D01*
X124418068Y-96062741D01*
X124461377Y-96098284D01*
X124510786Y-96124693D01*
X124557376Y-96155824D01*
X124609149Y-96177269D01*
X124658553Y-96203676D01*
X124712158Y-96219937D01*
X124763933Y-96241383D01*
X124818894Y-96252315D01*
X124872501Y-96268577D01*
X124928253Y-96274068D01*
X124983212Y-96285000D01*
X129633392Y-96285000D01*
X129706234Y-96357842D01*
X129482652Y-96405148D01*
X129381763Y-96626516D01*
X129326000Y-96863313D01*
X129317505Y-97106438D01*
X129356605Y-97346549D01*
X129441798Y-97574418D01*
X129482652Y-97650852D01*
X129706236Y-97698159D01*
X130376395Y-97028000D01*
X130362253Y-97013858D01*
X130541858Y-96834253D01*
X130556000Y-96848395D01*
X130570143Y-96834253D01*
X130749748Y-97013858D01*
X130735605Y-97028000D01*
X131405764Y-97698159D01*
X131629348Y-97650852D01*
X131730237Y-97429484D01*
X131786000Y-97192687D01*
X131794495Y-96949562D01*
X131755395Y-96709451D01*
X131670202Y-96481582D01*
X131629348Y-96405148D01*
X131405766Y-96357842D01*
X131478608Y-96285000D01*
X134205392Y-96285000D01*
X134278234Y-96357842D01*
X134054652Y-96405148D01*
X133953763Y-96626516D01*
X133898000Y-96863313D01*
X133889505Y-97106438D01*
X133928605Y-97346549D01*
X134013798Y-97574418D01*
X134054652Y-97650852D01*
X134278236Y-97698159D01*
X134948395Y-97028000D01*
X134934253Y-97013858D01*
X135113858Y-96834253D01*
X135128000Y-96848395D01*
X135142143Y-96834253D01*
X135321748Y-97013858D01*
X135307605Y-97028000D01*
X135977764Y-97698159D01*
X136201348Y-97650852D01*
X136302237Y-97429484D01*
X136358000Y-97192687D01*
X136366495Y-96949562D01*
X136327395Y-96709451D01*
X136242202Y-96481582D01*
X136201348Y-96405148D01*
X135977766Y-96357842D01*
X136050608Y-96285000D01*
X138269392Y-96285000D01*
X138342234Y-96357842D01*
X138118652Y-96405148D01*
X138017763Y-96626516D01*
X137962000Y-96863313D01*
X137953505Y-97106438D01*
X137992605Y-97346549D01*
X138077798Y-97574418D01*
X138118652Y-97650852D01*
X138342236Y-97698159D01*
X139012395Y-97028000D01*
X138998253Y-97013858D01*
X139177858Y-96834253D01*
X139192000Y-96848395D01*
X139206143Y-96834253D01*
X139385748Y-97013858D01*
X139371605Y-97028000D01*
X140041764Y-97698159D01*
X140265348Y-97650852D01*
X140366237Y-97429484D01*
X140422000Y-97192687D01*
X140430495Y-96949562D01*
X140391395Y-96709451D01*
X140306202Y-96481582D01*
X140265348Y-96405148D01*
X140041766Y-96357842D01*
X140114608Y-96285000D01*
X142284249Y-96285000D01*
X142340000Y-96290491D01*
X142395751Y-96285000D01*
X142395752Y-96285000D01*
X142562499Y-96268577D01*
X142776447Y-96203676D01*
X142973623Y-96098284D01*
X143146449Y-95956449D01*
X143181996Y-95913135D01*
X144908140Y-94186991D01*
X144951449Y-94151449D01*
X145093284Y-93978623D01*
X145198676Y-93781447D01*
X145263577Y-93567499D01*
X145280000Y-93400752D01*
X145280000Y-93400743D01*
X145285490Y-93345001D01*
X145280000Y-93289259D01*
X145280000Y-92431422D01*
X145284461Y-92420652D01*
X145330000Y-92191712D01*
X145330000Y-91958288D01*
X146770000Y-91958288D01*
X146770000Y-92191712D01*
X146815539Y-92420652D01*
X146820000Y-92431422D01*
X146820001Y-109498576D01*
X146815539Y-109509348D01*
X146770000Y-109738288D01*
X146770000Y-109971712D01*
X146815539Y-110200652D01*
X146904866Y-110416308D01*
X147034550Y-110610394D01*
X147199606Y-110775450D01*
X147393692Y-110905134D01*
X147609348Y-110994461D01*
X147838288Y-111040000D01*
X148071712Y-111040000D01*
X148300652Y-110994461D01*
X148516308Y-110905134D01*
X148710394Y-110775450D01*
X148875450Y-110610394D01*
X148963771Y-110478212D01*
X163330000Y-110478212D01*
X163330000Y-110701788D01*
X163373617Y-110921067D01*
X163459176Y-111127624D01*
X163583388Y-111313520D01*
X163741480Y-111471612D01*
X163927376Y-111595824D01*
X164133933Y-111681383D01*
X164353212Y-111725000D01*
X164576788Y-111725000D01*
X164796067Y-111681383D01*
X165002624Y-111595824D01*
X165188520Y-111471612D01*
X165346612Y-111313520D01*
X165470824Y-111127624D01*
X165556383Y-110921067D01*
X165600000Y-110701788D01*
X165600000Y-110478212D01*
X179840000Y-110478212D01*
X179840000Y-110701788D01*
X179883617Y-110921067D01*
X179969176Y-111127624D01*
X180093388Y-111313520D01*
X180251480Y-111471612D01*
X180437376Y-111595824D01*
X180643933Y-111681383D01*
X180863212Y-111725000D01*
X181086788Y-111725000D01*
X181306067Y-111681383D01*
X181512624Y-111595824D01*
X181698520Y-111471612D01*
X181856612Y-111313520D01*
X181980824Y-111127624D01*
X182066383Y-110921067D01*
X182110000Y-110701788D01*
X182110000Y-110478212D01*
X182066383Y-110258933D01*
X181980824Y-110052376D01*
X181856612Y-109866480D01*
X181698520Y-109708388D01*
X181512624Y-109584176D01*
X181306067Y-109498617D01*
X181086788Y-109455000D01*
X180863212Y-109455000D01*
X180643933Y-109498617D01*
X180437376Y-109584176D01*
X180251480Y-109708388D01*
X180093388Y-109866480D01*
X179969176Y-110052376D01*
X179883617Y-110258933D01*
X179840000Y-110478212D01*
X165600000Y-110478212D01*
X165556383Y-110258933D01*
X165470824Y-110052376D01*
X165346612Y-109866480D01*
X165188520Y-109708388D01*
X165002624Y-109584176D01*
X164796067Y-109498617D01*
X164576788Y-109455000D01*
X164353212Y-109455000D01*
X164133933Y-109498617D01*
X163927376Y-109584176D01*
X163741480Y-109708388D01*
X163583388Y-109866480D01*
X163459176Y-110052376D01*
X163373617Y-110258933D01*
X163330000Y-110478212D01*
X148963771Y-110478212D01*
X149005134Y-110416308D01*
X149094461Y-110200652D01*
X149140000Y-109971712D01*
X149140000Y-109738288D01*
X149094461Y-109509348D01*
X149090000Y-109498578D01*
X149090000Y-106264531D01*
X192415074Y-106264531D01*
X192525921Y-106541714D01*
X192836840Y-106695089D01*
X193171705Y-106784860D01*
X193517650Y-106807576D01*
X193861380Y-106762366D01*
X194189685Y-106650966D01*
X194394079Y-106541714D01*
X194504926Y-106264531D01*
X197495074Y-106264531D01*
X197605921Y-106541714D01*
X197916840Y-106695089D01*
X198251705Y-106784860D01*
X198597650Y-106807576D01*
X198941380Y-106762366D01*
X199269685Y-106650966D01*
X199474079Y-106541714D01*
X199584926Y-106264531D01*
X198540000Y-105219605D01*
X197495074Y-106264531D01*
X194504926Y-106264531D01*
X193460000Y-105219605D01*
X192415074Y-106264531D01*
X149090000Y-106264531D01*
X149090000Y-105497764D01*
X158333841Y-105497764D01*
X158381148Y-105721348D01*
X158602516Y-105822237D01*
X158839313Y-105878000D01*
X159082438Y-105886495D01*
X159322549Y-105847395D01*
X159550418Y-105762202D01*
X159626852Y-105721348D01*
X159674159Y-105497764D01*
X159004000Y-104827605D01*
X158333841Y-105497764D01*
X149090000Y-105497764D01*
X149090000Y-104726438D01*
X157765505Y-104726438D01*
X157804605Y-104966549D01*
X157889798Y-105194418D01*
X157930652Y-105270852D01*
X158154236Y-105318159D01*
X158824395Y-104648000D01*
X159183605Y-104648000D01*
X159853764Y-105318159D01*
X160077348Y-105270852D01*
X160156285Y-105097650D01*
X191692424Y-105097650D01*
X191737634Y-105441380D01*
X191849034Y-105769685D01*
X191958286Y-105974079D01*
X192235469Y-106084926D01*
X193280395Y-105040000D01*
X193639605Y-105040000D01*
X194684531Y-106084926D01*
X194961714Y-105974079D01*
X195115089Y-105663160D01*
X195204860Y-105328295D01*
X195220004Y-105097650D01*
X196772424Y-105097650D01*
X196817634Y-105441380D01*
X196929034Y-105769685D01*
X197038286Y-105974079D01*
X197315469Y-106084926D01*
X198360395Y-105040000D01*
X198719605Y-105040000D01*
X199764531Y-106084926D01*
X200041714Y-105974079D01*
X200195089Y-105663160D01*
X200284860Y-105328295D01*
X200307576Y-104982350D01*
X200262366Y-104638620D01*
X200150966Y-104310315D01*
X200041714Y-104105921D01*
X199764531Y-103995074D01*
X198719605Y-105040000D01*
X198360395Y-105040000D01*
X197315469Y-103995074D01*
X197038286Y-104105921D01*
X196884911Y-104416840D01*
X196795140Y-104751705D01*
X196772424Y-105097650D01*
X195220004Y-105097650D01*
X195227576Y-104982350D01*
X195182366Y-104638620D01*
X195070966Y-104310315D01*
X194961714Y-104105921D01*
X194684531Y-103995074D01*
X193639605Y-105040000D01*
X193280395Y-105040000D01*
X192235469Y-103995074D01*
X191958286Y-104105921D01*
X191804911Y-104416840D01*
X191715140Y-104751705D01*
X191692424Y-105097650D01*
X160156285Y-105097650D01*
X160178237Y-105049484D01*
X160234000Y-104812687D01*
X160242495Y-104569562D01*
X160203395Y-104329451D01*
X160118202Y-104101582D01*
X160077348Y-104025148D01*
X159853764Y-103977841D01*
X159183605Y-104648000D01*
X158824395Y-104648000D01*
X158154236Y-103977841D01*
X157930652Y-104025148D01*
X157829763Y-104246516D01*
X157774000Y-104483313D01*
X157765505Y-104726438D01*
X149090000Y-104726438D01*
X149090000Y-103798236D01*
X158333841Y-103798236D01*
X159004000Y-104468395D01*
X159674159Y-103798236D01*
X159626852Y-103574652D01*
X159405484Y-103473763D01*
X159168687Y-103418000D01*
X158925562Y-103409505D01*
X158685451Y-103448605D01*
X158457582Y-103533798D01*
X158381148Y-103574652D01*
X158333841Y-103798236D01*
X149090000Y-103798236D01*
X149090000Y-101941764D01*
X158333841Y-101941764D01*
X158381148Y-102165348D01*
X158602516Y-102266237D01*
X158839313Y-102322000D01*
X159082438Y-102330495D01*
X159322549Y-102291395D01*
X159550418Y-102206202D01*
X159626852Y-102165348D01*
X159636809Y-102118288D01*
X187410000Y-102118288D01*
X187410000Y-102351712D01*
X187455539Y-102580652D01*
X187544866Y-102796308D01*
X187674550Y-102990394D01*
X187839606Y-103155450D01*
X188033692Y-103285134D01*
X188249348Y-103374461D01*
X188478288Y-103420000D01*
X188711712Y-103420000D01*
X188940652Y-103374461D01*
X188951422Y-103370000D01*
X192904293Y-103370000D01*
X192730315Y-103429034D01*
X192525921Y-103538286D01*
X192415074Y-103815469D01*
X193460000Y-104860395D01*
X194504926Y-103815469D01*
X194432755Y-103635000D01*
X194645984Y-103635000D01*
X194878065Y-103867081D01*
X195166327Y-104059692D01*
X195486627Y-104192364D01*
X195826655Y-104260000D01*
X196173345Y-104260000D01*
X196513373Y-104192364D01*
X196833673Y-104059692D01*
X197121935Y-103867081D01*
X197173547Y-103815469D01*
X197495074Y-103815469D01*
X198540000Y-104860395D01*
X199584926Y-103815469D01*
X199474079Y-103538286D01*
X199163160Y-103384911D01*
X198828295Y-103295140D01*
X198482350Y-103272424D01*
X198138620Y-103317634D01*
X197810315Y-103429034D01*
X197605921Y-103538286D01*
X197495074Y-103815469D01*
X197173547Y-103815469D01*
X197367081Y-103621935D01*
X197559692Y-103333673D01*
X197692364Y-103013373D01*
X197760000Y-102673345D01*
X197760000Y-102326655D01*
X197692364Y-101986627D01*
X197559692Y-101666327D01*
X197367081Y-101378065D01*
X197173547Y-101184531D01*
X197495074Y-101184531D01*
X197605921Y-101461714D01*
X197916840Y-101615089D01*
X198251705Y-101704860D01*
X198597650Y-101727576D01*
X198941380Y-101682366D01*
X199269685Y-101570966D01*
X199474079Y-101461714D01*
X199584926Y-101184531D01*
X198540000Y-100139605D01*
X197495074Y-101184531D01*
X197173547Y-101184531D01*
X197121935Y-101132919D01*
X196833673Y-100940308D01*
X196513373Y-100807636D01*
X196173345Y-100740000D01*
X195826655Y-100740000D01*
X195486627Y-100807636D01*
X195166327Y-100940308D01*
X194878065Y-101132919D01*
X194645984Y-101365000D01*
X194432755Y-101365000D01*
X194504926Y-101184531D01*
X193460000Y-100139605D01*
X193445858Y-100153748D01*
X193266253Y-99974143D01*
X193280395Y-99960000D01*
X193639605Y-99960000D01*
X194684531Y-101004926D01*
X194961714Y-100894079D01*
X195115089Y-100583160D01*
X195204860Y-100248295D01*
X195220004Y-100017650D01*
X196772424Y-100017650D01*
X196817634Y-100361380D01*
X196929034Y-100689685D01*
X197038286Y-100894079D01*
X197315469Y-101004926D01*
X198360395Y-99960000D01*
X198719605Y-99960000D01*
X199764531Y-101004926D01*
X200041714Y-100894079D01*
X200195089Y-100583160D01*
X200284860Y-100248295D01*
X200307576Y-99902350D01*
X200262366Y-99558620D01*
X200150966Y-99230315D01*
X200041714Y-99025921D01*
X199764531Y-98915074D01*
X198719605Y-99960000D01*
X198360395Y-99960000D01*
X197315469Y-98915074D01*
X197038286Y-99025921D01*
X196884911Y-99336840D01*
X196795140Y-99671705D01*
X196772424Y-100017650D01*
X195220004Y-100017650D01*
X195227576Y-99902350D01*
X195182366Y-99558620D01*
X195070966Y-99230315D01*
X194961714Y-99025921D01*
X194684531Y-98915074D01*
X193639605Y-99960000D01*
X193280395Y-99960000D01*
X192235469Y-98915074D01*
X191958286Y-99025921D01*
X191804911Y-99336840D01*
X191715140Y-99671705D01*
X191692424Y-100017650D01*
X191737634Y-100361380D01*
X191849034Y-100689685D01*
X191958286Y-100894079D01*
X192235467Y-101004925D01*
X192140392Y-101100000D01*
X188951422Y-101100000D01*
X188940652Y-101095539D01*
X188711712Y-101050000D01*
X188478288Y-101050000D01*
X188249348Y-101095539D01*
X188033692Y-101184866D01*
X187839606Y-101314550D01*
X187674550Y-101479606D01*
X187544866Y-101673692D01*
X187455539Y-101889348D01*
X187410000Y-102118288D01*
X159636809Y-102118288D01*
X159674159Y-101941764D01*
X159004000Y-101271605D01*
X158333841Y-101941764D01*
X149090000Y-101941764D01*
X149090000Y-101170438D01*
X157765505Y-101170438D01*
X157804605Y-101410549D01*
X157889798Y-101638418D01*
X157930652Y-101714852D01*
X158154236Y-101762159D01*
X158824395Y-101092000D01*
X159183605Y-101092000D01*
X159853764Y-101762159D01*
X160077348Y-101714852D01*
X160178237Y-101493484D01*
X160234000Y-101256687D01*
X160242495Y-101013562D01*
X160203395Y-100773451D01*
X160118202Y-100545582D01*
X160077348Y-100469148D01*
X159853764Y-100421841D01*
X159183605Y-101092000D01*
X158824395Y-101092000D01*
X158154236Y-100421841D01*
X157930652Y-100469148D01*
X157829763Y-100690516D01*
X157774000Y-100927313D01*
X157765505Y-101170438D01*
X149090000Y-101170438D01*
X149090000Y-100242236D01*
X158333841Y-100242236D01*
X159004000Y-100912395D01*
X159674159Y-100242236D01*
X159626852Y-100018652D01*
X159405484Y-99917763D01*
X159168687Y-99862000D01*
X158925562Y-99853505D01*
X158685451Y-99892605D01*
X158457582Y-99977798D01*
X158381148Y-100018652D01*
X158333841Y-100242236D01*
X149090000Y-100242236D01*
X149090000Y-98735469D01*
X192415074Y-98735469D01*
X193460000Y-99780395D01*
X194504926Y-98735469D01*
X197495074Y-98735469D01*
X198540000Y-99780395D01*
X199584926Y-98735469D01*
X199474079Y-98458286D01*
X199163160Y-98304911D01*
X198828295Y-98215140D01*
X198482350Y-98192424D01*
X198138620Y-98237634D01*
X197810315Y-98349034D01*
X197605921Y-98458286D01*
X197495074Y-98735469D01*
X194504926Y-98735469D01*
X194394079Y-98458286D01*
X194083160Y-98304911D01*
X193748295Y-98215140D01*
X193402350Y-98192424D01*
X193058620Y-98237634D01*
X192730315Y-98349034D01*
X192525921Y-98458286D01*
X192415074Y-98735469D01*
X149090000Y-98735469D01*
X149090000Y-97977608D01*
X149189842Y-97877766D01*
X149237148Y-98101348D01*
X149458516Y-98202237D01*
X149695313Y-98258000D01*
X149938438Y-98266495D01*
X150178549Y-98227395D01*
X150406418Y-98142202D01*
X150482852Y-98101348D01*
X150530159Y-97877764D01*
X154777841Y-97877764D01*
X154825148Y-98101348D01*
X155046516Y-98202237D01*
X155283313Y-98258000D01*
X155526438Y-98266495D01*
X155766549Y-98227395D01*
X155994418Y-98142202D01*
X156070852Y-98101348D01*
X156118159Y-97877764D01*
X155448000Y-97207605D01*
X154777841Y-97877764D01*
X150530159Y-97877764D01*
X149860000Y-97207605D01*
X149845858Y-97221748D01*
X149666253Y-97042143D01*
X149680395Y-97028000D01*
X150039605Y-97028000D01*
X150709764Y-97698159D01*
X150933348Y-97650852D01*
X151034237Y-97429484D01*
X151090000Y-97192687D01*
X151093013Y-97106438D01*
X154209505Y-97106438D01*
X154248605Y-97346549D01*
X154333798Y-97574418D01*
X154374652Y-97650852D01*
X154598236Y-97698159D01*
X155268395Y-97028000D01*
X155627605Y-97028000D01*
X156297764Y-97698159D01*
X156521348Y-97650852D01*
X156622237Y-97429484D01*
X156678000Y-97192687D01*
X156686495Y-96949562D01*
X156647395Y-96709451D01*
X156562202Y-96481582D01*
X156521348Y-96405148D01*
X156297764Y-96357841D01*
X155627605Y-97028000D01*
X155268395Y-97028000D01*
X154598236Y-96357841D01*
X154374652Y-96405148D01*
X154273763Y-96626516D01*
X154218000Y-96863313D01*
X154209505Y-97106438D01*
X151093013Y-97106438D01*
X151098495Y-96949562D01*
X151059395Y-96709451D01*
X150974202Y-96481582D01*
X150933348Y-96405148D01*
X150709764Y-96357841D01*
X150039605Y-97028000D01*
X149680395Y-97028000D01*
X149666253Y-97013858D01*
X149845858Y-96834253D01*
X149860000Y-96848395D01*
X150530159Y-96178236D01*
X154777841Y-96178236D01*
X155448000Y-96848395D01*
X156118159Y-96178236D01*
X156070852Y-95954652D01*
X155849484Y-95853763D01*
X155612687Y-95798000D01*
X155369562Y-95789505D01*
X155129451Y-95828605D01*
X154901582Y-95913798D01*
X154825148Y-95954652D01*
X154777841Y-96178236D01*
X150530159Y-96178236D01*
X150482852Y-95954652D01*
X150261484Y-95853763D01*
X150024687Y-95798000D01*
X149781562Y-95789505D01*
X149541451Y-95828605D01*
X149313582Y-95913798D01*
X149237148Y-95954652D01*
X149189842Y-96178234D01*
X149090000Y-96078392D01*
X149090000Y-94829764D01*
X158333841Y-94829764D01*
X158381148Y-95053348D01*
X158602516Y-95154237D01*
X158839313Y-95210000D01*
X159082438Y-95218495D01*
X159322549Y-95179395D01*
X159550418Y-95094202D01*
X159580333Y-95078212D01*
X163330000Y-95078212D01*
X163330000Y-95301788D01*
X163373617Y-95521067D01*
X163459176Y-95727624D01*
X163583388Y-95913520D01*
X163741480Y-96071612D01*
X163927376Y-96195824D01*
X164133933Y-96281383D01*
X164353212Y-96325000D01*
X164576788Y-96325000D01*
X164796067Y-96281383D01*
X165002624Y-96195824D01*
X165188520Y-96071612D01*
X165346612Y-95913520D01*
X165470824Y-95727624D01*
X165556383Y-95521067D01*
X165600000Y-95301788D01*
X165600000Y-95078212D01*
X179840000Y-95078212D01*
X179840000Y-95301788D01*
X179883617Y-95521067D01*
X179969176Y-95727624D01*
X180093388Y-95913520D01*
X180251480Y-96071612D01*
X180437376Y-96195824D01*
X180643933Y-96281383D01*
X180863212Y-96325000D01*
X181086788Y-96325000D01*
X181306067Y-96281383D01*
X181512624Y-96195824D01*
X181698520Y-96071612D01*
X181856612Y-95913520D01*
X181980824Y-95727624D01*
X182066383Y-95521067D01*
X182110000Y-95301788D01*
X182110000Y-95078212D01*
X182066383Y-94858933D01*
X181980824Y-94652376D01*
X181856612Y-94466480D01*
X181698520Y-94308388D01*
X181512624Y-94184176D01*
X181306067Y-94098617D01*
X181086788Y-94055000D01*
X180863212Y-94055000D01*
X180643933Y-94098617D01*
X180437376Y-94184176D01*
X180251480Y-94308388D01*
X180093388Y-94466480D01*
X179969176Y-94652376D01*
X179883617Y-94858933D01*
X179840000Y-95078212D01*
X165600000Y-95078212D01*
X165556383Y-94858933D01*
X165470824Y-94652376D01*
X165346612Y-94466480D01*
X165188520Y-94308388D01*
X165002624Y-94184176D01*
X164796067Y-94098617D01*
X164576788Y-94055000D01*
X164353212Y-94055000D01*
X164133933Y-94098617D01*
X163927376Y-94184176D01*
X163741480Y-94308388D01*
X163583388Y-94466480D01*
X163459176Y-94652376D01*
X163373617Y-94858933D01*
X163330000Y-95078212D01*
X159580333Y-95078212D01*
X159626852Y-95053348D01*
X159674159Y-94829764D01*
X159004000Y-94159605D01*
X158333841Y-94829764D01*
X149090000Y-94829764D01*
X149090000Y-94058438D01*
X157765505Y-94058438D01*
X157804605Y-94298549D01*
X157889798Y-94526418D01*
X157930652Y-94602852D01*
X158154236Y-94650159D01*
X158824395Y-93980000D01*
X159183605Y-93980000D01*
X159853764Y-94650159D01*
X160077348Y-94602852D01*
X160178237Y-94381484D01*
X160234000Y-94144687D01*
X160242495Y-93901562D01*
X160203395Y-93661451D01*
X160118202Y-93433582D01*
X160077348Y-93357148D01*
X159853764Y-93309841D01*
X159183605Y-93980000D01*
X158824395Y-93980000D01*
X158154236Y-93309841D01*
X157930652Y-93357148D01*
X157829763Y-93578516D01*
X157774000Y-93815313D01*
X157765505Y-94058438D01*
X149090000Y-94058438D01*
X149090000Y-93130236D01*
X158333841Y-93130236D01*
X159004000Y-93800395D01*
X159674159Y-93130236D01*
X159626852Y-92906652D01*
X159405484Y-92805763D01*
X159168687Y-92750000D01*
X158925562Y-92741505D01*
X158685451Y-92780605D01*
X158457582Y-92865798D01*
X158381148Y-92906652D01*
X158333841Y-93130236D01*
X149090000Y-93130236D01*
X149090000Y-92431422D01*
X149094461Y-92420652D01*
X149140000Y-92191712D01*
X149140000Y-91958288D01*
X149094461Y-91729348D01*
X149005134Y-91513692D01*
X148875450Y-91319606D01*
X148710394Y-91154550D01*
X148516308Y-91024866D01*
X148300652Y-90935539D01*
X148071712Y-90890000D01*
X147838288Y-90890000D01*
X147609348Y-90935539D01*
X147393692Y-91024866D01*
X147199606Y-91154550D01*
X147034550Y-91319606D01*
X146904866Y-91513692D01*
X146815539Y-91729348D01*
X146770000Y-91958288D01*
X145330000Y-91958288D01*
X145284461Y-91729348D01*
X145195134Y-91513692D01*
X145065450Y-91319606D01*
X144900394Y-91154550D01*
X144706308Y-91024866D01*
X144490652Y-90935539D01*
X144261712Y-90890000D01*
X144028288Y-90890000D01*
X143799348Y-90935539D01*
X143583692Y-91024866D01*
X143389606Y-91154550D01*
X143224550Y-91319606D01*
X143094866Y-91513692D01*
X143005539Y-91729348D01*
X142960000Y-91958288D01*
X142960000Y-92191712D01*
X143005539Y-92420652D01*
X143010000Y-92431422D01*
X143010000Y-92874868D01*
X141869869Y-94015000D01*
X131665741Y-94015000D01*
X131730237Y-93873484D01*
X131786000Y-93636687D01*
X131794495Y-93393562D01*
X131755395Y-93153451D01*
X131670202Y-92925582D01*
X131629348Y-92849148D01*
X131405764Y-92801841D01*
X130735605Y-93472000D01*
X130749748Y-93486143D01*
X130570143Y-93665748D01*
X130556000Y-93651605D01*
X130541858Y-93665748D01*
X130362253Y-93486143D01*
X130376395Y-93472000D01*
X129706236Y-92801841D01*
X129482652Y-92849148D01*
X129381763Y-93070516D01*
X129326000Y-93307313D01*
X129317505Y-93550438D01*
X129356605Y-93790549D01*
X129440520Y-94015000D01*
X124983212Y-94015000D01*
X124928253Y-94025932D01*
X124872501Y-94031423D01*
X124818894Y-94047685D01*
X124763933Y-94058617D01*
X124712158Y-94080063D01*
X124658553Y-94096324D01*
X124609149Y-94122731D01*
X124557376Y-94144176D01*
X124510786Y-94175307D01*
X124461377Y-94201716D01*
X124418068Y-94237259D01*
X124371480Y-94268388D01*
X124331859Y-94308009D01*
X124288551Y-94343551D01*
X124253011Y-94386857D01*
X124213388Y-94426480D01*
X124182259Y-94473068D01*
X124146716Y-94516377D01*
X124120307Y-94565786D01*
X124089176Y-94612376D01*
X124067731Y-94664149D01*
X124041324Y-94713553D01*
X124025063Y-94767158D01*
X124003617Y-94818933D01*
X123992685Y-94873894D01*
X123976423Y-94927501D01*
X123970932Y-94983253D01*
X123960000Y-95038212D01*
X123960000Y-95094248D01*
X123954509Y-95150000D01*
X109085000Y-95150000D01*
X109085000Y-95038212D01*
X109041383Y-94818933D01*
X108955824Y-94612376D01*
X108831612Y-94426480D01*
X108673520Y-94268388D01*
X108487624Y-94144176D01*
X108281067Y-94058617D01*
X108061788Y-94015000D01*
X107838212Y-94015000D01*
X107618933Y-94058617D01*
X107412376Y-94144176D01*
X107226480Y-94268388D01*
X107068388Y-94426480D01*
X106944176Y-94612376D01*
X106858617Y-94818933D01*
X106815000Y-95038212D01*
X90660000Y-95038212D01*
X90660000Y-92622236D01*
X129885841Y-92622236D01*
X130556000Y-93292395D01*
X131226159Y-92622236D01*
X131178852Y-92398652D01*
X130957484Y-92297763D01*
X130720687Y-92242000D01*
X130477562Y-92233505D01*
X130237451Y-92272605D01*
X130009582Y-92357798D01*
X129933148Y-92398652D01*
X129885841Y-92622236D01*
X90660000Y-92622236D01*
X90660000Y-90158212D01*
X106815000Y-90158212D01*
X106815000Y-90381788D01*
X106858617Y-90601067D01*
X106944176Y-90807624D01*
X107068388Y-90993520D01*
X107226480Y-91151612D01*
X107412376Y-91275824D01*
X107618933Y-91361383D01*
X107838212Y-91405000D01*
X108061788Y-91405000D01*
X108281067Y-91361383D01*
X108487624Y-91275824D01*
X108673520Y-91151612D01*
X108831612Y-90993520D01*
X108955824Y-90807624D01*
X109041383Y-90601067D01*
X109085000Y-90381788D01*
X109085000Y-90158212D01*
X123960000Y-90158212D01*
X123960000Y-90381788D01*
X124003617Y-90601067D01*
X124089176Y-90807624D01*
X124213388Y-90993520D01*
X124371480Y-91151612D01*
X124557376Y-91275824D01*
X124763933Y-91361383D01*
X124983212Y-91405000D01*
X125206788Y-91405000D01*
X125426067Y-91361383D01*
X125632624Y-91275824D01*
X125818520Y-91151612D01*
X125976612Y-90993520D01*
X126100824Y-90807624D01*
X126118163Y-90765764D01*
X129885841Y-90765764D01*
X129933148Y-90989348D01*
X130154516Y-91090237D01*
X130391313Y-91146000D01*
X130634438Y-91154495D01*
X130874549Y-91115395D01*
X131102418Y-91030202D01*
X131178852Y-90989348D01*
X131226159Y-90765764D01*
X158333841Y-90765764D01*
X158381148Y-90989348D01*
X158602516Y-91090237D01*
X158839313Y-91146000D01*
X159082438Y-91154495D01*
X159322549Y-91115395D01*
X159550418Y-91030202D01*
X159626852Y-90989348D01*
X159674159Y-90765764D01*
X159004000Y-90095605D01*
X158333841Y-90765764D01*
X131226159Y-90765764D01*
X130556000Y-90095605D01*
X129885841Y-90765764D01*
X126118163Y-90765764D01*
X126186383Y-90601067D01*
X126230000Y-90381788D01*
X126230000Y-90158212D01*
X126197424Y-89994438D01*
X129317505Y-89994438D01*
X129356605Y-90234549D01*
X129441798Y-90462418D01*
X129482652Y-90538852D01*
X129706236Y-90586159D01*
X130376395Y-89916000D01*
X130735605Y-89916000D01*
X131405764Y-90586159D01*
X131629348Y-90538852D01*
X131730237Y-90317484D01*
X131786000Y-90080687D01*
X131789013Y-89994438D01*
X157765505Y-89994438D01*
X157804605Y-90234549D01*
X157889798Y-90462418D01*
X157930652Y-90538852D01*
X158154236Y-90586159D01*
X158824395Y-89916000D01*
X159183605Y-89916000D01*
X159853764Y-90586159D01*
X160077348Y-90538852D01*
X160178237Y-90317484D01*
X160206324Y-90198212D01*
X163330000Y-90198212D01*
X163330000Y-90421788D01*
X163373617Y-90641067D01*
X163459176Y-90847624D01*
X163583388Y-91033520D01*
X163741480Y-91191612D01*
X163927376Y-91315824D01*
X164133933Y-91401383D01*
X164353212Y-91445000D01*
X164576788Y-91445000D01*
X164796067Y-91401383D01*
X165002624Y-91315824D01*
X165188520Y-91191612D01*
X165346612Y-91033520D01*
X165470824Y-90847624D01*
X165556383Y-90641067D01*
X165600000Y-90421788D01*
X165600000Y-90198212D01*
X179840000Y-90198212D01*
X179840000Y-90421788D01*
X179883617Y-90641067D01*
X179969176Y-90847624D01*
X180093388Y-91033520D01*
X180251480Y-91191612D01*
X180437376Y-91315824D01*
X180643933Y-91401383D01*
X180863212Y-91445000D01*
X181086788Y-91445000D01*
X181306067Y-91401383D01*
X181512624Y-91315824D01*
X181698520Y-91191612D01*
X181856612Y-91033520D01*
X181980824Y-90847624D01*
X182066383Y-90641067D01*
X182110000Y-90421788D01*
X182110000Y-90198212D01*
X182066383Y-89978933D01*
X181980824Y-89772376D01*
X181856612Y-89586480D01*
X181698520Y-89428388D01*
X181512624Y-89304176D01*
X181306067Y-89218617D01*
X181086788Y-89175000D01*
X180863212Y-89175000D01*
X180643933Y-89218617D01*
X180437376Y-89304176D01*
X180251480Y-89428388D01*
X180093388Y-89586480D01*
X179969176Y-89772376D01*
X179883617Y-89978933D01*
X179840000Y-90198212D01*
X165600000Y-90198212D01*
X165556383Y-89978933D01*
X165470824Y-89772376D01*
X165346612Y-89586480D01*
X165188520Y-89428388D01*
X165002624Y-89304176D01*
X164796067Y-89218617D01*
X164576788Y-89175000D01*
X164353212Y-89175000D01*
X164133933Y-89218617D01*
X163927376Y-89304176D01*
X163741480Y-89428388D01*
X163583388Y-89586480D01*
X163459176Y-89772376D01*
X163373617Y-89978933D01*
X163330000Y-90198212D01*
X160206324Y-90198212D01*
X160234000Y-90080687D01*
X160242495Y-89837562D01*
X160203395Y-89597451D01*
X160118202Y-89369582D01*
X160077348Y-89293148D01*
X159853764Y-89245841D01*
X159183605Y-89916000D01*
X158824395Y-89916000D01*
X158154236Y-89245841D01*
X157930652Y-89293148D01*
X157829763Y-89514516D01*
X157774000Y-89751313D01*
X157765505Y-89994438D01*
X131789013Y-89994438D01*
X131794495Y-89837562D01*
X131755395Y-89597451D01*
X131670202Y-89369582D01*
X131629348Y-89293148D01*
X131405764Y-89245841D01*
X130735605Y-89916000D01*
X130376395Y-89916000D01*
X129706236Y-89245841D01*
X129482652Y-89293148D01*
X129381763Y-89514516D01*
X129326000Y-89751313D01*
X129317505Y-89994438D01*
X126197424Y-89994438D01*
X126186383Y-89938933D01*
X126100824Y-89732376D01*
X125976612Y-89546480D01*
X125818520Y-89388388D01*
X125632624Y-89264176D01*
X125426067Y-89178617D01*
X125206788Y-89135000D01*
X124983212Y-89135000D01*
X124763933Y-89178617D01*
X124557376Y-89264176D01*
X124371480Y-89388388D01*
X124213388Y-89546480D01*
X124089176Y-89732376D01*
X124003617Y-89938933D01*
X123960000Y-90158212D01*
X109085000Y-90158212D01*
X109041383Y-89938933D01*
X108955824Y-89732376D01*
X108831612Y-89546480D01*
X108673520Y-89388388D01*
X108487624Y-89264176D01*
X108281067Y-89178617D01*
X108061788Y-89135000D01*
X107838212Y-89135000D01*
X107618933Y-89178617D01*
X107412376Y-89264176D01*
X107226480Y-89388388D01*
X107068388Y-89546480D01*
X106944176Y-89732376D01*
X106858617Y-89938933D01*
X106815000Y-90158212D01*
X90660000Y-90158212D01*
X90660000Y-89066236D01*
X129885841Y-89066236D01*
X130556000Y-89736395D01*
X131226159Y-89066236D01*
X158333841Y-89066236D01*
X159004000Y-89736395D01*
X159674159Y-89066236D01*
X159626852Y-88842652D01*
X159405484Y-88741763D01*
X159168687Y-88686000D01*
X158925562Y-88677505D01*
X158685451Y-88716605D01*
X158457582Y-88801798D01*
X158381148Y-88842652D01*
X158333841Y-89066236D01*
X131226159Y-89066236D01*
X131178852Y-88842652D01*
X130957484Y-88741763D01*
X130720687Y-88686000D01*
X130477562Y-88677505D01*
X130237451Y-88716605D01*
X130009582Y-88801798D01*
X129933148Y-88842652D01*
X129885841Y-89066236D01*
X90660000Y-89066236D01*
X90660000Y-86701764D01*
X129885841Y-86701764D01*
X129933148Y-86925348D01*
X130154516Y-87026237D01*
X130391313Y-87082000D01*
X130634438Y-87090495D01*
X130874549Y-87051395D01*
X131102418Y-86966202D01*
X131178852Y-86925348D01*
X131226159Y-86701764D01*
X158333841Y-86701764D01*
X158381148Y-86925348D01*
X158602516Y-87026237D01*
X158839313Y-87082000D01*
X159082438Y-87090495D01*
X159322549Y-87051395D01*
X159550418Y-86966202D01*
X159626852Y-86925348D01*
X159674159Y-86701764D01*
X159004000Y-86031605D01*
X158333841Y-86701764D01*
X131226159Y-86701764D01*
X130556000Y-86031605D01*
X129885841Y-86701764D01*
X90660000Y-86701764D01*
X90660000Y-85930438D01*
X129317505Y-85930438D01*
X129356605Y-86170549D01*
X129441798Y-86398418D01*
X129482652Y-86474852D01*
X129706236Y-86522159D01*
X130376395Y-85852000D01*
X130735605Y-85852000D01*
X131405764Y-86522159D01*
X131629348Y-86474852D01*
X131730237Y-86253484D01*
X131786000Y-86016687D01*
X131789013Y-85930438D01*
X157765505Y-85930438D01*
X157804605Y-86170549D01*
X157889798Y-86398418D01*
X157930652Y-86474852D01*
X158154236Y-86522159D01*
X158824395Y-85852000D01*
X159183605Y-85852000D01*
X159853764Y-86522159D01*
X160077348Y-86474852D01*
X160178237Y-86253484D01*
X160234000Y-86016687D01*
X160242495Y-85773562D01*
X160203395Y-85533451D01*
X160118202Y-85305582D01*
X160077348Y-85229148D01*
X159853764Y-85181841D01*
X159183605Y-85852000D01*
X158824395Y-85852000D01*
X158154236Y-85181841D01*
X157930652Y-85229148D01*
X157829763Y-85450516D01*
X157774000Y-85687313D01*
X157765505Y-85930438D01*
X131789013Y-85930438D01*
X131794495Y-85773562D01*
X131755395Y-85533451D01*
X131670202Y-85305582D01*
X131629348Y-85229148D01*
X131405764Y-85181841D01*
X130735605Y-85852000D01*
X130376395Y-85852000D01*
X129706236Y-85181841D01*
X129482652Y-85229148D01*
X129381763Y-85450516D01*
X129326000Y-85687313D01*
X129317505Y-85930438D01*
X90660000Y-85930438D01*
X90660000Y-85002236D01*
X129885841Y-85002236D01*
X130556000Y-85672395D01*
X131226159Y-85002236D01*
X158333841Y-85002236D01*
X159004000Y-85672395D01*
X159674159Y-85002236D01*
X159626852Y-84778652D01*
X159405484Y-84677763D01*
X159168687Y-84622000D01*
X158925562Y-84613505D01*
X158685451Y-84652605D01*
X158457582Y-84737798D01*
X158381148Y-84778652D01*
X158333841Y-85002236D01*
X131226159Y-85002236D01*
X131178852Y-84778652D01*
X130957484Y-84677763D01*
X130720687Y-84622000D01*
X130477562Y-84613505D01*
X130237451Y-84652605D01*
X130009582Y-84737798D01*
X129933148Y-84778652D01*
X129885841Y-85002236D01*
X90660000Y-85002236D01*
X90660000Y-82637764D01*
X129885841Y-82637764D01*
X129933148Y-82861348D01*
X130154516Y-82962237D01*
X130391313Y-83018000D01*
X130634438Y-83026495D01*
X130874549Y-82987395D01*
X131102418Y-82902202D01*
X131178852Y-82861348D01*
X131226159Y-82637764D01*
X158333841Y-82637764D01*
X158381148Y-82861348D01*
X158602516Y-82962237D01*
X158839313Y-83018000D01*
X159082438Y-83026495D01*
X159322549Y-82987395D01*
X159550418Y-82902202D01*
X159626852Y-82861348D01*
X159674159Y-82637764D01*
X159004000Y-81967605D01*
X158333841Y-82637764D01*
X131226159Y-82637764D01*
X130556000Y-81967605D01*
X129885841Y-82637764D01*
X90660000Y-82637764D01*
X90660000Y-81866438D01*
X129317505Y-81866438D01*
X129356605Y-82106549D01*
X129441798Y-82334418D01*
X129482652Y-82410852D01*
X129706236Y-82458159D01*
X130376395Y-81788000D01*
X130735605Y-81788000D01*
X131405764Y-82458159D01*
X131629348Y-82410852D01*
X131730237Y-82189484D01*
X131786000Y-81952687D01*
X131789013Y-81866438D01*
X157765505Y-81866438D01*
X157804605Y-82106549D01*
X157889798Y-82334418D01*
X157930652Y-82410852D01*
X158154236Y-82458159D01*
X158824395Y-81788000D01*
X159183605Y-81788000D01*
X159853764Y-82458159D01*
X160077348Y-82410852D01*
X160178237Y-82189484D01*
X160234000Y-81952687D01*
X160242495Y-81709562D01*
X160203395Y-81469451D01*
X160118202Y-81241582D01*
X160077348Y-81165148D01*
X159853764Y-81117841D01*
X159183605Y-81788000D01*
X158824395Y-81788000D01*
X158154236Y-81117841D01*
X157930652Y-81165148D01*
X157829763Y-81386516D01*
X157774000Y-81623313D01*
X157765505Y-81866438D01*
X131789013Y-81866438D01*
X131794495Y-81709562D01*
X131755395Y-81469451D01*
X131670202Y-81241582D01*
X131629348Y-81165148D01*
X131405764Y-81117841D01*
X130735605Y-81788000D01*
X130376395Y-81788000D01*
X129706236Y-81117841D01*
X129482652Y-81165148D01*
X129381763Y-81386516D01*
X129326000Y-81623313D01*
X129317505Y-81866438D01*
X90660000Y-81866438D01*
X90660000Y-80938236D01*
X129885841Y-80938236D01*
X130556000Y-81608395D01*
X131226159Y-80938236D01*
X158333841Y-80938236D01*
X159004000Y-81608395D01*
X159674159Y-80938236D01*
X159626852Y-80714652D01*
X159405484Y-80613763D01*
X159168687Y-80558000D01*
X158925562Y-80549505D01*
X158685451Y-80588605D01*
X158457582Y-80673798D01*
X158381148Y-80714652D01*
X158333841Y-80938236D01*
X131226159Y-80938236D01*
X131178852Y-80714652D01*
X130957484Y-80613763D01*
X130720687Y-80558000D01*
X130477562Y-80549505D01*
X130237451Y-80588605D01*
X130009582Y-80673798D01*
X129933148Y-80714652D01*
X129885841Y-80938236D01*
X90660000Y-80938236D01*
X90660000Y-78065764D01*
X129885841Y-78065764D01*
X129933148Y-78289348D01*
X130154516Y-78390237D01*
X130391313Y-78446000D01*
X130634438Y-78454495D01*
X130874549Y-78415395D01*
X131102418Y-78330202D01*
X131178852Y-78289348D01*
X131226159Y-78065764D01*
X130556000Y-77395605D01*
X129885841Y-78065764D01*
X90660000Y-78065764D01*
X90660000Y-77294438D01*
X129317505Y-77294438D01*
X129356605Y-77534549D01*
X129441798Y-77762418D01*
X129482652Y-77838852D01*
X129706236Y-77886159D01*
X130376395Y-77216000D01*
X130735605Y-77216000D01*
X131405764Y-77886159D01*
X131629348Y-77838852D01*
X131730237Y-77617484D01*
X131786000Y-77380687D01*
X131794495Y-77137562D01*
X131782932Y-77066553D01*
X143874009Y-77066553D01*
X143916603Y-77365907D01*
X144016778Y-77651199D01*
X144096739Y-77800792D01*
X144350920Y-77884475D01*
X145235395Y-77000000D01*
X144350920Y-76115525D01*
X144096739Y-76199208D01*
X143965842Y-76471775D01*
X143890635Y-76764642D01*
X143874009Y-77066553D01*
X131782932Y-77066553D01*
X131755395Y-76897451D01*
X131670202Y-76669582D01*
X131629348Y-76593148D01*
X131405764Y-76545841D01*
X130735605Y-77216000D01*
X130376395Y-77216000D01*
X129706236Y-76545841D01*
X129482652Y-76593148D01*
X129381763Y-76814516D01*
X129326000Y-77051313D01*
X129317505Y-77294438D01*
X90660000Y-77294438D01*
X90660000Y-76366236D01*
X129885841Y-76366236D01*
X130556000Y-77036395D01*
X131226159Y-76366236D01*
X131178852Y-76142652D01*
X130957484Y-76041763D01*
X130720687Y-75986000D01*
X130477562Y-75977505D01*
X130237451Y-76016605D01*
X130009582Y-76101798D01*
X129933148Y-76142652D01*
X129885841Y-76366236D01*
X90660000Y-76366236D01*
X90660000Y-75660000D01*
X144654878Y-75660000D01*
X144614208Y-75681739D01*
X144614208Y-75681739D01*
G37*
X144614208Y-75681739D02*
X144530525Y-75935920D01*
X145415000Y-76820395D01*
X145429143Y-76806253D01*
X145608748Y-76985858D01*
X145594605Y-77000000D01*
X145608748Y-77014143D01*
X145429143Y-77193748D01*
X145415000Y-77179605D01*
X144530525Y-78064080D01*
X144614208Y-78318261D01*
X144886775Y-78449158D01*
X145179642Y-78524365D01*
X145481553Y-78540991D01*
X145780907Y-78498397D01*
X146066199Y-78398222D01*
X146215792Y-78318261D01*
X146299474Y-78064082D01*
X146415422Y-78180030D01*
X146462187Y-78133265D01*
X146465498Y-78144180D01*
X146524463Y-78254494D01*
X146603815Y-78351185D01*
X146700506Y-78430537D01*
X146810820Y-78489502D01*
X146930518Y-78525812D01*
X147055000Y-78538072D01*
X148855000Y-78538072D01*
X148979482Y-78525812D01*
X149099180Y-78489502D01*
X149209494Y-78430537D01*
X149306185Y-78351185D01*
X149385537Y-78254494D01*
X149444502Y-78144180D01*
X149468289Y-78065764D01*
X158333841Y-78065764D01*
X158381148Y-78289348D01*
X158602516Y-78390237D01*
X158839313Y-78446000D01*
X159082438Y-78454495D01*
X159322549Y-78415395D01*
X159550418Y-78330202D01*
X159626852Y-78289348D01*
X159674159Y-78065764D01*
X159004000Y-77395605D01*
X158333841Y-78065764D01*
X149468289Y-78065764D01*
X149480812Y-78024482D01*
X149493072Y-77900000D01*
X149493072Y-77294438D01*
X157765505Y-77294438D01*
X157804605Y-77534549D01*
X157889798Y-77762418D01*
X157930652Y-77838852D01*
X158154236Y-77886159D01*
X158824395Y-77216000D01*
X159183605Y-77216000D01*
X159853764Y-77886159D01*
X160077348Y-77838852D01*
X160178237Y-77617484D01*
X160234000Y-77380687D01*
X160242495Y-77137562D01*
X160203395Y-76897451D01*
X160118202Y-76669582D01*
X160077348Y-76593148D01*
X159853764Y-76545841D01*
X159183605Y-77216000D01*
X158824395Y-77216000D01*
X158154236Y-76545841D01*
X157930652Y-76593148D01*
X157829763Y-76814516D01*
X157774000Y-77051313D01*
X157765505Y-77294438D01*
X149493072Y-77294438D01*
X149493072Y-76366236D01*
X158333841Y-76366236D01*
X159004000Y-77036395D01*
X159674159Y-76366236D01*
X159626852Y-76142652D01*
X159405484Y-76041763D01*
X159168687Y-75986000D01*
X158925562Y-75977505D01*
X158685451Y-76016605D01*
X158457582Y-76101798D01*
X158381148Y-76142652D01*
X158333841Y-76366236D01*
X149493072Y-76366236D01*
X149493072Y-76100000D01*
X149480812Y-75975518D01*
X149444502Y-75855820D01*
X149385537Y-75745506D01*
X149315364Y-75660000D01*
X200340001Y-75660000D01*
X200340000Y-129340000D01*
X90660000Y-129340000D01*
X90660000Y-128865764D01*
X129885841Y-128865764D01*
X129933148Y-129089348D01*
X130154516Y-129190237D01*
X130391313Y-129246000D01*
X130634438Y-129254495D01*
X130874549Y-129215395D01*
X131102418Y-129130202D01*
X131178852Y-129089348D01*
X131226159Y-128865764D01*
X144109841Y-128865764D01*
X144157148Y-129089348D01*
X144378516Y-129190237D01*
X144615313Y-129246000D01*
X144858438Y-129254495D01*
X145098549Y-129215395D01*
X145326418Y-129130202D01*
X145402852Y-129089348D01*
X145450159Y-128865764D01*
X158333841Y-128865764D01*
X158381148Y-129089348D01*
X158602516Y-129190237D01*
X158839313Y-129246000D01*
X159082438Y-129254495D01*
X159322549Y-129215395D01*
X159550418Y-129130202D01*
X159626852Y-129089348D01*
X159674159Y-128865764D01*
X159004000Y-128195605D01*
X158333841Y-128865764D01*
X145450159Y-128865764D01*
X144780000Y-128195605D01*
X144109841Y-128865764D01*
X131226159Y-128865764D01*
X130556000Y-128195605D01*
X129885841Y-128865764D01*
X90660000Y-128865764D01*
X90660000Y-128094438D01*
X129317505Y-128094438D01*
X129356605Y-128334549D01*
X129441798Y-128562418D01*
X129482652Y-128638852D01*
X129706236Y-128686159D01*
X130376395Y-128016000D01*
X130735605Y-128016000D01*
X131405764Y-128686159D01*
X131629348Y-128638852D01*
X131730237Y-128417484D01*
X131786000Y-128180687D01*
X131789013Y-128094438D01*
X143541505Y-128094438D01*
X143580605Y-128334549D01*
X143665798Y-128562418D01*
X143706652Y-128638852D01*
X143930236Y-128686159D01*
X144600395Y-128016000D01*
X144959605Y-128016000D01*
X145629764Y-128686159D01*
X145853348Y-128638852D01*
X145954237Y-128417484D01*
X146010000Y-128180687D01*
X146013013Y-128094438D01*
X157765505Y-128094438D01*
X157804605Y-128334549D01*
X157889798Y-128562418D01*
X157930652Y-128638852D01*
X158154236Y-128686159D01*
X158824395Y-128016000D01*
X159183605Y-128016000D01*
X159853764Y-128686159D01*
X160077348Y-128638852D01*
X160178237Y-128417484D01*
X160234000Y-128180687D01*
X160242495Y-127937562D01*
X160203395Y-127697451D01*
X160118202Y-127469582D01*
X160077348Y-127393148D01*
X159853764Y-127345841D01*
X159183605Y-128016000D01*
X158824395Y-128016000D01*
X158154236Y-127345841D01*
X157930652Y-127393148D01*
X157829763Y-127614516D01*
X157774000Y-127851313D01*
X157765505Y-128094438D01*
X146013013Y-128094438D01*
X146018495Y-127937562D01*
X145979395Y-127697451D01*
X145894202Y-127469582D01*
X145853348Y-127393148D01*
X145629764Y-127345841D01*
X144959605Y-128016000D01*
X144600395Y-128016000D01*
X143930236Y-127345841D01*
X143706652Y-127393148D01*
X143605763Y-127614516D01*
X143550000Y-127851313D01*
X143541505Y-128094438D01*
X131789013Y-128094438D01*
X131794495Y-127937562D01*
X131755395Y-127697451D01*
X131670202Y-127469582D01*
X131629348Y-127393148D01*
X131405764Y-127345841D01*
X130735605Y-128016000D01*
X130376395Y-128016000D01*
X129706236Y-127345841D01*
X129482652Y-127393148D01*
X129381763Y-127614516D01*
X129326000Y-127851313D01*
X129317505Y-128094438D01*
X90660000Y-128094438D01*
X90660000Y-127166236D01*
X129885841Y-127166236D01*
X130556000Y-127836395D01*
X131226159Y-127166236D01*
X144109841Y-127166236D01*
X144780000Y-127836395D01*
X145450159Y-127166236D01*
X158333841Y-127166236D01*
X159004000Y-127836395D01*
X159674159Y-127166236D01*
X159626852Y-126942652D01*
X159405484Y-126841763D01*
X159168687Y-126786000D01*
X158925562Y-126777505D01*
X158685451Y-126816605D01*
X158457582Y-126901798D01*
X158381148Y-126942652D01*
X158333841Y-127166236D01*
X145450159Y-127166236D01*
X145402852Y-126942652D01*
X145181484Y-126841763D01*
X144944687Y-126786000D01*
X144701562Y-126777505D01*
X144461451Y-126816605D01*
X144233582Y-126901798D01*
X144157148Y-126942652D01*
X144109841Y-127166236D01*
X131226159Y-127166236D01*
X131178852Y-126942652D01*
X130957484Y-126841763D01*
X130720687Y-126786000D01*
X130477562Y-126777505D01*
X130237451Y-126816605D01*
X130009582Y-126901798D01*
X129933148Y-126942652D01*
X129885841Y-127166236D01*
X90660000Y-127166236D01*
X90660000Y-124293764D01*
X129885841Y-124293764D01*
X129933148Y-124517348D01*
X130154516Y-124618237D01*
X130391313Y-124674000D01*
X130634438Y-124682495D01*
X130874549Y-124643395D01*
X131102418Y-124558202D01*
X131178852Y-124517348D01*
X131226159Y-124293764D01*
X144109841Y-124293764D01*
X144157148Y-124517348D01*
X144378516Y-124618237D01*
X144615313Y-124674000D01*
X144858438Y-124682495D01*
X145098549Y-124643395D01*
X145326418Y-124558202D01*
X145402852Y-124517348D01*
X145450159Y-124293764D01*
X158333841Y-124293764D01*
X158381148Y-124517348D01*
X158602516Y-124618237D01*
X158839313Y-124674000D01*
X159082438Y-124682495D01*
X159322549Y-124643395D01*
X159550418Y-124558202D01*
X159626852Y-124517348D01*
X159674159Y-124293764D01*
X159004000Y-123623605D01*
X158333841Y-124293764D01*
X145450159Y-124293764D01*
X144780000Y-123623605D01*
X144109841Y-124293764D01*
X131226159Y-124293764D01*
X130556000Y-123623605D01*
X129885841Y-124293764D01*
X90660000Y-124293764D01*
X90660000Y-123522438D01*
X129317505Y-123522438D01*
X129356605Y-123762549D01*
X129441798Y-123990418D01*
X129482652Y-124066852D01*
X129706236Y-124114159D01*
X130376395Y-123444000D01*
X130735605Y-123444000D01*
X131405764Y-124114159D01*
X131629348Y-124066852D01*
X131730237Y-123845484D01*
X131786000Y-123608687D01*
X131789013Y-123522438D01*
X143541505Y-123522438D01*
X143580605Y-123762549D01*
X143665798Y-123990418D01*
X143706652Y-124066852D01*
X143930236Y-124114159D01*
X144600395Y-123444000D01*
X144959605Y-123444000D01*
X145629764Y-124114159D01*
X145853348Y-124066852D01*
X145954237Y-123845484D01*
X146010000Y-123608687D01*
X146013013Y-123522438D01*
X157765505Y-123522438D01*
X157804605Y-123762549D01*
X157889798Y-123990418D01*
X157930652Y-124066852D01*
X158154236Y-124114159D01*
X158824395Y-123444000D01*
X159183605Y-123444000D01*
X159853764Y-124114159D01*
X160077348Y-124066852D01*
X160178237Y-123845484D01*
X160234000Y-123608687D01*
X160242495Y-123365562D01*
X160203395Y-123125451D01*
X160118202Y-122897582D01*
X160077348Y-122821148D01*
X159853764Y-122773841D01*
X159183605Y-123444000D01*
X158824395Y-123444000D01*
X158154236Y-122773841D01*
X157930652Y-122821148D01*
X157829763Y-123042516D01*
X157774000Y-123279313D01*
X157765505Y-123522438D01*
X146013013Y-123522438D01*
X146018495Y-123365562D01*
X145979395Y-123125451D01*
X145894202Y-122897582D01*
X145853348Y-122821148D01*
X145629764Y-122773841D01*
X144959605Y-123444000D01*
X144600395Y-123444000D01*
X143930236Y-122773841D01*
X143706652Y-122821148D01*
X143605763Y-123042516D01*
X143550000Y-123279313D01*
X143541505Y-123522438D01*
X131789013Y-123522438D01*
X131794495Y-123365562D01*
X131755395Y-123125451D01*
X131670202Y-122897582D01*
X131629348Y-122821148D01*
X131405764Y-122773841D01*
X130735605Y-123444000D01*
X130376395Y-123444000D01*
X129706236Y-122773841D01*
X129482652Y-122821148D01*
X129381763Y-123042516D01*
X129326000Y-123279313D01*
X129317505Y-123522438D01*
X90660000Y-123522438D01*
X90660000Y-122594236D01*
X129885841Y-122594236D01*
X130556000Y-123264395D01*
X131226159Y-122594236D01*
X144109841Y-122594236D01*
X144780000Y-123264395D01*
X145450159Y-122594236D01*
X158333841Y-122594236D01*
X159004000Y-123264395D01*
X159674159Y-122594236D01*
X159626852Y-122370652D01*
X159405484Y-122269763D01*
X159168687Y-122214000D01*
X158925562Y-122205505D01*
X158685451Y-122244605D01*
X158457582Y-122329798D01*
X158381148Y-122370652D01*
X158333841Y-122594236D01*
X145450159Y-122594236D01*
X145402852Y-122370652D01*
X145181484Y-122269763D01*
X144944687Y-122214000D01*
X144701562Y-122205505D01*
X144461451Y-122244605D01*
X144233582Y-122329798D01*
X144157148Y-122370652D01*
X144109841Y-122594236D01*
X131226159Y-122594236D01*
X131178852Y-122370652D01*
X130957484Y-122269763D01*
X130720687Y-122214000D01*
X130477562Y-122205505D01*
X130237451Y-122244605D01*
X130009582Y-122329798D01*
X129933148Y-122370652D01*
X129885841Y-122594236D01*
X90660000Y-122594236D01*
X90660000Y-119213764D01*
X129885841Y-119213764D01*
X129933148Y-119437348D01*
X130154516Y-119538237D01*
X130391313Y-119594000D01*
X130634438Y-119602495D01*
X130874549Y-119563395D01*
X131102418Y-119478202D01*
X131178852Y-119437348D01*
X131226159Y-119213764D01*
X144109841Y-119213764D01*
X144157148Y-119437348D01*
X144378516Y-119538237D01*
X144615313Y-119594000D01*
X144858438Y-119602495D01*
X145098549Y-119563395D01*
X145326418Y-119478202D01*
X145402852Y-119437348D01*
X145450159Y-119213764D01*
X158333841Y-119213764D01*
X158381148Y-119437348D01*
X158602516Y-119538237D01*
X158839313Y-119594000D01*
X159082438Y-119602495D01*
X159322549Y-119563395D01*
X159550418Y-119478202D01*
X159626852Y-119437348D01*
X159674159Y-119213764D01*
X159004000Y-118543605D01*
X158333841Y-119213764D01*
X145450159Y-119213764D01*
X144780000Y-118543605D01*
X144109841Y-119213764D01*
X131226159Y-119213764D01*
X130556000Y-118543605D01*
X129885841Y-119213764D01*
X90660000Y-119213764D01*
X90660000Y-118442438D01*
X129317505Y-118442438D01*
X129356605Y-118682549D01*
X129441798Y-118910418D01*
X129482652Y-118986852D01*
X129706236Y-119034159D01*
X130376395Y-118364000D01*
X130735605Y-118364000D01*
X131405764Y-119034159D01*
X131629348Y-118986852D01*
X131730237Y-118765484D01*
X131786000Y-118528687D01*
X131789013Y-118442438D01*
X143541505Y-118442438D01*
X143580605Y-118682549D01*
X143665798Y-118910418D01*
X143706652Y-118986852D01*
X143930236Y-119034159D01*
X144600395Y-118364000D01*
X144959605Y-118364000D01*
X145629764Y-119034159D01*
X145853348Y-118986852D01*
X145954237Y-118765484D01*
X146010000Y-118528687D01*
X146013013Y-118442438D01*
X157765505Y-118442438D01*
X157804605Y-118682549D01*
X157889798Y-118910418D01*
X157930652Y-118986852D01*
X158154236Y-119034159D01*
X158824395Y-118364000D01*
X159183605Y-118364000D01*
X159853764Y-119034159D01*
X160077348Y-118986852D01*
X160178237Y-118765484D01*
X160234000Y-118528687D01*
X160242495Y-118285562D01*
X160203395Y-118045451D01*
X160118202Y-117817582D01*
X160077348Y-117741148D01*
X159853764Y-117693841D01*
X159183605Y-118364000D01*
X158824395Y-118364000D01*
X158154236Y-117693841D01*
X157930652Y-117741148D01*
X157829763Y-117962516D01*
X157774000Y-118199313D01*
X157765505Y-118442438D01*
X146013013Y-118442438D01*
X146018495Y-118285562D01*
X145979395Y-118045451D01*
X145894202Y-117817582D01*
X145853348Y-117741148D01*
X145629764Y-117693841D01*
X144959605Y-118364000D01*
X144600395Y-118364000D01*
X143930236Y-117693841D01*
X143706652Y-117741148D01*
X143605763Y-117962516D01*
X143550000Y-118199313D01*
X143541505Y-118442438D01*
X131789013Y-118442438D01*
X131794495Y-118285562D01*
X131755395Y-118045451D01*
X131670202Y-117817582D01*
X131629348Y-117741148D01*
X131405764Y-117693841D01*
X130735605Y-118364000D01*
X130376395Y-118364000D01*
X129706236Y-117693841D01*
X129482652Y-117741148D01*
X129381763Y-117962516D01*
X129326000Y-118199313D01*
X129317505Y-118442438D01*
X90660000Y-118442438D01*
X90660000Y-117514236D01*
X129885841Y-117514236D01*
X130556000Y-118184395D01*
X131226159Y-117514236D01*
X144109841Y-117514236D01*
X144780000Y-118184395D01*
X145450159Y-117514236D01*
X158333841Y-117514236D01*
X159004000Y-118184395D01*
X159674159Y-117514236D01*
X159626852Y-117290652D01*
X159405484Y-117189763D01*
X159168687Y-117134000D01*
X158925562Y-117125505D01*
X158685451Y-117164605D01*
X158457582Y-117249798D01*
X158381148Y-117290652D01*
X158333841Y-117514236D01*
X145450159Y-117514236D01*
X145402852Y-117290652D01*
X145181484Y-117189763D01*
X144944687Y-117134000D01*
X144701562Y-117125505D01*
X144461451Y-117164605D01*
X144233582Y-117249798D01*
X144157148Y-117290652D01*
X144109841Y-117514236D01*
X131226159Y-117514236D01*
X131178852Y-117290652D01*
X130957484Y-117189763D01*
X130720687Y-117134000D01*
X130477562Y-117125505D01*
X130237451Y-117164605D01*
X130009582Y-117249798D01*
X129933148Y-117290652D01*
X129885841Y-117514236D01*
X90660000Y-117514236D01*
X90660000Y-114723212D01*
X106815000Y-114723212D01*
X106815000Y-114946788D01*
X106858617Y-115166067D01*
X106944176Y-115372624D01*
X107068388Y-115558520D01*
X107226480Y-115716612D01*
X107412376Y-115840824D01*
X107618933Y-115926383D01*
X107838212Y-115970000D01*
X108061788Y-115970000D01*
X108281067Y-115926383D01*
X108487624Y-115840824D01*
X108673520Y-115716612D01*
X108831612Y-115558520D01*
X108955824Y-115372624D01*
X109041383Y-115166067D01*
X109078749Y-114978212D01*
X123960000Y-114978212D01*
X123960000Y-115201788D01*
X124003617Y-115421067D01*
X124089176Y-115627624D01*
X124213388Y-115813520D01*
X124371480Y-115971612D01*
X124557376Y-116095824D01*
X124763933Y-116181383D01*
X124983212Y-116225000D01*
X125206788Y-116225000D01*
X125426067Y-116181383D01*
X125632624Y-116095824D01*
X125818520Y-115971612D01*
X125976612Y-115813520D01*
X126100824Y-115627624D01*
X126186383Y-115421067D01*
X126198885Y-115358212D01*
X163330000Y-115358212D01*
X163330000Y-115581788D01*
X163373617Y-115801067D01*
X163459176Y-116007624D01*
X163583388Y-116193520D01*
X163741480Y-116351612D01*
X163927376Y-116475824D01*
X164133933Y-116561383D01*
X164353212Y-116605000D01*
X164576788Y-116605000D01*
X164796067Y-116561383D01*
X165002624Y-116475824D01*
X165188520Y-116351612D01*
X165346612Y-116193520D01*
X165470824Y-116007624D01*
X165556383Y-115801067D01*
X165600000Y-115581788D01*
X165600000Y-115358212D01*
X179840000Y-115358212D01*
X179840000Y-115581788D01*
X179883617Y-115801067D01*
X179969176Y-116007624D01*
X180093388Y-116193520D01*
X180251480Y-116351612D01*
X180437376Y-116475824D01*
X180643933Y-116561383D01*
X180863212Y-116605000D01*
X181086788Y-116605000D01*
X181306067Y-116561383D01*
X181512624Y-116475824D01*
X181698520Y-116351612D01*
X181856612Y-116193520D01*
X181980824Y-116007624D01*
X182066383Y-115801067D01*
X182110000Y-115581788D01*
X182110000Y-115358212D01*
X182066383Y-115138933D01*
X181980824Y-114932376D01*
X181856612Y-114746480D01*
X181698520Y-114588388D01*
X181512624Y-114464176D01*
X181306067Y-114378617D01*
X181086788Y-114335000D01*
X180863212Y-114335000D01*
X180643933Y-114378617D01*
X180437376Y-114464176D01*
X180251480Y-114588388D01*
X180093388Y-114746480D01*
X179969176Y-114932376D01*
X179883617Y-115138933D01*
X179840000Y-115358212D01*
X165600000Y-115358212D01*
X165556383Y-115138933D01*
X165470824Y-114932376D01*
X165346612Y-114746480D01*
X165188520Y-114588388D01*
X165002624Y-114464176D01*
X164796067Y-114378617D01*
X164576788Y-114335000D01*
X164353212Y-114335000D01*
X164133933Y-114378617D01*
X163927376Y-114464176D01*
X163741480Y-114588388D01*
X163583388Y-114746480D01*
X163459176Y-114932376D01*
X163373617Y-115138933D01*
X163330000Y-115358212D01*
X126198885Y-115358212D01*
X126230000Y-115201788D01*
X126230000Y-114978212D01*
X126186383Y-114758933D01*
X126100824Y-114552376D01*
X125976612Y-114366480D01*
X125818520Y-114208388D01*
X125632624Y-114084176D01*
X125426067Y-113998617D01*
X125206788Y-113955000D01*
X124983212Y-113955000D01*
X124763933Y-113998617D01*
X124557376Y-114084176D01*
X124371480Y-114208388D01*
X124213388Y-114366480D01*
X124089176Y-114552376D01*
X124003617Y-114758933D01*
X123960000Y-114978212D01*
X109078749Y-114978212D01*
X109085000Y-114946788D01*
X109085000Y-114723212D01*
X109041383Y-114503933D01*
X108955824Y-114297376D01*
X108831612Y-114111480D01*
X108673520Y-113953388D01*
X108487624Y-113829176D01*
X108281067Y-113743617D01*
X108061788Y-113700000D01*
X107838212Y-113700000D01*
X107618933Y-113743617D01*
X107412376Y-113829176D01*
X107226480Y-113953388D01*
X107068388Y-114111480D01*
X106944176Y-114297376D01*
X106858617Y-114503933D01*
X106815000Y-114723212D01*
X90660000Y-114723212D01*
X90660000Y-113625764D01*
X129885841Y-113625764D01*
X129933148Y-113849348D01*
X130154516Y-113950237D01*
X130391313Y-114006000D01*
X130634438Y-114014495D01*
X130874549Y-113975395D01*
X131102418Y-113890202D01*
X131178852Y-113849348D01*
X131226159Y-113625764D01*
X158333841Y-113625764D01*
X158381148Y-113849348D01*
X158602516Y-113950237D01*
X158839313Y-114006000D01*
X159082438Y-114014495D01*
X159322549Y-113975395D01*
X159550418Y-113890202D01*
X159626852Y-113849348D01*
X159674159Y-113625764D01*
X159004000Y-112955605D01*
X158333841Y-113625764D01*
X131226159Y-113625764D01*
X130556000Y-112955605D01*
X129885841Y-113625764D01*
X90660000Y-113625764D01*
X90660000Y-112854438D01*
X129317505Y-112854438D01*
X129356605Y-113094549D01*
X129441798Y-113322418D01*
X129482652Y-113398852D01*
X129706236Y-113446159D01*
X130376395Y-112776000D01*
X130735605Y-112776000D01*
X131405764Y-113446159D01*
X131629348Y-113398852D01*
X131730237Y-113177484D01*
X131786000Y-112940687D01*
X131794495Y-112697562D01*
X131780198Y-112609764D01*
X144109841Y-112609764D01*
X144157148Y-112833348D01*
X144378516Y-112934237D01*
X144615313Y-112990000D01*
X144858438Y-112998495D01*
X145098549Y-112959395D01*
X145326418Y-112874202D01*
X145363394Y-112854438D01*
X157765505Y-112854438D01*
X157804605Y-113094549D01*
X157889798Y-113322418D01*
X157930652Y-113398852D01*
X158154236Y-113446159D01*
X158824395Y-112776000D01*
X159183605Y-112776000D01*
X159853764Y-113446159D01*
X160077348Y-113398852D01*
X160178237Y-113177484D01*
X160234000Y-112940687D01*
X160242495Y-112697562D01*
X160203395Y-112457451D01*
X160118202Y-112229582D01*
X160077348Y-112153148D01*
X159853764Y-112105841D01*
X159183605Y-112776000D01*
X158824395Y-112776000D01*
X158154236Y-112105841D01*
X157930652Y-112153148D01*
X157829763Y-112374516D01*
X157774000Y-112611313D01*
X157765505Y-112854438D01*
X145363394Y-112854438D01*
X145402852Y-112833348D01*
X145450159Y-112609764D01*
X144780000Y-111939605D01*
X144109841Y-112609764D01*
X131780198Y-112609764D01*
X131755395Y-112457451D01*
X131670202Y-112229582D01*
X131629348Y-112153148D01*
X131405764Y-112105841D01*
X130735605Y-112776000D01*
X130376395Y-112776000D01*
X129706236Y-112105841D01*
X129482652Y-112153148D01*
X129381763Y-112374516D01*
X129326000Y-112611313D01*
X129317505Y-112854438D01*
X90660000Y-112854438D01*
X90660000Y-111926236D01*
X129885841Y-111926236D01*
X130556000Y-112596395D01*
X131226159Y-111926236D01*
X131207583Y-111838438D01*
X143541505Y-111838438D01*
X143580605Y-112078549D01*
X143665798Y-112306418D01*
X143706652Y-112382852D01*
X143930236Y-112430159D01*
X144600395Y-111760000D01*
X144959605Y-111760000D01*
X145629764Y-112430159D01*
X145853348Y-112382852D01*
X145954237Y-112161484D01*
X146009635Y-111926236D01*
X158333841Y-111926236D01*
X159004000Y-112596395D01*
X159674159Y-111926236D01*
X159626852Y-111702652D01*
X159405484Y-111601763D01*
X159168687Y-111546000D01*
X158925562Y-111537505D01*
X158685451Y-111576605D01*
X158457582Y-111661798D01*
X158381148Y-111702652D01*
X158333841Y-111926236D01*
X146009635Y-111926236D01*
X146010000Y-111924687D01*
X146018495Y-111681562D01*
X145979395Y-111441451D01*
X145894202Y-111213582D01*
X145853348Y-111137148D01*
X145629764Y-111089841D01*
X144959605Y-111760000D01*
X144600395Y-111760000D01*
X143930236Y-111089841D01*
X143706652Y-111137148D01*
X143605763Y-111358516D01*
X143550000Y-111595313D01*
X143541505Y-111838438D01*
X131207583Y-111838438D01*
X131178852Y-111702652D01*
X130957484Y-111601763D01*
X130720687Y-111546000D01*
X130477562Y-111537505D01*
X130237451Y-111576605D01*
X130009582Y-111661798D01*
X129933148Y-111702652D01*
X129885841Y-111926236D01*
X90660000Y-111926236D01*
X90660000Y-109843212D01*
X106815000Y-109843212D01*
X106815000Y-110066788D01*
X106858617Y-110286067D01*
X106944176Y-110492624D01*
X107068388Y-110678520D01*
X107226480Y-110836612D01*
X107412376Y-110960824D01*
X107618933Y-111046383D01*
X107838212Y-111090000D01*
X108061788Y-111090000D01*
X108281067Y-111046383D01*
X108487624Y-110960824D01*
X108673520Y-110836612D01*
X108831612Y-110678520D01*
X108955824Y-110492624D01*
X109041383Y-110286067D01*
X109078749Y-110098212D01*
X123960000Y-110098212D01*
X123960000Y-110321788D01*
X124003617Y-110541067D01*
X124089176Y-110747624D01*
X124213388Y-110933520D01*
X124371480Y-111091612D01*
X124557376Y-111215824D01*
X124763933Y-111301383D01*
X124983212Y-111345000D01*
X125206788Y-111345000D01*
X125426067Y-111301383D01*
X125632624Y-111215824D01*
X125818520Y-111091612D01*
X125976612Y-110933520D01*
X125992169Y-110910236D01*
X144109841Y-110910236D01*
X144780000Y-111580395D01*
X145450159Y-110910236D01*
X145402852Y-110686652D01*
X145181484Y-110585763D01*
X144944687Y-110530000D01*
X144701562Y-110521505D01*
X144461451Y-110560605D01*
X144233582Y-110645798D01*
X144157148Y-110686652D01*
X144109841Y-110910236D01*
X125992169Y-110910236D01*
X126100824Y-110747624D01*
X126186383Y-110541067D01*
X126230000Y-110321788D01*
X126230000Y-110098212D01*
X126186383Y-109878933D01*
X126100824Y-109672376D01*
X125976612Y-109486480D01*
X125818520Y-109328388D01*
X125632624Y-109204176D01*
X125426067Y-109118617D01*
X125206788Y-109075000D01*
X124983212Y-109075000D01*
X124763933Y-109118617D01*
X124557376Y-109204176D01*
X124371480Y-109328388D01*
X124213388Y-109486480D01*
X124089176Y-109672376D01*
X124003617Y-109878933D01*
X123960000Y-110098212D01*
X109078749Y-110098212D01*
X109085000Y-110066788D01*
X109085000Y-109843212D01*
X109041383Y-109623933D01*
X108955824Y-109417376D01*
X108831612Y-109231480D01*
X108673520Y-109073388D01*
X108487624Y-108949176D01*
X108281067Y-108863617D01*
X108061788Y-108820000D01*
X107838212Y-108820000D01*
X107618933Y-108863617D01*
X107412376Y-108949176D01*
X107226480Y-109073388D01*
X107068388Y-109231480D01*
X106944176Y-109417376D01*
X106858617Y-109623933D01*
X106815000Y-109843212D01*
X90660000Y-109843212D01*
X90660000Y-106264531D01*
X91415074Y-106264531D01*
X91525921Y-106541714D01*
X91836840Y-106695089D01*
X92171705Y-106784860D01*
X92517650Y-106807576D01*
X92861380Y-106762366D01*
X93189685Y-106650966D01*
X93394079Y-106541714D01*
X93504926Y-106264531D01*
X96495074Y-106264531D01*
X96605921Y-106541714D01*
X96916840Y-106695089D01*
X97251705Y-106784860D01*
X97597650Y-106807576D01*
X97941380Y-106762366D01*
X98269685Y-106650966D01*
X98474079Y-106541714D01*
X98584926Y-106264531D01*
X97540000Y-105219605D01*
X96495074Y-106264531D01*
X93504926Y-106264531D01*
X92460000Y-105219605D01*
X91415074Y-106264531D01*
X90660000Y-106264531D01*
X90660000Y-105097650D01*
X90692424Y-105097650D01*
X90737634Y-105441380D01*
X90849034Y-105769685D01*
X90958286Y-105974079D01*
X91235469Y-106084926D01*
X92280395Y-105040000D01*
X92639605Y-105040000D01*
X93684531Y-106084926D01*
X93961714Y-105974079D01*
X94115089Y-105663160D01*
X94204860Y-105328295D01*
X94220004Y-105097650D01*
X95772424Y-105097650D01*
X95817634Y-105441380D01*
X95929034Y-105769685D01*
X96038286Y-105974079D01*
X96315469Y-106084926D01*
X97360395Y-105040000D01*
X97719605Y-105040000D01*
X98764531Y-106084926D01*
X98962482Y-106005764D01*
X129885841Y-106005764D01*
X129933148Y-106229348D01*
X130154516Y-106330237D01*
X130391313Y-106386000D01*
X130634438Y-106394495D01*
X130874549Y-106355395D01*
X131102418Y-106270202D01*
X131178852Y-106229348D01*
X131226159Y-106005764D01*
X130556000Y-105335605D01*
X129885841Y-106005764D01*
X98962482Y-106005764D01*
X99041714Y-105974079D01*
X99195089Y-105663160D01*
X99284860Y-105328295D01*
X99291022Y-105234438D01*
X129317505Y-105234438D01*
X129356605Y-105474549D01*
X129441798Y-105702418D01*
X129482652Y-105778852D01*
X129706236Y-105826159D01*
X130376395Y-105156000D01*
X130735605Y-105156000D01*
X131405764Y-105826159D01*
X131629348Y-105778852D01*
X131730237Y-105557484D01*
X131786000Y-105320687D01*
X131794495Y-105077562D01*
X131755395Y-104837451D01*
X131670202Y-104609582D01*
X131629348Y-104533148D01*
X131405764Y-104485841D01*
X130735605Y-105156000D01*
X130376395Y-105156000D01*
X129706236Y-104485841D01*
X129482652Y-104533148D01*
X129381763Y-104754516D01*
X129326000Y-104991313D01*
X129317505Y-105234438D01*
X99291022Y-105234438D01*
X99307576Y-104982350D01*
X99262366Y-104638620D01*
X99150966Y-104310315D01*
X99148786Y-104306236D01*
X129885841Y-104306236D01*
X130556000Y-104976395D01*
X131226159Y-104306236D01*
X131178852Y-104082652D01*
X130957484Y-103981763D01*
X130720687Y-103926000D01*
X130477562Y-103917505D01*
X130237451Y-103956605D01*
X130009582Y-104041798D01*
X129933148Y-104082652D01*
X129885841Y-104306236D01*
X99148786Y-104306236D01*
X99041714Y-104105921D01*
X98764531Y-103995074D01*
X97719605Y-105040000D01*
X97360395Y-105040000D01*
X96315469Y-103995074D01*
X96038286Y-104105921D01*
X95884911Y-104416840D01*
X95795140Y-104751705D01*
X95772424Y-105097650D01*
X94220004Y-105097650D01*
X94227576Y-104982350D01*
X94182366Y-104638620D01*
X94070966Y-104310315D01*
X93961714Y-104105921D01*
X93684531Y-103995074D01*
X92639605Y-105040000D01*
X92280395Y-105040000D01*
X91235469Y-103995074D01*
X90958286Y-104105921D01*
X90804911Y-104416840D01*
X90715140Y-104751705D01*
X90692424Y-105097650D01*
X90660000Y-105097650D01*
X90660000Y-103815469D01*
X91415074Y-103815469D01*
X92460000Y-104860395D01*
X93504926Y-103815469D01*
X93394079Y-103538286D01*
X93083160Y-103384911D01*
X92748295Y-103295140D01*
X92402350Y-103272424D01*
X92058620Y-103317634D01*
X91730315Y-103429034D01*
X91525921Y-103538286D01*
X91415074Y-103815469D01*
X90660000Y-103815469D01*
X90660000Y-102326655D01*
X93240000Y-102326655D01*
X93240000Y-102673345D01*
X93307636Y-103013373D01*
X93440308Y-103333673D01*
X93632919Y-103621935D01*
X93878065Y-103867081D01*
X94166327Y-104059692D01*
X94486627Y-104192364D01*
X94826655Y-104260000D01*
X95173345Y-104260000D01*
X95513373Y-104192364D01*
X95833673Y-104059692D01*
X96121935Y-103867081D01*
X96354016Y-103635000D01*
X96567245Y-103635000D01*
X96495074Y-103815469D01*
X97540000Y-104860395D01*
X98584926Y-103815469D01*
X98512755Y-103635000D01*
X100644249Y-103635000D01*
X100700000Y-103640491D01*
X100755751Y-103635000D01*
X100755752Y-103635000D01*
X100922499Y-103618577D01*
X101136447Y-103553676D01*
X101333623Y-103448284D01*
X101506449Y-103306449D01*
X101522723Y-103286619D01*
X101526308Y-103285134D01*
X101720394Y-103155450D01*
X101885450Y-102990394D01*
X102015134Y-102796308D01*
X102104461Y-102580652D01*
X102150000Y-102351712D01*
X102150000Y-102118288D01*
X102104461Y-101889348D01*
X102015134Y-101673692D01*
X101885450Y-101479606D01*
X101839608Y-101433764D01*
X129885841Y-101433764D01*
X129933148Y-101657348D01*
X130154516Y-101758237D01*
X130391313Y-101814000D01*
X130634438Y-101822495D01*
X130874549Y-101783395D01*
X131102418Y-101698202D01*
X131178852Y-101657348D01*
X131226159Y-101433764D01*
X130556000Y-100763605D01*
X129885841Y-101433764D01*
X101839608Y-101433764D01*
X101720394Y-101314550D01*
X101526308Y-101184866D01*
X101310652Y-101095539D01*
X101081712Y-101050000D01*
X100848288Y-101050000D01*
X100619348Y-101095539D01*
X100403692Y-101184866D01*
X100209606Y-101314550D01*
X100159156Y-101365000D01*
X98512755Y-101365000D01*
X98584926Y-101184531D01*
X97540000Y-100139605D01*
X96495074Y-101184531D01*
X96567245Y-101365000D01*
X96354016Y-101365000D01*
X96121935Y-101132919D01*
X95833673Y-100940308D01*
X95513373Y-100807636D01*
X95173345Y-100740000D01*
X94826655Y-100740000D01*
X94486627Y-100807636D01*
X94166327Y-100940308D01*
X93878065Y-101132919D01*
X93632919Y-101378065D01*
X93440308Y-101666327D01*
X93307636Y-101986627D01*
X93240000Y-102326655D01*
X90660000Y-102326655D01*
X90660000Y-101184531D01*
X91415074Y-101184531D01*
X91525921Y-101461714D01*
X91836840Y-101615089D01*
X92171705Y-101704860D01*
X92517650Y-101727576D01*
X92861380Y-101682366D01*
X93189685Y-101570966D01*
X93394079Y-101461714D01*
X93504926Y-101184531D01*
X92460000Y-100139605D01*
X91415074Y-101184531D01*
X90660000Y-101184531D01*
X90660000Y-100017650D01*
X90692424Y-100017650D01*
X90737634Y-100361380D01*
X90849034Y-100689685D01*
X90958286Y-100894079D01*
X91235469Y-101004926D01*
X92280395Y-99960000D01*
X92639605Y-99960000D01*
X93684531Y-101004926D01*
X93961714Y-100894079D01*
X94115089Y-100583160D01*
X94204860Y-100248295D01*
X94220004Y-100017650D01*
X95772424Y-100017650D01*
X95817634Y-100361380D01*
X95929034Y-100689685D01*
X96038286Y-100894079D01*
X96315469Y-101004926D01*
X97360395Y-99960000D01*
X97719605Y-99960000D01*
X98764531Y-101004926D01*
X99041714Y-100894079D01*
X99155981Y-100662438D01*
X129317505Y-100662438D01*
X129356605Y-100902549D01*
X129441798Y-101130418D01*
X129482652Y-101206852D01*
X129706236Y-101254159D01*
X130376395Y-100584000D01*
X130735605Y-100584000D01*
X131405764Y-101254159D01*
X131629348Y-101206852D01*
X131730237Y-100985484D01*
X131786000Y-100748687D01*
X131794495Y-100505562D01*
X131780198Y-100417764D01*
X144109841Y-100417764D01*
X144157148Y-100641348D01*
X144378516Y-100742237D01*
X144615313Y-100798000D01*
X144858438Y-100806495D01*
X145098549Y-100767395D01*
X145326418Y-100682202D01*
X145402852Y-100641348D01*
X145450159Y-100417764D01*
X144780000Y-99747605D01*
X144109841Y-100417764D01*
X131780198Y-100417764D01*
X131755395Y-100265451D01*
X131670202Y-100037582D01*
X131629348Y-99961148D01*
X131405764Y-99913841D01*
X130735605Y-100584000D01*
X130376395Y-100584000D01*
X129706236Y-99913841D01*
X129482652Y-99961148D01*
X129381763Y-100182516D01*
X129326000Y-100419313D01*
X129317505Y-100662438D01*
X99155981Y-100662438D01*
X99195089Y-100583160D01*
X99284860Y-100248295D01*
X99307576Y-99902350D01*
X99285465Y-99734236D01*
X129885841Y-99734236D01*
X130556000Y-100404395D01*
X131226159Y-99734236D01*
X131207583Y-99646438D01*
X143541505Y-99646438D01*
X143580605Y-99886549D01*
X143665798Y-100114418D01*
X143706652Y-100190852D01*
X143930236Y-100238159D01*
X144600395Y-99568000D01*
X144959605Y-99568000D01*
X145629764Y-100238159D01*
X145853348Y-100190852D01*
X145954237Y-99969484D01*
X146010000Y-99732687D01*
X146018495Y-99489562D01*
X145979395Y-99249451D01*
X145894202Y-99021582D01*
X145853348Y-98945148D01*
X145629764Y-98897841D01*
X144959605Y-99568000D01*
X144600395Y-99568000D01*
X143930236Y-98897841D01*
X143706652Y-98945148D01*
X143605763Y-99166516D01*
X143550000Y-99403313D01*
X143541505Y-99646438D01*
X131207583Y-99646438D01*
X131178852Y-99510652D01*
X130957484Y-99409763D01*
X130720687Y-99354000D01*
X130477562Y-99345505D01*
X130237451Y-99384605D01*
X130009582Y-99469798D01*
X129933148Y-99510652D01*
X129885841Y-99734236D01*
X99285465Y-99734236D01*
X99262366Y-99558620D01*
X99150966Y-99230315D01*
X99041714Y-99025921D01*
X98764531Y-98915074D01*
X97719605Y-99960000D01*
X97360395Y-99960000D01*
X96315469Y-98915074D01*
X96038286Y-99025921D01*
X95884911Y-99336840D01*
X95795140Y-99671705D01*
X95772424Y-100017650D01*
X94220004Y-100017650D01*
X94227576Y-99902350D01*
X94182366Y-99558620D01*
X94070966Y-99230315D01*
X93961714Y-99025921D01*
X93684531Y-98915074D01*
X92639605Y-99960000D01*
X92280395Y-99960000D01*
X91235469Y-98915074D01*
X90958286Y-99025921D01*
X90804911Y-99336840D01*
X90715140Y-99671705D01*
X90692424Y-100017650D01*
X90660000Y-100017650D01*
X90660000Y-98735469D01*
X91415074Y-98735469D01*
X92460000Y-99780395D01*
X93504926Y-98735469D01*
X96495074Y-98735469D01*
X97540000Y-99780395D01*
X98584926Y-98735469D01*
X98578035Y-98718236D01*
X144109841Y-98718236D01*
X144780000Y-99388395D01*
X145450159Y-98718236D01*
X145402852Y-98494652D01*
X145181484Y-98393763D01*
X144944687Y-98338000D01*
X144701562Y-98329505D01*
X144461451Y-98368605D01*
X144233582Y-98453798D01*
X144157148Y-98494652D01*
X144109841Y-98718236D01*
X98578035Y-98718236D01*
X98474079Y-98458286D01*
X98163160Y-98304911D01*
X97828295Y-98215140D01*
X97482350Y-98192424D01*
X97138620Y-98237634D01*
X96810315Y-98349034D01*
X96605921Y-98458286D01*
X96495074Y-98735469D01*
X93504926Y-98735469D01*
X93394079Y-98458286D01*
X93083160Y-98304911D01*
X92748295Y-98215140D01*
X92402350Y-98192424D01*
X92058620Y-98237634D01*
X91730315Y-98349034D01*
X91525921Y-98458286D01*
X91415074Y-98735469D01*
X90660000Y-98735469D01*
X90660000Y-97877764D01*
X129885841Y-97877764D01*
X129933148Y-98101348D01*
X130154516Y-98202237D01*
X130391313Y-98258000D01*
X130634438Y-98266495D01*
X130874549Y-98227395D01*
X131102418Y-98142202D01*
X131178852Y-98101348D01*
X131226159Y-97877764D01*
X134457841Y-97877764D01*
X134505148Y-98101348D01*
X134726516Y-98202237D01*
X134963313Y-98258000D01*
X135206438Y-98266495D01*
X135446549Y-98227395D01*
X135674418Y-98142202D01*
X135750852Y-98101348D01*
X135798159Y-97877764D01*
X138521841Y-97877764D01*
X138569148Y-98101348D01*
X138790516Y-98202237D01*
X139027313Y-98258000D01*
X139270438Y-98266495D01*
X139510549Y-98227395D01*
X139738418Y-98142202D01*
X139814852Y-98101348D01*
X139862159Y-97877764D01*
X139192000Y-97207605D01*
X138521841Y-97877764D01*
X135798159Y-97877764D01*
X135128000Y-97207605D01*
X134457841Y-97877764D01*
X131226159Y-97877764D01*
X130556000Y-97207605D01*
X129885841Y-97877764D01*
X90660000Y-97877764D01*
X90660000Y-95038212D01*
X106815000Y-95038212D01*
X106815000Y-95261788D01*
X106858617Y-95481067D01*
X106944176Y-95687624D01*
X107068388Y-95873520D01*
X107226480Y-96031612D01*
X107412376Y-96155824D01*
X107618933Y-96241383D01*
X107838212Y-96285000D01*
X108061788Y-96285000D01*
X108281067Y-96241383D01*
X108487624Y-96155824D01*
X108673520Y-96031612D01*
X108831612Y-95873520D01*
X108955824Y-95687624D01*
X109041383Y-95481067D01*
X109085000Y-95261788D01*
X109085000Y-95150000D01*
X123954509Y-95150000D01*
X123960000Y-95205752D01*
X123960000Y-95261788D01*
X123970932Y-95316747D01*
X123976423Y-95372499D01*
X123992685Y-95426106D01*
X124003617Y-95481067D01*
X124025063Y-95532842D01*
X124041324Y-95586447D01*
X124067731Y-95635851D01*
X124089176Y-95687624D01*
X124120307Y-95734214D01*
X124146716Y-95783623D01*
X124182259Y-95826932D01*
X124213388Y-95873520D01*
X124253009Y-95913141D01*
X124288551Y-95956449D01*
X124331859Y-95991991D01*
X124371480Y-96031612D01*
X124418068Y-96062741D01*
X124461377Y-96098284D01*
X124510786Y-96124693D01*
X124557376Y-96155824D01*
X124609149Y-96177269D01*
X124658553Y-96203676D01*
X124712158Y-96219937D01*
X124763933Y-96241383D01*
X124818894Y-96252315D01*
X124872501Y-96268577D01*
X124928253Y-96274068D01*
X124983212Y-96285000D01*
X129633392Y-96285000D01*
X129706234Y-96357842D01*
X129482652Y-96405148D01*
X129381763Y-96626516D01*
X129326000Y-96863313D01*
X129317505Y-97106438D01*
X129356605Y-97346549D01*
X129441798Y-97574418D01*
X129482652Y-97650852D01*
X129706236Y-97698159D01*
X130376395Y-97028000D01*
X130362253Y-97013858D01*
X130541858Y-96834253D01*
X130556000Y-96848395D01*
X130570143Y-96834253D01*
X130749748Y-97013858D01*
X130735605Y-97028000D01*
X131405764Y-97698159D01*
X131629348Y-97650852D01*
X131730237Y-97429484D01*
X131786000Y-97192687D01*
X131794495Y-96949562D01*
X131755395Y-96709451D01*
X131670202Y-96481582D01*
X131629348Y-96405148D01*
X131405766Y-96357842D01*
X131478608Y-96285000D01*
X134205392Y-96285000D01*
X134278234Y-96357842D01*
X134054652Y-96405148D01*
X133953763Y-96626516D01*
X133898000Y-96863313D01*
X133889505Y-97106438D01*
X133928605Y-97346549D01*
X134013798Y-97574418D01*
X134054652Y-97650852D01*
X134278236Y-97698159D01*
X134948395Y-97028000D01*
X134934253Y-97013858D01*
X135113858Y-96834253D01*
X135128000Y-96848395D01*
X135142143Y-96834253D01*
X135321748Y-97013858D01*
X135307605Y-97028000D01*
X135977764Y-97698159D01*
X136201348Y-97650852D01*
X136302237Y-97429484D01*
X136358000Y-97192687D01*
X136366495Y-96949562D01*
X136327395Y-96709451D01*
X136242202Y-96481582D01*
X136201348Y-96405148D01*
X135977766Y-96357842D01*
X136050608Y-96285000D01*
X138269392Y-96285000D01*
X138342234Y-96357842D01*
X138118652Y-96405148D01*
X138017763Y-96626516D01*
X137962000Y-96863313D01*
X137953505Y-97106438D01*
X137992605Y-97346549D01*
X138077798Y-97574418D01*
X138118652Y-97650852D01*
X138342236Y-97698159D01*
X139012395Y-97028000D01*
X138998253Y-97013858D01*
X139177858Y-96834253D01*
X139192000Y-96848395D01*
X139206143Y-96834253D01*
X139385748Y-97013858D01*
X139371605Y-97028000D01*
X140041764Y-97698159D01*
X140265348Y-97650852D01*
X140366237Y-97429484D01*
X140422000Y-97192687D01*
X140430495Y-96949562D01*
X140391395Y-96709451D01*
X140306202Y-96481582D01*
X140265348Y-96405148D01*
X140041766Y-96357842D01*
X140114608Y-96285000D01*
X142284249Y-96285000D01*
X142340000Y-96290491D01*
X142395751Y-96285000D01*
X142395752Y-96285000D01*
X142562499Y-96268577D01*
X142776447Y-96203676D01*
X142973623Y-96098284D01*
X143146449Y-95956449D01*
X143181996Y-95913135D01*
X144908140Y-94186991D01*
X144951449Y-94151449D01*
X145093284Y-93978623D01*
X145198676Y-93781447D01*
X145263577Y-93567499D01*
X145280000Y-93400752D01*
X145280000Y-93400743D01*
X145285490Y-93345001D01*
X145280000Y-93289259D01*
X145280000Y-92431422D01*
X145284461Y-92420652D01*
X145330000Y-92191712D01*
X145330000Y-91958288D01*
X146770000Y-91958288D01*
X146770000Y-92191712D01*
X146815539Y-92420652D01*
X146820000Y-92431422D01*
X146820001Y-109498576D01*
X146815539Y-109509348D01*
X146770000Y-109738288D01*
X146770000Y-109971712D01*
X146815539Y-110200652D01*
X146904866Y-110416308D01*
X147034550Y-110610394D01*
X147199606Y-110775450D01*
X147393692Y-110905134D01*
X147609348Y-110994461D01*
X147838288Y-111040000D01*
X148071712Y-111040000D01*
X148300652Y-110994461D01*
X148516308Y-110905134D01*
X148710394Y-110775450D01*
X148875450Y-110610394D01*
X148963771Y-110478212D01*
X163330000Y-110478212D01*
X163330000Y-110701788D01*
X163373617Y-110921067D01*
X163459176Y-111127624D01*
X163583388Y-111313520D01*
X163741480Y-111471612D01*
X163927376Y-111595824D01*
X164133933Y-111681383D01*
X164353212Y-111725000D01*
X164576788Y-111725000D01*
X164796067Y-111681383D01*
X165002624Y-111595824D01*
X165188520Y-111471612D01*
X165346612Y-111313520D01*
X165470824Y-111127624D01*
X165556383Y-110921067D01*
X165600000Y-110701788D01*
X165600000Y-110478212D01*
X179840000Y-110478212D01*
X179840000Y-110701788D01*
X179883617Y-110921067D01*
X179969176Y-111127624D01*
X180093388Y-111313520D01*
X180251480Y-111471612D01*
X180437376Y-111595824D01*
X180643933Y-111681383D01*
X180863212Y-111725000D01*
X181086788Y-111725000D01*
X181306067Y-111681383D01*
X181512624Y-111595824D01*
X181698520Y-111471612D01*
X181856612Y-111313520D01*
X181980824Y-111127624D01*
X182066383Y-110921067D01*
X182110000Y-110701788D01*
X182110000Y-110478212D01*
X182066383Y-110258933D01*
X181980824Y-110052376D01*
X181856612Y-109866480D01*
X181698520Y-109708388D01*
X181512624Y-109584176D01*
X181306067Y-109498617D01*
X181086788Y-109455000D01*
X180863212Y-109455000D01*
X180643933Y-109498617D01*
X180437376Y-109584176D01*
X180251480Y-109708388D01*
X180093388Y-109866480D01*
X179969176Y-110052376D01*
X179883617Y-110258933D01*
X179840000Y-110478212D01*
X165600000Y-110478212D01*
X165556383Y-110258933D01*
X165470824Y-110052376D01*
X165346612Y-109866480D01*
X165188520Y-109708388D01*
X165002624Y-109584176D01*
X164796067Y-109498617D01*
X164576788Y-109455000D01*
X164353212Y-109455000D01*
X164133933Y-109498617D01*
X163927376Y-109584176D01*
X163741480Y-109708388D01*
X163583388Y-109866480D01*
X163459176Y-110052376D01*
X163373617Y-110258933D01*
X163330000Y-110478212D01*
X148963771Y-110478212D01*
X149005134Y-110416308D01*
X149094461Y-110200652D01*
X149140000Y-109971712D01*
X149140000Y-109738288D01*
X149094461Y-109509348D01*
X149090000Y-109498578D01*
X149090000Y-106264531D01*
X192415074Y-106264531D01*
X192525921Y-106541714D01*
X192836840Y-106695089D01*
X193171705Y-106784860D01*
X193517650Y-106807576D01*
X193861380Y-106762366D01*
X194189685Y-106650966D01*
X194394079Y-106541714D01*
X194504926Y-106264531D01*
X197495074Y-106264531D01*
X197605921Y-106541714D01*
X197916840Y-106695089D01*
X198251705Y-106784860D01*
X198597650Y-106807576D01*
X198941380Y-106762366D01*
X199269685Y-106650966D01*
X199474079Y-106541714D01*
X199584926Y-106264531D01*
X198540000Y-105219605D01*
X197495074Y-106264531D01*
X194504926Y-106264531D01*
X193460000Y-105219605D01*
X192415074Y-106264531D01*
X149090000Y-106264531D01*
X149090000Y-105497764D01*
X158333841Y-105497764D01*
X158381148Y-105721348D01*
X158602516Y-105822237D01*
X158839313Y-105878000D01*
X159082438Y-105886495D01*
X159322549Y-105847395D01*
X159550418Y-105762202D01*
X159626852Y-105721348D01*
X159674159Y-105497764D01*
X159004000Y-104827605D01*
X158333841Y-105497764D01*
X149090000Y-105497764D01*
X149090000Y-104726438D01*
X157765505Y-104726438D01*
X157804605Y-104966549D01*
X157889798Y-105194418D01*
X157930652Y-105270852D01*
X158154236Y-105318159D01*
X158824395Y-104648000D01*
X159183605Y-104648000D01*
X159853764Y-105318159D01*
X160077348Y-105270852D01*
X160156285Y-105097650D01*
X191692424Y-105097650D01*
X191737634Y-105441380D01*
X191849034Y-105769685D01*
X191958286Y-105974079D01*
X192235469Y-106084926D01*
X193280395Y-105040000D01*
X193639605Y-105040000D01*
X194684531Y-106084926D01*
X194961714Y-105974079D01*
X195115089Y-105663160D01*
X195204860Y-105328295D01*
X195220004Y-105097650D01*
X196772424Y-105097650D01*
X196817634Y-105441380D01*
X196929034Y-105769685D01*
X197038286Y-105974079D01*
X197315469Y-106084926D01*
X198360395Y-105040000D01*
X198719605Y-105040000D01*
X199764531Y-106084926D01*
X200041714Y-105974079D01*
X200195089Y-105663160D01*
X200284860Y-105328295D01*
X200307576Y-104982350D01*
X200262366Y-104638620D01*
X200150966Y-104310315D01*
X200041714Y-104105921D01*
X199764531Y-103995074D01*
X198719605Y-105040000D01*
X198360395Y-105040000D01*
X197315469Y-103995074D01*
X197038286Y-104105921D01*
X196884911Y-104416840D01*
X196795140Y-104751705D01*
X196772424Y-105097650D01*
X195220004Y-105097650D01*
X195227576Y-104982350D01*
X195182366Y-104638620D01*
X195070966Y-104310315D01*
X194961714Y-104105921D01*
X194684531Y-103995074D01*
X193639605Y-105040000D01*
X193280395Y-105040000D01*
X192235469Y-103995074D01*
X191958286Y-104105921D01*
X191804911Y-104416840D01*
X191715140Y-104751705D01*
X191692424Y-105097650D01*
X160156285Y-105097650D01*
X160178237Y-105049484D01*
X160234000Y-104812687D01*
X160242495Y-104569562D01*
X160203395Y-104329451D01*
X160118202Y-104101582D01*
X160077348Y-104025148D01*
X159853764Y-103977841D01*
X159183605Y-104648000D01*
X158824395Y-104648000D01*
X158154236Y-103977841D01*
X157930652Y-104025148D01*
X157829763Y-104246516D01*
X157774000Y-104483313D01*
X157765505Y-104726438D01*
X149090000Y-104726438D01*
X149090000Y-103798236D01*
X158333841Y-103798236D01*
X159004000Y-104468395D01*
X159674159Y-103798236D01*
X159626852Y-103574652D01*
X159405484Y-103473763D01*
X159168687Y-103418000D01*
X158925562Y-103409505D01*
X158685451Y-103448605D01*
X158457582Y-103533798D01*
X158381148Y-103574652D01*
X158333841Y-103798236D01*
X149090000Y-103798236D01*
X149090000Y-101941764D01*
X158333841Y-101941764D01*
X158381148Y-102165348D01*
X158602516Y-102266237D01*
X158839313Y-102322000D01*
X159082438Y-102330495D01*
X159322549Y-102291395D01*
X159550418Y-102206202D01*
X159626852Y-102165348D01*
X159636809Y-102118288D01*
X187410000Y-102118288D01*
X187410000Y-102351712D01*
X187455539Y-102580652D01*
X187544866Y-102796308D01*
X187674550Y-102990394D01*
X187839606Y-103155450D01*
X188033692Y-103285134D01*
X188249348Y-103374461D01*
X188478288Y-103420000D01*
X188711712Y-103420000D01*
X188940652Y-103374461D01*
X188951422Y-103370000D01*
X192904293Y-103370000D01*
X192730315Y-103429034D01*
X192525921Y-103538286D01*
X192415074Y-103815469D01*
X193460000Y-104860395D01*
X194504926Y-103815469D01*
X194432755Y-103635000D01*
X194645984Y-103635000D01*
X194878065Y-103867081D01*
X195166327Y-104059692D01*
X195486627Y-104192364D01*
X195826655Y-104260000D01*
X196173345Y-104260000D01*
X196513373Y-104192364D01*
X196833673Y-104059692D01*
X197121935Y-103867081D01*
X197173547Y-103815469D01*
X197495074Y-103815469D01*
X198540000Y-104860395D01*
X199584926Y-103815469D01*
X199474079Y-103538286D01*
X199163160Y-103384911D01*
X198828295Y-103295140D01*
X198482350Y-103272424D01*
X198138620Y-103317634D01*
X197810315Y-103429034D01*
X197605921Y-103538286D01*
X197495074Y-103815469D01*
X197173547Y-103815469D01*
X197367081Y-103621935D01*
X197559692Y-103333673D01*
X197692364Y-103013373D01*
X197760000Y-102673345D01*
X197760000Y-102326655D01*
X197692364Y-101986627D01*
X197559692Y-101666327D01*
X197367081Y-101378065D01*
X197173547Y-101184531D01*
X197495074Y-101184531D01*
X197605921Y-101461714D01*
X197916840Y-101615089D01*
X198251705Y-101704860D01*
X198597650Y-101727576D01*
X198941380Y-101682366D01*
X199269685Y-101570966D01*
X199474079Y-101461714D01*
X199584926Y-101184531D01*
X198540000Y-100139605D01*
X197495074Y-101184531D01*
X197173547Y-101184531D01*
X197121935Y-101132919D01*
X196833673Y-100940308D01*
X196513373Y-100807636D01*
X196173345Y-100740000D01*
X195826655Y-100740000D01*
X195486627Y-100807636D01*
X195166327Y-100940308D01*
X194878065Y-101132919D01*
X194645984Y-101365000D01*
X194432755Y-101365000D01*
X194504926Y-101184531D01*
X193460000Y-100139605D01*
X193445858Y-100153748D01*
X193266253Y-99974143D01*
X193280395Y-99960000D01*
X193639605Y-99960000D01*
X194684531Y-101004926D01*
X194961714Y-100894079D01*
X195115089Y-100583160D01*
X195204860Y-100248295D01*
X195220004Y-100017650D01*
X196772424Y-100017650D01*
X196817634Y-100361380D01*
X196929034Y-100689685D01*
X197038286Y-100894079D01*
X197315469Y-101004926D01*
X198360395Y-99960000D01*
X198719605Y-99960000D01*
X199764531Y-101004926D01*
X200041714Y-100894079D01*
X200195089Y-100583160D01*
X200284860Y-100248295D01*
X200307576Y-99902350D01*
X200262366Y-99558620D01*
X200150966Y-99230315D01*
X200041714Y-99025921D01*
X199764531Y-98915074D01*
X198719605Y-99960000D01*
X198360395Y-99960000D01*
X197315469Y-98915074D01*
X197038286Y-99025921D01*
X196884911Y-99336840D01*
X196795140Y-99671705D01*
X196772424Y-100017650D01*
X195220004Y-100017650D01*
X195227576Y-99902350D01*
X195182366Y-99558620D01*
X195070966Y-99230315D01*
X194961714Y-99025921D01*
X194684531Y-98915074D01*
X193639605Y-99960000D01*
X193280395Y-99960000D01*
X192235469Y-98915074D01*
X191958286Y-99025921D01*
X191804911Y-99336840D01*
X191715140Y-99671705D01*
X191692424Y-100017650D01*
X191737634Y-100361380D01*
X191849034Y-100689685D01*
X191958286Y-100894079D01*
X192235467Y-101004925D01*
X192140392Y-101100000D01*
X188951422Y-101100000D01*
X188940652Y-101095539D01*
X188711712Y-101050000D01*
X188478288Y-101050000D01*
X188249348Y-101095539D01*
X188033692Y-101184866D01*
X187839606Y-101314550D01*
X187674550Y-101479606D01*
X187544866Y-101673692D01*
X187455539Y-101889348D01*
X187410000Y-102118288D01*
X159636809Y-102118288D01*
X159674159Y-101941764D01*
X159004000Y-101271605D01*
X158333841Y-101941764D01*
X149090000Y-101941764D01*
X149090000Y-101170438D01*
X157765505Y-101170438D01*
X157804605Y-101410549D01*
X157889798Y-101638418D01*
X157930652Y-101714852D01*
X158154236Y-101762159D01*
X158824395Y-101092000D01*
X159183605Y-101092000D01*
X159853764Y-101762159D01*
X160077348Y-101714852D01*
X160178237Y-101493484D01*
X160234000Y-101256687D01*
X160242495Y-101013562D01*
X160203395Y-100773451D01*
X160118202Y-100545582D01*
X160077348Y-100469148D01*
X159853764Y-100421841D01*
X159183605Y-101092000D01*
X158824395Y-101092000D01*
X158154236Y-100421841D01*
X157930652Y-100469148D01*
X157829763Y-100690516D01*
X157774000Y-100927313D01*
X157765505Y-101170438D01*
X149090000Y-101170438D01*
X149090000Y-100242236D01*
X158333841Y-100242236D01*
X159004000Y-100912395D01*
X159674159Y-100242236D01*
X159626852Y-100018652D01*
X159405484Y-99917763D01*
X159168687Y-99862000D01*
X158925562Y-99853505D01*
X158685451Y-99892605D01*
X158457582Y-99977798D01*
X158381148Y-100018652D01*
X158333841Y-100242236D01*
X149090000Y-100242236D01*
X149090000Y-98735469D01*
X192415074Y-98735469D01*
X193460000Y-99780395D01*
X194504926Y-98735469D01*
X197495074Y-98735469D01*
X198540000Y-99780395D01*
X199584926Y-98735469D01*
X199474079Y-98458286D01*
X199163160Y-98304911D01*
X198828295Y-98215140D01*
X198482350Y-98192424D01*
X198138620Y-98237634D01*
X197810315Y-98349034D01*
X197605921Y-98458286D01*
X197495074Y-98735469D01*
X194504926Y-98735469D01*
X194394079Y-98458286D01*
X194083160Y-98304911D01*
X193748295Y-98215140D01*
X193402350Y-98192424D01*
X193058620Y-98237634D01*
X192730315Y-98349034D01*
X192525921Y-98458286D01*
X192415074Y-98735469D01*
X149090000Y-98735469D01*
X149090000Y-97977608D01*
X149189842Y-97877766D01*
X149237148Y-98101348D01*
X149458516Y-98202237D01*
X149695313Y-98258000D01*
X149938438Y-98266495D01*
X150178549Y-98227395D01*
X150406418Y-98142202D01*
X150482852Y-98101348D01*
X150530159Y-97877764D01*
X154777841Y-97877764D01*
X154825148Y-98101348D01*
X155046516Y-98202237D01*
X155283313Y-98258000D01*
X155526438Y-98266495D01*
X155766549Y-98227395D01*
X155994418Y-98142202D01*
X156070852Y-98101348D01*
X156118159Y-97877764D01*
X155448000Y-97207605D01*
X154777841Y-97877764D01*
X150530159Y-97877764D01*
X149860000Y-97207605D01*
X149845858Y-97221748D01*
X149666253Y-97042143D01*
X149680395Y-97028000D01*
X150039605Y-97028000D01*
X150709764Y-97698159D01*
X150933348Y-97650852D01*
X151034237Y-97429484D01*
X151090000Y-97192687D01*
X151093013Y-97106438D01*
X154209505Y-97106438D01*
X154248605Y-97346549D01*
X154333798Y-97574418D01*
X154374652Y-97650852D01*
X154598236Y-97698159D01*
X155268395Y-97028000D01*
X155627605Y-97028000D01*
X156297764Y-97698159D01*
X156521348Y-97650852D01*
X156622237Y-97429484D01*
X156678000Y-97192687D01*
X156686495Y-96949562D01*
X156647395Y-96709451D01*
X156562202Y-96481582D01*
X156521348Y-96405148D01*
X156297764Y-96357841D01*
X155627605Y-97028000D01*
X155268395Y-97028000D01*
X154598236Y-96357841D01*
X154374652Y-96405148D01*
X154273763Y-96626516D01*
X154218000Y-96863313D01*
X154209505Y-97106438D01*
X151093013Y-97106438D01*
X151098495Y-96949562D01*
X151059395Y-96709451D01*
X150974202Y-96481582D01*
X150933348Y-96405148D01*
X150709764Y-96357841D01*
X150039605Y-97028000D01*
X149680395Y-97028000D01*
X149666253Y-97013858D01*
X149845858Y-96834253D01*
X149860000Y-96848395D01*
X150530159Y-96178236D01*
X154777841Y-96178236D01*
X155448000Y-96848395D01*
X156118159Y-96178236D01*
X156070852Y-95954652D01*
X155849484Y-95853763D01*
X155612687Y-95798000D01*
X155369562Y-95789505D01*
X155129451Y-95828605D01*
X154901582Y-95913798D01*
X154825148Y-95954652D01*
X154777841Y-96178236D01*
X150530159Y-96178236D01*
X150482852Y-95954652D01*
X150261484Y-95853763D01*
X150024687Y-95798000D01*
X149781562Y-95789505D01*
X149541451Y-95828605D01*
X149313582Y-95913798D01*
X149237148Y-95954652D01*
X149189842Y-96178234D01*
X149090000Y-96078392D01*
X149090000Y-94829764D01*
X158333841Y-94829764D01*
X158381148Y-95053348D01*
X158602516Y-95154237D01*
X158839313Y-95210000D01*
X159082438Y-95218495D01*
X159322549Y-95179395D01*
X159550418Y-95094202D01*
X159580333Y-95078212D01*
X163330000Y-95078212D01*
X163330000Y-95301788D01*
X163373617Y-95521067D01*
X163459176Y-95727624D01*
X163583388Y-95913520D01*
X163741480Y-96071612D01*
X163927376Y-96195824D01*
X164133933Y-96281383D01*
X164353212Y-96325000D01*
X164576788Y-96325000D01*
X164796067Y-96281383D01*
X165002624Y-96195824D01*
X165188520Y-96071612D01*
X165346612Y-95913520D01*
X165470824Y-95727624D01*
X165556383Y-95521067D01*
X165600000Y-95301788D01*
X165600000Y-95078212D01*
X179840000Y-95078212D01*
X179840000Y-95301788D01*
X179883617Y-95521067D01*
X179969176Y-95727624D01*
X180093388Y-95913520D01*
X180251480Y-96071612D01*
X180437376Y-96195824D01*
X180643933Y-96281383D01*
X180863212Y-96325000D01*
X181086788Y-96325000D01*
X181306067Y-96281383D01*
X181512624Y-96195824D01*
X181698520Y-96071612D01*
X181856612Y-95913520D01*
X181980824Y-95727624D01*
X182066383Y-95521067D01*
X182110000Y-95301788D01*
X182110000Y-95078212D01*
X182066383Y-94858933D01*
X181980824Y-94652376D01*
X181856612Y-94466480D01*
X181698520Y-94308388D01*
X181512624Y-94184176D01*
X181306067Y-94098617D01*
X181086788Y-94055000D01*
X180863212Y-94055000D01*
X180643933Y-94098617D01*
X180437376Y-94184176D01*
X180251480Y-94308388D01*
X180093388Y-94466480D01*
X179969176Y-94652376D01*
X179883617Y-94858933D01*
X179840000Y-95078212D01*
X165600000Y-95078212D01*
X165556383Y-94858933D01*
X165470824Y-94652376D01*
X165346612Y-94466480D01*
X165188520Y-94308388D01*
X165002624Y-94184176D01*
X164796067Y-94098617D01*
X164576788Y-94055000D01*
X164353212Y-94055000D01*
X164133933Y-94098617D01*
X163927376Y-94184176D01*
X163741480Y-94308388D01*
X163583388Y-94466480D01*
X163459176Y-94652376D01*
X163373617Y-94858933D01*
X163330000Y-95078212D01*
X159580333Y-95078212D01*
X159626852Y-95053348D01*
X159674159Y-94829764D01*
X159004000Y-94159605D01*
X158333841Y-94829764D01*
X149090000Y-94829764D01*
X149090000Y-94058438D01*
X157765505Y-94058438D01*
X157804605Y-94298549D01*
X157889798Y-94526418D01*
X157930652Y-94602852D01*
X158154236Y-94650159D01*
X158824395Y-93980000D01*
X159183605Y-93980000D01*
X159853764Y-94650159D01*
X160077348Y-94602852D01*
X160178237Y-94381484D01*
X160234000Y-94144687D01*
X160242495Y-93901562D01*
X160203395Y-93661451D01*
X160118202Y-93433582D01*
X160077348Y-93357148D01*
X159853764Y-93309841D01*
X159183605Y-93980000D01*
X158824395Y-93980000D01*
X158154236Y-93309841D01*
X157930652Y-93357148D01*
X157829763Y-93578516D01*
X157774000Y-93815313D01*
X157765505Y-94058438D01*
X149090000Y-94058438D01*
X149090000Y-93130236D01*
X158333841Y-93130236D01*
X159004000Y-93800395D01*
X159674159Y-93130236D01*
X159626852Y-92906652D01*
X159405484Y-92805763D01*
X159168687Y-92750000D01*
X158925562Y-92741505D01*
X158685451Y-92780605D01*
X158457582Y-92865798D01*
X158381148Y-92906652D01*
X158333841Y-93130236D01*
X149090000Y-93130236D01*
X149090000Y-92431422D01*
X149094461Y-92420652D01*
X149140000Y-92191712D01*
X149140000Y-91958288D01*
X149094461Y-91729348D01*
X149005134Y-91513692D01*
X148875450Y-91319606D01*
X148710394Y-91154550D01*
X148516308Y-91024866D01*
X148300652Y-90935539D01*
X148071712Y-90890000D01*
X147838288Y-90890000D01*
X147609348Y-90935539D01*
X147393692Y-91024866D01*
X147199606Y-91154550D01*
X147034550Y-91319606D01*
X146904866Y-91513692D01*
X146815539Y-91729348D01*
X146770000Y-91958288D01*
X145330000Y-91958288D01*
X145284461Y-91729348D01*
X145195134Y-91513692D01*
X145065450Y-91319606D01*
X144900394Y-91154550D01*
X144706308Y-91024866D01*
X144490652Y-90935539D01*
X144261712Y-90890000D01*
X144028288Y-90890000D01*
X143799348Y-90935539D01*
X143583692Y-91024866D01*
X143389606Y-91154550D01*
X143224550Y-91319606D01*
X143094866Y-91513692D01*
X143005539Y-91729348D01*
X142960000Y-91958288D01*
X142960000Y-92191712D01*
X143005539Y-92420652D01*
X143010000Y-92431422D01*
X143010000Y-92874868D01*
X141869869Y-94015000D01*
X131665741Y-94015000D01*
X131730237Y-93873484D01*
X131786000Y-93636687D01*
X131794495Y-93393562D01*
X131755395Y-93153451D01*
X131670202Y-92925582D01*
X131629348Y-92849148D01*
X131405764Y-92801841D01*
X130735605Y-93472000D01*
X130749748Y-93486143D01*
X130570143Y-93665748D01*
X130556000Y-93651605D01*
X130541858Y-93665748D01*
X130362253Y-93486143D01*
X130376395Y-93472000D01*
X129706236Y-92801841D01*
X129482652Y-92849148D01*
X129381763Y-93070516D01*
X129326000Y-93307313D01*
X129317505Y-93550438D01*
X129356605Y-93790549D01*
X129440520Y-94015000D01*
X124983212Y-94015000D01*
X124928253Y-94025932D01*
X124872501Y-94031423D01*
X124818894Y-94047685D01*
X124763933Y-94058617D01*
X124712158Y-94080063D01*
X124658553Y-94096324D01*
X124609149Y-94122731D01*
X124557376Y-94144176D01*
X124510786Y-94175307D01*
X124461377Y-94201716D01*
X124418068Y-94237259D01*
X124371480Y-94268388D01*
X124331859Y-94308009D01*
X124288551Y-94343551D01*
X124253011Y-94386857D01*
X124213388Y-94426480D01*
X124182259Y-94473068D01*
X124146716Y-94516377D01*
X124120307Y-94565786D01*
X124089176Y-94612376D01*
X124067731Y-94664149D01*
X124041324Y-94713553D01*
X124025063Y-94767158D01*
X124003617Y-94818933D01*
X123992685Y-94873894D01*
X123976423Y-94927501D01*
X123970932Y-94983253D01*
X123960000Y-95038212D01*
X123960000Y-95094248D01*
X123954509Y-95150000D01*
X109085000Y-95150000D01*
X109085000Y-95038212D01*
X109041383Y-94818933D01*
X108955824Y-94612376D01*
X108831612Y-94426480D01*
X108673520Y-94268388D01*
X108487624Y-94144176D01*
X108281067Y-94058617D01*
X108061788Y-94015000D01*
X107838212Y-94015000D01*
X107618933Y-94058617D01*
X107412376Y-94144176D01*
X107226480Y-94268388D01*
X107068388Y-94426480D01*
X106944176Y-94612376D01*
X106858617Y-94818933D01*
X106815000Y-95038212D01*
X90660000Y-95038212D01*
X90660000Y-92622236D01*
X129885841Y-92622236D01*
X130556000Y-93292395D01*
X131226159Y-92622236D01*
X131178852Y-92398652D01*
X130957484Y-92297763D01*
X130720687Y-92242000D01*
X130477562Y-92233505D01*
X130237451Y-92272605D01*
X130009582Y-92357798D01*
X129933148Y-92398652D01*
X129885841Y-92622236D01*
X90660000Y-92622236D01*
X90660000Y-90158212D01*
X106815000Y-90158212D01*
X106815000Y-90381788D01*
X106858617Y-90601067D01*
X106944176Y-90807624D01*
X107068388Y-90993520D01*
X107226480Y-91151612D01*
X107412376Y-91275824D01*
X107618933Y-91361383D01*
X107838212Y-91405000D01*
X108061788Y-91405000D01*
X108281067Y-91361383D01*
X108487624Y-91275824D01*
X108673520Y-91151612D01*
X108831612Y-90993520D01*
X108955824Y-90807624D01*
X109041383Y-90601067D01*
X109085000Y-90381788D01*
X109085000Y-90158212D01*
X123960000Y-90158212D01*
X123960000Y-90381788D01*
X124003617Y-90601067D01*
X124089176Y-90807624D01*
X124213388Y-90993520D01*
X124371480Y-91151612D01*
X124557376Y-91275824D01*
X124763933Y-91361383D01*
X124983212Y-91405000D01*
X125206788Y-91405000D01*
X125426067Y-91361383D01*
X125632624Y-91275824D01*
X125818520Y-91151612D01*
X125976612Y-90993520D01*
X126100824Y-90807624D01*
X126118163Y-90765764D01*
X129885841Y-90765764D01*
X129933148Y-90989348D01*
X130154516Y-91090237D01*
X130391313Y-91146000D01*
X130634438Y-91154495D01*
X130874549Y-91115395D01*
X131102418Y-91030202D01*
X131178852Y-90989348D01*
X131226159Y-90765764D01*
X158333841Y-90765764D01*
X158381148Y-90989348D01*
X158602516Y-91090237D01*
X158839313Y-91146000D01*
X159082438Y-91154495D01*
X159322549Y-91115395D01*
X159550418Y-91030202D01*
X159626852Y-90989348D01*
X159674159Y-90765764D01*
X159004000Y-90095605D01*
X158333841Y-90765764D01*
X131226159Y-90765764D01*
X130556000Y-90095605D01*
X129885841Y-90765764D01*
X126118163Y-90765764D01*
X126186383Y-90601067D01*
X126230000Y-90381788D01*
X126230000Y-90158212D01*
X126197424Y-89994438D01*
X129317505Y-89994438D01*
X129356605Y-90234549D01*
X129441798Y-90462418D01*
X129482652Y-90538852D01*
X129706236Y-90586159D01*
X130376395Y-89916000D01*
X130735605Y-89916000D01*
X131405764Y-90586159D01*
X131629348Y-90538852D01*
X131730237Y-90317484D01*
X131786000Y-90080687D01*
X131789013Y-89994438D01*
X157765505Y-89994438D01*
X157804605Y-90234549D01*
X157889798Y-90462418D01*
X157930652Y-90538852D01*
X158154236Y-90586159D01*
X158824395Y-89916000D01*
X159183605Y-89916000D01*
X159853764Y-90586159D01*
X160077348Y-90538852D01*
X160178237Y-90317484D01*
X160206324Y-90198212D01*
X163330000Y-90198212D01*
X163330000Y-90421788D01*
X163373617Y-90641067D01*
X163459176Y-90847624D01*
X163583388Y-91033520D01*
X163741480Y-91191612D01*
X163927376Y-91315824D01*
X164133933Y-91401383D01*
X164353212Y-91445000D01*
X164576788Y-91445000D01*
X164796067Y-91401383D01*
X165002624Y-91315824D01*
X165188520Y-91191612D01*
X165346612Y-91033520D01*
X165470824Y-90847624D01*
X165556383Y-90641067D01*
X165600000Y-90421788D01*
X165600000Y-90198212D01*
X179840000Y-90198212D01*
X179840000Y-90421788D01*
X179883617Y-90641067D01*
X179969176Y-90847624D01*
X180093388Y-91033520D01*
X180251480Y-91191612D01*
X180437376Y-91315824D01*
X180643933Y-91401383D01*
X180863212Y-91445000D01*
X181086788Y-91445000D01*
X181306067Y-91401383D01*
X181512624Y-91315824D01*
X181698520Y-91191612D01*
X181856612Y-91033520D01*
X181980824Y-90847624D01*
X182066383Y-90641067D01*
X182110000Y-90421788D01*
X182110000Y-90198212D01*
X182066383Y-89978933D01*
X181980824Y-89772376D01*
X181856612Y-89586480D01*
X181698520Y-89428388D01*
X181512624Y-89304176D01*
X181306067Y-89218617D01*
X181086788Y-89175000D01*
X180863212Y-89175000D01*
X180643933Y-89218617D01*
X180437376Y-89304176D01*
X180251480Y-89428388D01*
X180093388Y-89586480D01*
X179969176Y-89772376D01*
X179883617Y-89978933D01*
X179840000Y-90198212D01*
X165600000Y-90198212D01*
X165556383Y-89978933D01*
X165470824Y-89772376D01*
X165346612Y-89586480D01*
X165188520Y-89428388D01*
X165002624Y-89304176D01*
X164796067Y-89218617D01*
X164576788Y-89175000D01*
X164353212Y-89175000D01*
X164133933Y-89218617D01*
X163927376Y-89304176D01*
X163741480Y-89428388D01*
X163583388Y-89586480D01*
X163459176Y-89772376D01*
X163373617Y-89978933D01*
X163330000Y-90198212D01*
X160206324Y-90198212D01*
X160234000Y-90080687D01*
X160242495Y-89837562D01*
X160203395Y-89597451D01*
X160118202Y-89369582D01*
X160077348Y-89293148D01*
X159853764Y-89245841D01*
X159183605Y-89916000D01*
X158824395Y-89916000D01*
X158154236Y-89245841D01*
X157930652Y-89293148D01*
X157829763Y-89514516D01*
X157774000Y-89751313D01*
X157765505Y-89994438D01*
X131789013Y-89994438D01*
X131794495Y-89837562D01*
X131755395Y-89597451D01*
X131670202Y-89369582D01*
X131629348Y-89293148D01*
X131405764Y-89245841D01*
X130735605Y-89916000D01*
X130376395Y-89916000D01*
X129706236Y-89245841D01*
X129482652Y-89293148D01*
X129381763Y-89514516D01*
X129326000Y-89751313D01*
X129317505Y-89994438D01*
X126197424Y-89994438D01*
X126186383Y-89938933D01*
X126100824Y-89732376D01*
X125976612Y-89546480D01*
X125818520Y-89388388D01*
X125632624Y-89264176D01*
X125426067Y-89178617D01*
X125206788Y-89135000D01*
X124983212Y-89135000D01*
X124763933Y-89178617D01*
X124557376Y-89264176D01*
X124371480Y-89388388D01*
X124213388Y-89546480D01*
X124089176Y-89732376D01*
X124003617Y-89938933D01*
X123960000Y-90158212D01*
X109085000Y-90158212D01*
X109041383Y-89938933D01*
X108955824Y-89732376D01*
X108831612Y-89546480D01*
X108673520Y-89388388D01*
X108487624Y-89264176D01*
X108281067Y-89178617D01*
X108061788Y-89135000D01*
X107838212Y-89135000D01*
X107618933Y-89178617D01*
X107412376Y-89264176D01*
X107226480Y-89388388D01*
X107068388Y-89546480D01*
X106944176Y-89732376D01*
X106858617Y-89938933D01*
X106815000Y-90158212D01*
X90660000Y-90158212D01*
X90660000Y-89066236D01*
X129885841Y-89066236D01*
X130556000Y-89736395D01*
X131226159Y-89066236D01*
X158333841Y-89066236D01*
X159004000Y-89736395D01*
X159674159Y-89066236D01*
X159626852Y-88842652D01*
X159405484Y-88741763D01*
X159168687Y-88686000D01*
X158925562Y-88677505D01*
X158685451Y-88716605D01*
X158457582Y-88801798D01*
X158381148Y-88842652D01*
X158333841Y-89066236D01*
X131226159Y-89066236D01*
X131178852Y-88842652D01*
X130957484Y-88741763D01*
X130720687Y-88686000D01*
X130477562Y-88677505D01*
X130237451Y-88716605D01*
X130009582Y-88801798D01*
X129933148Y-88842652D01*
X129885841Y-89066236D01*
X90660000Y-89066236D01*
X90660000Y-86701764D01*
X129885841Y-86701764D01*
X129933148Y-86925348D01*
X130154516Y-87026237D01*
X130391313Y-87082000D01*
X130634438Y-87090495D01*
X130874549Y-87051395D01*
X131102418Y-86966202D01*
X131178852Y-86925348D01*
X131226159Y-86701764D01*
X158333841Y-86701764D01*
X158381148Y-86925348D01*
X158602516Y-87026237D01*
X158839313Y-87082000D01*
X159082438Y-87090495D01*
X159322549Y-87051395D01*
X159550418Y-86966202D01*
X159626852Y-86925348D01*
X159674159Y-86701764D01*
X159004000Y-86031605D01*
X158333841Y-86701764D01*
X131226159Y-86701764D01*
X130556000Y-86031605D01*
X129885841Y-86701764D01*
X90660000Y-86701764D01*
X90660000Y-85930438D01*
X129317505Y-85930438D01*
X129356605Y-86170549D01*
X129441798Y-86398418D01*
X129482652Y-86474852D01*
X129706236Y-86522159D01*
X130376395Y-85852000D01*
X130735605Y-85852000D01*
X131405764Y-86522159D01*
X131629348Y-86474852D01*
X131730237Y-86253484D01*
X131786000Y-86016687D01*
X131789013Y-85930438D01*
X157765505Y-85930438D01*
X157804605Y-86170549D01*
X157889798Y-86398418D01*
X157930652Y-86474852D01*
X158154236Y-86522159D01*
X158824395Y-85852000D01*
X159183605Y-85852000D01*
X159853764Y-86522159D01*
X160077348Y-86474852D01*
X160178237Y-86253484D01*
X160234000Y-86016687D01*
X160242495Y-85773562D01*
X160203395Y-85533451D01*
X160118202Y-85305582D01*
X160077348Y-85229148D01*
X159853764Y-85181841D01*
X159183605Y-85852000D01*
X158824395Y-85852000D01*
X158154236Y-85181841D01*
X157930652Y-85229148D01*
X157829763Y-85450516D01*
X157774000Y-85687313D01*
X157765505Y-85930438D01*
X131789013Y-85930438D01*
X131794495Y-85773562D01*
X131755395Y-85533451D01*
X131670202Y-85305582D01*
X131629348Y-85229148D01*
X131405764Y-85181841D01*
X130735605Y-85852000D01*
X130376395Y-85852000D01*
X129706236Y-85181841D01*
X129482652Y-85229148D01*
X129381763Y-85450516D01*
X129326000Y-85687313D01*
X129317505Y-85930438D01*
X90660000Y-85930438D01*
X90660000Y-85002236D01*
X129885841Y-85002236D01*
X130556000Y-85672395D01*
X131226159Y-85002236D01*
X158333841Y-85002236D01*
X159004000Y-85672395D01*
X159674159Y-85002236D01*
X159626852Y-84778652D01*
X159405484Y-84677763D01*
X159168687Y-84622000D01*
X158925562Y-84613505D01*
X158685451Y-84652605D01*
X158457582Y-84737798D01*
X158381148Y-84778652D01*
X158333841Y-85002236D01*
X131226159Y-85002236D01*
X131178852Y-84778652D01*
X130957484Y-84677763D01*
X130720687Y-84622000D01*
X130477562Y-84613505D01*
X130237451Y-84652605D01*
X130009582Y-84737798D01*
X129933148Y-84778652D01*
X129885841Y-85002236D01*
X90660000Y-85002236D01*
X90660000Y-82637764D01*
X129885841Y-82637764D01*
X129933148Y-82861348D01*
X130154516Y-82962237D01*
X130391313Y-83018000D01*
X130634438Y-83026495D01*
X130874549Y-82987395D01*
X131102418Y-82902202D01*
X131178852Y-82861348D01*
X131226159Y-82637764D01*
X158333841Y-82637764D01*
X158381148Y-82861348D01*
X158602516Y-82962237D01*
X158839313Y-83018000D01*
X159082438Y-83026495D01*
X159322549Y-82987395D01*
X159550418Y-82902202D01*
X159626852Y-82861348D01*
X159674159Y-82637764D01*
X159004000Y-81967605D01*
X158333841Y-82637764D01*
X131226159Y-82637764D01*
X130556000Y-81967605D01*
X129885841Y-82637764D01*
X90660000Y-82637764D01*
X90660000Y-81866438D01*
X129317505Y-81866438D01*
X129356605Y-82106549D01*
X129441798Y-82334418D01*
X129482652Y-82410852D01*
X129706236Y-82458159D01*
X130376395Y-81788000D01*
X130735605Y-81788000D01*
X131405764Y-82458159D01*
X131629348Y-82410852D01*
X131730237Y-82189484D01*
X131786000Y-81952687D01*
X131789013Y-81866438D01*
X157765505Y-81866438D01*
X157804605Y-82106549D01*
X157889798Y-82334418D01*
X157930652Y-82410852D01*
X158154236Y-82458159D01*
X158824395Y-81788000D01*
X159183605Y-81788000D01*
X159853764Y-82458159D01*
X160077348Y-82410852D01*
X160178237Y-82189484D01*
X160234000Y-81952687D01*
X160242495Y-81709562D01*
X160203395Y-81469451D01*
X160118202Y-81241582D01*
X160077348Y-81165148D01*
X159853764Y-81117841D01*
X159183605Y-81788000D01*
X158824395Y-81788000D01*
X158154236Y-81117841D01*
X157930652Y-81165148D01*
X157829763Y-81386516D01*
X157774000Y-81623313D01*
X157765505Y-81866438D01*
X131789013Y-81866438D01*
X131794495Y-81709562D01*
X131755395Y-81469451D01*
X131670202Y-81241582D01*
X131629348Y-81165148D01*
X131405764Y-81117841D01*
X130735605Y-81788000D01*
X130376395Y-81788000D01*
X129706236Y-81117841D01*
X129482652Y-81165148D01*
X129381763Y-81386516D01*
X129326000Y-81623313D01*
X129317505Y-81866438D01*
X90660000Y-81866438D01*
X90660000Y-80938236D01*
X129885841Y-80938236D01*
X130556000Y-81608395D01*
X131226159Y-80938236D01*
X158333841Y-80938236D01*
X159004000Y-81608395D01*
X159674159Y-80938236D01*
X159626852Y-80714652D01*
X159405484Y-80613763D01*
X159168687Y-80558000D01*
X158925562Y-80549505D01*
X158685451Y-80588605D01*
X158457582Y-80673798D01*
X158381148Y-80714652D01*
X158333841Y-80938236D01*
X131226159Y-80938236D01*
X131178852Y-80714652D01*
X130957484Y-80613763D01*
X130720687Y-80558000D01*
X130477562Y-80549505D01*
X130237451Y-80588605D01*
X130009582Y-80673798D01*
X129933148Y-80714652D01*
X129885841Y-80938236D01*
X90660000Y-80938236D01*
X90660000Y-78065764D01*
X129885841Y-78065764D01*
X129933148Y-78289348D01*
X130154516Y-78390237D01*
X130391313Y-78446000D01*
X130634438Y-78454495D01*
X130874549Y-78415395D01*
X131102418Y-78330202D01*
X131178852Y-78289348D01*
X131226159Y-78065764D01*
X130556000Y-77395605D01*
X129885841Y-78065764D01*
X90660000Y-78065764D01*
X90660000Y-77294438D01*
X129317505Y-77294438D01*
X129356605Y-77534549D01*
X129441798Y-77762418D01*
X129482652Y-77838852D01*
X129706236Y-77886159D01*
X130376395Y-77216000D01*
X130735605Y-77216000D01*
X131405764Y-77886159D01*
X131629348Y-77838852D01*
X131730237Y-77617484D01*
X131786000Y-77380687D01*
X131794495Y-77137562D01*
X131782932Y-77066553D01*
X143874009Y-77066553D01*
X143916603Y-77365907D01*
X144016778Y-77651199D01*
X144096739Y-77800792D01*
X144350920Y-77884475D01*
X145235395Y-77000000D01*
X144350920Y-76115525D01*
X144096739Y-76199208D01*
X143965842Y-76471775D01*
X143890635Y-76764642D01*
X143874009Y-77066553D01*
X131782932Y-77066553D01*
X131755395Y-76897451D01*
X131670202Y-76669582D01*
X131629348Y-76593148D01*
X131405764Y-76545841D01*
X130735605Y-77216000D01*
X130376395Y-77216000D01*
X129706236Y-76545841D01*
X129482652Y-76593148D01*
X129381763Y-76814516D01*
X129326000Y-77051313D01*
X129317505Y-77294438D01*
X90660000Y-77294438D01*
X90660000Y-76366236D01*
X129885841Y-76366236D01*
X130556000Y-77036395D01*
X131226159Y-76366236D01*
X131178852Y-76142652D01*
X130957484Y-76041763D01*
X130720687Y-75986000D01*
X130477562Y-75977505D01*
X130237451Y-76016605D01*
X130009582Y-76101798D01*
X129933148Y-76142652D01*
X129885841Y-76366236D01*
X90660000Y-76366236D01*
X90660000Y-75660000D01*
X144654878Y-75660000D01*
X144614208Y-75681739D01*
M02*
